<?xml version="1.0" encoding="UTF-8"?> <svg xmlns="http://www.w3.org/2000/svg" width="95" height="95" viewBox="0 0 95 95" fill="none"><path d="M22.5998 56.1214C22.4168 56.1214 22.2412 56.0424 22.1117 55.9018C21.9823 55.7611 21.9095 55.5703 21.9095 55.3714C21.8359 35.1614 32.7793 13.0114 32.8897 12.7914C32.9772 12.6213 33.1222 12.4949 33.294 12.4389C33.4658 12.3829 33.6509 12.4017 33.8101 12.4914C33.9685 12.5846 34.0864 12.7421 34.1382 12.9295C34.1899 13.1169 34.1712 13.3189 34.0863 13.4914C33.9758 13.7114 23.1981 35.4914 23.2717 55.3614C23.2717 55.5603 23.199 55.7511 23.0695 55.8918C22.9401 56.0324 22.7645 56.1114 22.5814 56.1114L22.5998 56.1214Z" fill="#E61B23"></path><path d="M19.8482 92.3011C19.3965 92.3004 18.9527 92.1729 18.5596 91.9311C18.0932 91.6889 17.6771 91.3457 17.3368 90.9228C16.9966 90.4998 16.7393 90.0058 16.5808 89.4711C16.4115 88.8209 16.3739 88.1386 16.4704 87.4711C15.8511 87.8039 15.1799 88.0074 14.4915 88.0711C13.9094 88.104 13.3286 87.9839 12.7983 87.7211C12.268 87.4582 11.8038 87.0603 11.4451 86.5611C10.4234 85.0611 10.5247 82.8211 10.7916 81.4111C10.2609 81.5544 9.72315 81.6645 9.18091 81.7411C8.01875 81.8531 6.85924 81.4972 5.92275 80.7411C5.07511 80.149 4.46052 79.2354 4.19854 78.1782C3.93656 77.1209 4.04592 75.9956 4.50536 75.0211C3.81638 75.0006 3.14715 74.7666 2.57645 74.3467C2.00575 73.9269 1.55734 73.3386 1.28401 72.6511C0.910341 71.5035 0.905258 70.2522 1.26958 69.1009C1.63391 67.9497 2.34619 66.9664 3.29045 66.3111C3.36297 66.252 3.44549 66.209 3.5333 66.1846C3.62112 66.1602 3.7125 66.1547 3.80224 66.1687C3.89198 66.1826 3.97832 66.2156 4.05632 66.2658C4.13432 66.316 4.20246 66.3823 4.25685 66.4611C4.31124 66.5399 4.35081 66.6296 4.37331 66.725C4.39581 66.8204 4.40079 66.9197 4.38797 67.0172C4.37515 67.1147 4.34478 67.2085 4.2986 67.2933C4.25241 67.378 4.19131 67.452 4.11879 67.5111C3.42617 67.9858 2.89898 68.6978 2.6206 69.5346C2.34222 70.3713 2.32855 71.285 2.58175 72.1311C3.16159 73.8711 5.53619 73.6511 5.5638 73.6511C5.69249 73.6345 5.8229 73.6576 5.94009 73.7177C6.05729 73.7778 6.15653 73.8726 6.22648 73.9911C6.29393 74.1117 6.3296 74.25 6.3296 74.3911C6.3296 74.5322 6.29393 74.6706 6.22648 74.7911C5.02997 76.8211 5.19564 78.3211 6.73269 79.6511C7.42564 80.1896 8.28102 80.422 9.12569 80.3011C9.33738 80.3011 10.5339 79.9911 11.5187 79.7411C11.6826 79.6955 11.8562 79.7169 12.0065 79.8011C12.148 79.8852 12.2589 80.0193 12.3208 80.1811C12.3827 80.3429 12.392 80.5228 12.347 80.6911C11.9973 81.9611 11.6568 84.4511 12.5219 85.6911C12.7574 85.9995 13.0574 86.2421 13.3969 86.3986C13.7364 86.5552 14.1054 86.6212 14.4731 86.5911C15.4372 86.3501 16.3662 85.9666 17.2343 85.4511C17.3645 85.3777 17.5133 85.3526 17.6579 85.3797C17.8025 85.4068 17.9349 85.4846 18.035 85.6011C18.1375 85.7156 18.2042 85.8622 18.2257 86.0201C18.2472 86.1781 18.2223 86.3394 18.1547 86.4811C18.0166 86.7511 16.8937 89.2911 19.1763 90.6111C19.3553 90.7232 19.556 90.788 19.7623 90.8001C19.9685 90.8123 20.1745 90.7715 20.3636 90.6811C22.4437 89.7811 25.1496 84.3411 27.5978 76.1511C28.0685 74.6085 28.6406 73.1046 29.3097 71.6511L29.5767 71.0511C29.6132 70.9577 29.6667 70.8734 29.7341 70.8031C29.8015 70.7329 29.8813 70.6782 29.9687 70.6424C30.0561 70.6067 30.1493 70.5905 30.2426 70.595C30.3359 70.5995 30.4273 70.6245 30.5115 70.6685C30.5956 70.7125 30.6707 70.7747 30.7321 70.8511C30.7935 70.9275 30.84 71.0167 30.8688 71.1133C30.8975 71.2098 30.908 71.3117 30.8994 71.4127C30.8909 71.5138 30.8636 71.6119 30.8192 71.7011L30.5523 72.3011C29.9241 73.708 29.3889 75.1617 28.9508 76.6511C27.4138 81.7911 24.3489 90.6511 20.9158 92.1111C20.5736 92.2447 20.2118 92.3091 19.8482 92.3011Z" fill="#E61B23"></path><path d="M36.9584 68.6511C35.2736 68.6545 33.5898 68.5577 31.9147 68.3611C31.7332 68.336 31.5676 68.2356 31.4527 68.0809C31.3377 67.9262 31.2823 67.7292 31.298 67.5311C31.3188 67.3335 31.411 67.153 31.5542 67.0293C31.6975 66.9055 31.8801 66.8486 32.062 66.8711C50.4144 69.0911 70.4788 57.6811 70.7181 57.5611C70.8805 57.4683 71.0701 57.4493 71.2453 57.5084C71.4205 57.5675 71.5669 57.6997 71.6523 57.8761C71.7378 58.0525 71.7552 58.2585 71.7009 58.4488C71.6465 58.6392 71.5247 58.7983 71.3624 58.8911C71.1599 59.0111 54.1696 68.6511 36.9584 68.6511Z" fill="#E61B23"></path><path d="M20.5387 67.921C20.157 67.9312 19.7772 67.8587 19.4217 67.7076C19.0661 67.5565 18.7418 67.3299 18.4678 67.041C18.1448 66.6796 17.9054 66.24 17.7694 65.7584C17.6334 65.2768 17.6046 64.767 17.6855 64.271C17.833 63.1972 18.3021 62.2061 19.02 61.451C20.5939 59.741 22.9041 59.451 24.165 60.851C24.4906 61.2165 24.7307 61.6615 24.8652 62.1487C24.9998 62.6359 25.0247 63.1511 24.9381 63.651C24.7906 64.7248 24.3215 65.7158 23.6036 66.471C22.7939 67.3682 21.6948 67.8882 20.5387 67.921ZM22.1033 61.471C21.3086 61.4975 20.5538 61.8556 19.9956 62.471C19.4941 63.009 19.1705 63.7122 19.0753 64.471C19.0242 64.7379 19.0327 65.0142 19.0999 65.2769C19.1672 65.5396 19.2913 65.781 19.4618 65.981C20.1797 66.761 21.6431 66.481 22.6556 65.381C23.1548 64.8411 23.478 64.1388 23.5759 63.381C23.6228 63.1132 23.6114 62.8372 23.5427 62.575C23.4739 62.3129 23.3498 62.0718 23.1802 61.871C22.8812 61.5866 22.4906 61.4428 22.0941 61.471H22.1033Z" fill="#E61B23"></path><path d="M15.5866 80.2915C15.4747 80.2948 15.3639 80.2673 15.2645 80.2115L9.13471 76.6515C9.01007 76.5778 8.90898 76.4647 8.84487 76.3272C8.78076 76.1897 8.75666 76.0342 8.77577 75.8815C9.07029 73.5515 11.9603 70.4415 13.5894 68.8815C10.3312 68.7315 7.65289 72.7115 7.65289 72.7615C7.59875 72.8457 7.52905 72.9168 7.44824 72.9702C7.36742 73.0235 7.27726 73.058 7.1835 73.0715C7.09062 73.0861 6.99595 73.0794 6.90559 73.0518C6.81523 73.0243 6.73119 72.9765 6.65888 72.9115C4.21065 70.7615 2.80246 66.5815 2.74724 66.4015C2.6902 66.2338 2.68938 66.0496 2.74493 65.8814C2.80048 65.7131 2.90884 65.5715 3.05097 65.4815C6.73251 63.4815 12.1812 62.9415 15.559 62.8415L12.7979 61.3315C12.7155 61.2871 12.6422 61.2253 12.5821 61.1498C12.5221 61.0742 12.4765 60.9864 12.4481 60.8915C12.2556 60.2698 12.1825 59.6119 12.2331 58.9583C12.2838 58.3048 12.4572 57.6694 12.7426 57.0915C14.4822 53.4115 20.0413 51.4415 20.2714 51.3615C20.3971 51.3196 20.5312 51.3171 20.6581 51.3543C20.7851 51.3914 20.8999 51.4667 20.9893 51.5715C25.085 56.3515 24.3763 61.3015 24.3395 61.5015C24.3055 61.693 24.2041 61.8626 24.057 61.9742C23.9098 62.0859 23.7284 62.1309 23.5512 62.0997C23.374 62.0685 23.215 61.9635 23.1078 61.807C23.0007 61.6505 22.9539 61.4548 22.9773 61.2615C23.0895 59.7483 22.9074 58.2264 22.4428 56.7947C21.9782 55.363 21.2415 54.0536 20.2806 52.9515C19.0105 53.4615 15.2001 55.1715 13.9667 57.7715C13.6064 58.4928 13.5048 59.3335 13.6814 60.1315L18.8448 62.9215C18.9855 62.9966 19.0981 63.1222 19.1635 63.277C19.2289 63.4319 19.2431 63.6065 19.2037 63.7715C19.1707 63.9425 19.0815 64.0947 18.9528 64.1996C18.8241 64.3045 18.6646 64.3549 18.5042 64.3415C18.4122 64.3415 9.51207 63.9715 4.27508 66.5215C4.93924 68.2524 5.87334 69.8457 7.03624 71.2315C8.23274 69.6915 11.4817 66.2315 15.3657 67.7515C15.4808 67.7956 15.5827 67.8726 15.661 67.9742C15.7393 68.0759 15.7911 68.1985 15.8108 68.3294C15.8306 68.4602 15.8176 68.5943 15.7733 68.7178C15.729 68.8414 15.655 68.9497 15.559 69.0315C14.2521 70.1915 10.9571 73.4615 10.2852 75.6315L15.1264 78.4115C15.599 76.2484 16.4625 74.2089 17.6667 72.4115C18.7682 70.9453 19.3755 69.1141 19.3878 67.2215C19.3724 67.1195 19.3765 67.0152 19.3999 66.9151C19.4233 66.815 19.4654 66.7212 19.5238 66.6396C19.5821 66.5581 19.6553 66.4904 19.7388 66.441C19.8222 66.3916 19.9142 66.3615 20.0089 66.3525C20.1036 66.3435 20.199 66.3559 20.2891 66.3889C20.3793 66.4218 20.4621 66.4746 20.5326 66.544C20.603 66.6134 20.6595 66.6978 20.6985 66.792C20.7375 66.8862 20.7581 66.9882 20.7592 67.0915C20.7679 69.3579 20.0375 71.5544 18.6975 73.2915C17.4663 75.1911 16.6365 77.3629 16.2677 79.6515C16.2528 79.769 16.2114 79.8807 16.1472 79.9767C16.0829 80.0726 15.9979 80.1498 15.8995 80.2015C15.8043 80.2608 15.6964 80.2918 15.5866 80.2915Z" fill="#E61B23"></path><path d="M24.8367 74.051C24.2587 74.0548 23.6829 73.9741 23.1248 73.811C22.9931 73.7744 22.8745 73.6958 22.7843 73.5853C22.6941 73.4748 22.6363 73.3375 22.6185 73.191C22.2658 71.1733 21.5393 69.2545 20.4832 67.551C20.3734 67.3879 20.3277 67.1841 20.3562 66.9844C20.3847 66.7846 20.485 66.6054 20.6351 66.486C20.7852 66.3667 20.9728 66.317 21.1567 66.348C21.3405 66.3789 21.5055 66.4879 21.6153 66.651C22.7066 68.3994 23.4812 70.3576 23.8979 72.421C27.2021 73.051 30.81 70.081 31.9052 69.091C30.1657 64.251 24.1372 63.091 24.0728 63.091C23.9832 63.0741 23.8977 63.0382 23.821 62.9853C23.7443 62.9324 23.6779 62.8635 23.6258 62.7827C23.5736 62.7019 23.5367 62.6106 23.517 62.5143C23.4974 62.4179 23.4954 62.3182 23.5113 62.221C23.5258 62.1242 23.5578 62.0314 23.6056 61.9482C23.6534 61.8649 23.7159 61.7928 23.7896 61.736C23.8632 61.6793 23.9465 61.639 24.0347 61.6175C24.1228 61.5961 24.2139 61.5939 24.3028 61.611C24.6066 61.661 31.6015 63.021 33.3686 69.121C33.4094 69.2566 33.4137 69.402 33.3811 69.5402C33.3485 69.6783 33.2803 69.8035 33.1846 69.901C32.9913 70.101 29.0428 74.051 24.8367 74.051Z" fill="#E61B23"></path><path d="M40.4924 26.0812C40.3997 26.0805 40.308 26.0599 40.2227 26.0204C40.1373 25.9809 40.0601 25.9234 39.9954 25.8512C39.8482 25.6812 36.4059 21.7312 37.0318 17.1812C37.3999 14.4812 39.1027 12.1812 42.0939 10.3712C44.4138 8.99809 46.1479 6.69417 46.9259 3.95117C46.9631 3.82099 47.0326 3.70449 47.1267 3.6145C47.2209 3.52451 47.3362 3.46453 47.4598 3.44117C47.5846 3.41732 47.713 3.43078 47.8314 3.48009C47.9497 3.52941 48.0535 3.61274 48.1316 3.72117C48.2881 3.95117 52.0985 9.33117 51.9973 13.6512C51.9973 13.7496 51.9791 13.8471 51.9436 13.9376C51.9081 14.0282 51.8561 14.1101 51.7908 14.1783C51.7255 14.2465 51.6481 14.2996 51.5634 14.3345C51.4786 14.3693 51.3883 14.3852 51.2978 14.3812C51.2071 14.3799 51.1176 14.3592 51.0343 14.3203C50.951 14.2814 50.8756 14.225 50.8123 14.1544C50.7491 14.0839 50.6993 14.0005 50.6657 13.909C50.6321 13.8175 50.6155 13.7197 50.6167 13.6212C50.6811 10.9012 48.8311 7.49117 47.7727 5.76117C46.7483 8.27149 44.9877 10.3426 42.7658 11.6512C40.1703 13.2312 38.6977 15.1512 38.394 17.3612C37.8693 21.1812 40.9618 24.7512 40.9894 24.7812C41.0833 24.8871 41.1464 25.0208 41.1709 25.1654C41.1954 25.31 41.1802 25.4593 41.1273 25.5946C41.0743 25.73 40.9859 25.8454 40.873 25.9266C40.7601 26.0078 40.6278 26.0511 40.4924 26.0512V26.0812Z" fill="#E61B23"></path><path d="M46.5209 29.0515C45.63 29.0622 44.7427 28.9273 43.8886 28.6515C42.7139 28.292 41.6343 27.6351 40.7384 26.7347C39.8425 25.8343 39.1557 24.716 38.7345 23.4715C38.4251 22.4336 38.3574 21.3287 38.5373 20.2554C38.7171 19.1822 39.1391 18.1742 39.7653 17.3215C40.4339 16.3881 41.2621 15.6038 42.2043 15.0115C46.705 12.0115 52.5771 12.0715 57.9337 15.3015C58.5504 15.6715 59.1394 16.0715 59.6732 16.4715L59.9125 16.6915C59.9724 16.754 60.037 16.8109 60.1058 16.8615C60.1912 16.8877 60.2708 16.9324 60.34 16.9927C60.4091 17.0531 60.4665 17.1279 60.5085 17.2128C60.5506 17.2977 60.5765 17.3908 60.5848 17.4868C60.5931 17.5828 60.5836 17.6796 60.5568 17.7715C60.5308 17.8734 60.4858 17.9684 60.4246 18.0505C60.3633 18.1327 60.2871 18.2003 60.2008 18.2491C60.1144 18.2979 60.0198 18.3268 59.9227 18.3341C59.8256 18.3414 59.7281 18.3269 59.6364 18.2915C58.5596 17.9715 56.7924 19.2915 55.6144 20.5515C54.9354 21.3336 54.401 22.2502 54.0405 23.2515L53.9761 23.3915C53.3898 24.7907 52.5401 26.0409 51.4818 27.0615C50.1041 28.3547 48.3416 29.0617 46.5209 29.0515ZM49.4938 14.2615C47.1768 14.2446 44.9024 14.9378 42.9314 16.2615C42.1383 16.7577 41.4388 17.4125 40.8698 18.1915C40.377 18.8526 40.0432 19.6366 39.8986 20.4727C39.754 21.3089 39.8031 22.171 40.0414 22.9815C40.4482 24.0449 41.0774 24.9907 41.8793 25.7438C42.6812 26.497 43.6336 27.0366 44.6609 27.3201C45.6883 27.6035 46.7623 27.6228 47.7977 27.3766C48.8331 27.1303 49.8014 26.6253 50.6259 25.9015C51.5307 25.01 52.2547 23.9236 52.752 22.7115L52.8072 22.5715C53.2244 21.4062 53.85 20.3424 54.6479 19.4415C55.5781 18.4133 56.681 17.5884 57.8969 17.0115C57.676 16.8615 57.4459 16.7115 57.2066 16.5715C54.8563 15.1065 52.203 14.3118 49.4938 14.2615Z" fill="#E61B23"></path><path d="M54.9607 15.3511C54.8385 15.3531 54.718 15.3193 54.6119 15.2533C54.5058 15.1873 54.418 15.0914 54.3578 14.9759C54.2975 14.8603 54.267 14.7292 54.2695 14.5964C54.2719 14.4636 54.3072 14.334 54.3717 14.2211C55.108 12.8611 54.9975 10.6411 54.8963 9.63108C53.4677 9.59229 52.0431 9.81195 50.6809 10.2811C50.5932 10.3208 50.4989 10.3404 50.4039 10.3387C50.3089 10.337 50.2152 10.314 50.1288 10.2711C50.0423 10.2282 49.965 10.1664 49.9015 10.0896C49.8381 10.0127 49.7899 9.92247 49.7601 9.82446C49.7302 9.72645 49.7193 9.62279 49.728 9.51999C49.7367 9.41719 49.7649 9.31744 49.8107 9.22701C49.8566 9.13658 49.9191 9.0574 49.9944 8.99443C50.0697 8.93147 50.1561 8.88607 50.2483 8.86108C51.987 8.23348 53.83 8.02197 55.651 8.24108C55.7864 8.27062 55.9105 8.34359 56.0073 8.45054C56.1041 8.5575 56.1691 8.69354 56.194 8.84108C56.194 9.00108 56.7923 12.7211 55.559 14.9911C55.4959 15.1017 55.4078 15.1929 55.3031 15.2559C55.1983 15.319 55.0804 15.3517 54.9607 15.3511Z" fill="#E61B23"></path><path d="M57.8599 16.8213C57.7717 16.8251 57.6837 16.8081 57.6022 16.7713C57.5158 16.7339 57.4372 16.6783 57.3708 16.6076C57.3045 16.5369 57.2518 16.4525 57.2158 16.3594C57.1798 16.2663 57.1613 16.1663 57.1612 16.0653C57.1612 15.9644 57.1797 15.8644 57.2156 15.7713C57.4508 15.064 57.551 14.312 57.5101 13.5613C56.9279 13.4871 56.338 13.5312 55.7706 13.6913C55.6872 13.7307 55.5975 13.7518 55.5066 13.7535C55.4156 13.7553 55.3253 13.7375 55.2407 13.7013C55.1561 13.6651 55.0789 13.6111 55.0134 13.5425C54.948 13.4738 54.8957 13.3919 54.8594 13.3013C54.8232 13.2107 54.8037 13.1132 54.8021 13.0144C54.8005 12.9156 54.8169 12.8174 54.8502 12.7255C54.8835 12.6336 54.9332 12.5497 54.9964 12.4786C55.0595 12.4075 55.135 12.3507 55.2184 12.3113C56.1824 12.0183 57.193 11.9535 58.182 12.1213C58.3204 12.1402 58.4504 12.2036 58.5554 12.3034C58.6603 12.4032 58.7355 12.5348 58.7711 12.6813C58.9958 13.902 58.9001 15.1668 58.495 16.3313C58.4479 16.4737 58.3618 16.597 58.2483 16.6846C58.1347 16.7723 57.9992 16.8199 57.8599 16.8213Z" fill="#E61B23"></path><path d="M51.5737 10.0012C51.4197 10.003 51.27 9.94639 51.1503 9.84124C51.0061 9.71716 50.9126 9.53633 50.8902 9.33792C50.8678 9.13952 50.9183 8.93952 51.0306 8.78124C51.2428 8.14133 51.3214 7.4582 51.2607 6.78124C50.5502 6.76896 49.8422 6.87692 49.1623 7.10124C49.0746 7.13013 48.9826 7.13999 48.8915 7.13025C48.8004 7.1205 48.7119 7.09135 48.6311 7.04446C48.5504 6.99757 48.4789 6.93385 48.4208 6.85694C48.3627 6.78004 48.3191 6.69145 48.2925 6.59624C48.2659 6.50103 48.2568 6.40107 48.2658 6.30205C48.2748 6.20303 48.3016 6.1069 48.3448 6.01915C48.3879 5.9314 48.4466 5.85375 48.5173 5.79062C48.5881 5.72749 48.6697 5.68013 48.7573 5.65124C49.8423 5.27374 50.9966 5.19471 52.1167 5.42124C52.2477 5.46564 52.3639 5.55094 52.4506 5.66652C52.5373 5.7821 52.5909 5.92285 52.6045 6.07124C52.6045 6.69124 52.7702 8.79124 52.1167 9.68124C52.0553 9.77674 51.9742 9.85538 51.88 9.91093C51.7857 9.96647 51.6808 9.99739 51.5737 10.0012Z" fill="#E61B23"></path><path d="M43.64 20.0113C43.4905 20.012 43.345 19.9593 43.2258 19.8613C43.0808 19.7404 42.9858 19.562 42.9616 19.3652C42.9375 19.1684 42.9861 18.9692 43.097 18.8113C43.8465 17.6092 44.9215 16.6901 46.1731 16.1812C47.4247 15.6724 48.791 15.599 50.0827 15.9713C50.1691 16.0028 50.249 16.0525 50.3177 16.1175C50.3865 16.1826 50.4427 16.2617 50.4833 16.3504C50.5239 16.4391 50.5481 16.5356 50.5543 16.6344C50.5606 16.7332 50.5489 16.8324 50.5199 16.9263C50.4909 17.0202 50.4451 17.1069 50.3853 17.1816C50.3254 17.2563 50.2526 17.3174 50.171 17.3616C50.0893 17.4057 50.0005 17.4319 49.9096 17.4387C49.8186 17.4455 49.7273 17.4328 49.6409 17.4013C48.6235 17.1229 47.5514 17.1968 46.5745 17.6128C45.5976 18.0287 44.7647 18.7659 44.1922 19.7213C44.1265 19.812 44.0426 19.8853 43.9469 19.9355C43.8513 19.9858 43.7463 20.0117 43.64 20.0113Z" fill="#E61B23"></path><path d="M62.1582 26.171C62.0675 26.1684 61.9782 26.1464 61.8954 26.1063C61.8125 26.0662 61.7378 26.0087 61.6754 25.9372C61.613 25.8657 61.5642 25.7816 61.5317 25.6896C61.4993 25.5975 61.4838 25.4995 61.4863 25.401C61.5415 22.811 59.848 19.561 58.8264 17.861C58.7372 17.6974 58.7085 17.5032 58.7461 17.3176C58.7837 17.132 58.8847 16.9688 59.0288 16.861C59.1804 16.7687 59.3579 16.7401 59.5276 16.7807C59.6972 16.8212 59.8473 16.9281 59.9492 17.081C61.293 19.341 62.8945 22.631 62.83 25.481C62.8185 25.6667 62.7429 25.8409 62.6184 25.9688C62.4938 26.0967 62.3295 26.1689 62.1582 26.171Z" fill="#E61B23"></path><path d="M51.3439 37.8718C51.251 37.8723 51.159 37.8522 51.0735 37.8127C50.988 37.7731 50.9109 37.715 50.8469 37.6418C50.672 37.4418 46.5487 32.7118 48.1778 27.6418C48.2376 27.4535 48.3638 27.2987 48.5286 27.2115C48.6934 27.1243 48.8834 27.1118 49.0567 27.1768C49.23 27.2418 49.3725 27.3789 49.4528 27.558C49.533 27.7371 49.5445 27.9435 49.4847 28.1318C48.1501 32.3318 51.8317 36.5518 51.8317 36.6518C51.9449 36.7893 52.0075 36.9673 52.0075 37.1518C52.0075 37.3363 51.9449 37.5143 51.8317 37.6518C51.7013 37.7907 51.5265 37.8695 51.3439 37.8718Z" fill="#E61B23"></path><path d="M57.3539 40.8412C56.4614 40.834 55.5747 40.6858 54.7216 40.4012C53.5471 40.0387 52.4677 39.3809 51.5706 38.481C50.6736 37.5811 49.9842 36.4644 49.5582 35.2212C49.2526 34.1806 49.1876 33.0742 49.369 31.9999C49.5504 30.9255 49.9726 29.9162 50.5982 29.0612C51.2653 28.129 52.0939 27.3477 53.0373 26.7612C57.5287 23.7112 63.41 23.8212 68.7666 27.0512C69.3645 27.4086 69.9451 27.7991 70.5062 28.2212L70.7455 28.4412C70.8053 28.5038 70.8699 28.5607 70.9388 28.6112C71.0241 28.6375 71.1037 28.6822 71.1729 28.7425C71.2421 28.8029 71.2994 28.8777 71.3414 28.9626C71.3835 29.0474 71.4094 29.1406 71.4177 29.2366C71.426 29.3325 71.4165 29.4293 71.3897 29.5212C71.3628 29.6222 71.317 29.7162 71.2553 29.7972C71.1937 29.8783 71.1173 29.9448 71.0311 29.9926C70.9449 30.0404 70.8505 30.0684 70.7539 30.0751C70.6573 30.0817 70.5605 30.0668 70.4694 30.0312C69.3925 29.7112 67.6254 31.0312 66.4473 32.3012C65.7644 33.08 65.2295 33.9975 64.8734 35.0012L64.809 35.1412C64.2217 36.5369 63.372 37.7836 62.3147 38.8012C60.9454 40.1158 59.1811 40.8413 57.3539 40.8412ZM60.3451 26.0512C58.0281 26.0344 55.7537 26.7275 53.7828 28.0512C52.9879 28.5448 52.288 29.2001 51.7211 29.9812C51.2246 30.6382 50.8884 31.4206 50.7436 32.256C50.5989 33.0914 50.6501 33.953 50.8928 34.7612C51.3027 35.8206 51.9338 36.7619 52.7362 37.5106C53.5387 38.2594 54.4904 38.7951 55.5161 39.0754C56.5419 39.3558 57.6137 39.373 58.6466 39.1258C59.6796 38.8787 60.6455 38.3738 61.468 37.6512C62.3793 36.7671 63.1125 35.6879 63.6217 34.4812L63.6861 34.3412C64.1057 33.1743 64.731 32.1077 65.5269 31.2012C66.4671 30.1817 67.5715 29.3581 68.785 28.7712L68.0948 28.3412C65.7314 26.878 63.065 26.09 60.3451 26.0512Z" fill="#E61B23"></path><path d="M65.8123 27.1414C65.6896 27.1424 65.5689 27.1079 65.4625 27.0414C65.3107 26.9414 65.2002 26.7817 65.1539 26.5955C65.1076 26.4093 65.1292 26.2108 65.214 26.0414C65.7825 24.5954 65.9674 23.0055 65.7479 21.4514C64.3193 21.4126 62.8947 21.6323 61.5325 22.1014C61.3555 22.1637 61.163 22.1471 60.9973 22.0552C60.8316 21.9633 60.7063 21.8037 60.6489 21.6114C60.5916 21.4191 60.6068 21.2099 60.6914 21.0299C60.776 20.8499 60.9229 20.7137 61.0999 20.6514C62.8405 20.0335 64.6816 19.8222 66.5026 20.0314C66.6387 20.0629 66.763 20.1377 66.8598 20.2464C66.9565 20.355 67.0212 20.4926 67.0456 20.6414C67.0456 20.8014 67.6439 24.5114 66.4013 26.7814C66.3405 26.8919 66.2541 26.9832 66.1508 27.0464C66.0475 27.1095 65.9308 27.1423 65.8123 27.1414Z" fill="#E61B23"></path><path d="M68.7025 28.6514C68.6148 28.6482 68.528 28.6314 68.4448 28.6014C68.3584 28.5643 68.2798 28.5086 68.2138 28.4376C68.1477 28.3667 68.0955 28.282 68.0603 28.1887C68.025 28.0953 68.0075 27.9952 68.0087 27.8943C68.01 27.7934 68.0299 27.6938 68.0674 27.6014C68.3212 26.8883 68.4341 26.1251 68.3987 25.3614C67.8159 25.2908 67.2261 25.3383 66.6592 25.5014C66.5758 25.5402 66.4862 25.5607 66.3955 25.5618C66.3048 25.5629 66.2148 25.5446 66.1306 25.5079C66.0464 25.4713 65.9697 25.4169 65.9049 25.348C65.84 25.2791 65.7883 25.197 65.7526 25.1064C65.6806 24.9234 65.6785 24.7169 65.7466 24.5321C65.8148 24.3474 65.9477 24.1997 66.1162 24.1214C67.0794 23.8234 68.091 23.7585 69.0798 23.9314C69.2174 23.9496 69.3467 24.0129 69.4503 24.113C69.5539 24.213 69.627 24.3451 69.6597 24.4914C69.8664 25.7186 69.7483 26.9843 69.3191 28.1414C69.274 28.283 69.1915 28.407 69.0817 28.4977C68.972 28.5884 68.8401 28.6419 68.7025 28.6514Z" fill="#E61B23"></path><path d="M62.4253 21.7914C62.2586 21.8056 62.0926 21.7561 61.9559 21.6514C61.8265 21.5293 61.7436 21.3594 61.7232 21.1746C61.7028 20.9897 61.7463 20.8033 61.8454 20.6514C62.0578 20.0116 62.1334 19.3277 62.0663 18.6514C61.3596 18.6407 60.6553 18.7452 59.9771 18.9614C59.8887 18.9987 59.7942 19.0157 59.6994 19.0116C59.6047 19.0074 59.5118 18.9821 59.4264 18.9372C59.3411 18.8922 59.2652 18.8287 59.2035 18.7505C59.1418 18.6724 59.0955 18.5812 59.0676 18.4828C59.0398 18.3843 59.0308 18.2807 59.0414 18.1783C59.052 18.0759 59.0819 17.977 59.1293 17.8878C59.1766 17.7985 59.2403 17.7208 59.3165 17.6595C59.3927 17.5982 59.4797 17.5546 59.5721 17.5314C60.657 17.1535 61.8114 17.0745 62.9315 17.3014C63.0613 17.3433 63.1765 17.4268 63.2619 17.541C63.3473 17.6552 63.399 17.7948 63.4101 17.9414C63.4653 18.5714 63.585 20.6614 62.9315 21.5614C62.8661 21.6353 62.7874 21.6939 62.7003 21.7334C62.6133 21.773 62.5196 21.7927 62.4253 21.7914Z" fill="#E61B23"></path><path d="M54.4913 31.8009C54.3401 31.8028 54.1933 31.7461 54.0771 31.6409C53.9307 31.5215 53.8339 31.3439 53.808 31.1469C53.7821 30.95 53.8292 30.75 53.9391 30.5909C54.6898 29.3906 55.7654 28.4735 57.0169 27.9665C58.2684 27.4595 59.6341 27.3876 60.9248 27.7609C61.0917 27.8299 61.2275 27.9665 61.3036 28.142C61.3798 28.3175 61.3904 28.5182 61.3332 28.702C61.276 28.8858 61.1555 29.0384 60.997 29.1277C60.8384 29.217 60.6542 29.236 60.483 29.1809C59.4669 28.9047 58.3968 28.9798 57.4218 29.3957C56.4468 29.8115 55.6154 30.5474 55.0436 31.5009C54.9798 31.5946 54.8965 31.6706 54.8005 31.7228C54.7046 31.7749 54.5986 31.8017 54.4913 31.8009Z" fill="#E61B23"></path><path d="M73.0003 37.9511C72.818 37.9459 72.6448 37.8636 72.5175 37.7216C72.3903 37.5796 72.3192 37.3893 72.3192 37.1912C72.3836 34.5912 70.6809 31.3512 69.6593 29.6412C69.5717 29.4743 69.5464 29.2774 69.5885 29.0909C69.6306 28.9044 69.7369 28.7425 69.8856 28.6387C70.0343 28.5348 70.214 28.4969 70.3876 28.5327C70.5613 28.5685 70.7157 28.6753 70.819 28.8312C72.1719 31.0812 73.7642 34.3712 73.6998 37.2212C73.6986 37.3192 73.6795 37.416 73.6436 37.5059C73.6077 37.5959 73.5557 37.6772 73.4906 37.7451C73.4255 37.813 73.3486 37.8662 73.2645 37.9016C73.1803 37.937 73.0905 37.9538 73.0003 37.9511Z" fill="#E61B23"></path><path d="M62.1859 49.6514C62.0932 49.6508 62.0015 49.6301 61.9162 49.5906C61.8308 49.5512 61.7536 49.4936 61.6889 49.4214C61.5141 49.2214 57.3999 44.4914 59.0198 39.4214C59.0493 39.3232 59.0973 39.2326 59.1605 39.1554C59.2238 39.0783 59.3011 39.0161 59.3875 38.9729C59.4739 38.9297 59.5676 38.9064 59.6627 38.9044C59.7578 38.9025 59.8523 38.9219 59.9402 38.9614C60.0259 38.9929 60.1049 39.0425 60.1727 39.1075C60.2405 39.1725 60.2958 39.2515 60.3352 39.34C60.3746 39.4284 60.3974 39.5245 60.4023 39.6226C60.4071 39.7207 60.394 39.8189 60.3636 39.9114C59.0198 44.1114 62.6829 48.3414 62.7198 48.3814C62.849 48.522 62.9216 48.7127 62.9216 48.9114C62.9216 49.1102 62.849 49.3008 62.7198 49.4414C62.6503 49.5166 62.5665 49.5744 62.4743 49.6107C62.382 49.647 62.2836 49.6609 62.1859 49.6514Z" fill="#E61B23"></path><path d="M68.2146 52.651C67.3218 52.6488 66.4344 52.5005 65.5822 52.211C64.4075 51.8516 63.3279 51.1947 62.432 50.2943C61.5361 49.3939 60.8493 48.2755 60.4281 47.031C60.1187 45.9932 60.051 44.8883 60.2309 43.815C60.4108 42.7418 60.8327 41.7337 61.4589 40.881C62.13 39.9502 62.9577 39.1663 63.8979 38.571C68.3894 35.571 74.2707 35.631 79.6273 38.861C80.244 39.231 80.833 39.631 81.3669 40.031L81.6062 40.251C81.6629 40.3104 81.7245 40.3639 81.7902 40.411C81.9525 40.4787 82.0862 40.6088 82.166 40.7766C82.2457 40.9443 82.266 41.1381 82.2228 41.321C82.1993 41.4163 82.1588 41.5056 82.1035 41.5838C82.0482 41.662 81.9793 41.7276 81.9006 41.7768C81.822 41.8261 81.7351 41.858 81.6451 41.8707C81.5551 41.8834 81.4637 41.8767 81.3761 41.851C80.2992 41.531 78.5321 42.851 77.354 44.111C76.6705 44.8818 76.1299 45.7883 75.7617 46.781L75.6973 46.921C75.1111 48.3203 74.2614 49.5705 73.203 50.591C71.8275 51.9165 70.0531 52.6492 68.2146 52.651ZM71.1598 37.831C68.8428 37.8142 66.5683 38.5074 64.5974 39.831C63.8058 40.3296 63.1066 40.9841 62.5358 41.761C62.0429 42.4222 61.7092 43.2062 61.5646 44.0423C61.42 44.8785 61.4691 45.7406 61.7074 46.551C62.1142 47.6145 62.7434 48.5603 63.5453 49.3134C64.3472 50.0665 65.2996 50.6062 66.3269 50.8896C67.3543 51.1731 68.4282 51.1924 69.4637 50.9462C70.4991 50.6999 71.4674 50.1948 72.2919 49.471C73.2074 48.5911 73.9413 47.5108 74.4456 46.301L74.5008 46.161C74.9214 44.9977 75.5466 43.9345 76.3415 43.031C77.2717 42.0029 78.3746 41.178 79.5905 40.601C79.3696 40.451 79.1395 40.301 78.9002 40.161C76.5435 38.6842 73.88 37.8824 71.1598 37.831Z" fill="#E61B23"></path><path d="M76.6819 38.9218C76.5597 38.9238 76.4392 38.89 76.3331 38.824C76.227 38.7579 76.1392 38.6621 76.079 38.5465C76.0187 38.431 75.9882 38.2999 75.9907 38.1671C75.9931 38.0343 76.0284 37.9046 76.0929 37.7918C76.7831 36.5318 76.7371 34.3818 76.6267 33.2018C75.1951 33.1637 73.7676 33.3833 72.4021 33.8518C72.3144 33.8915 72.2201 33.9111 72.1251 33.9094C72.0301 33.9076 71.9364 33.8846 71.85 33.8418C71.7635 33.7989 71.6862 33.7371 71.6227 33.6603C71.5593 33.5834 71.5111 33.4931 71.4813 33.3951C71.4514 33.2971 71.4405 33.1935 71.4492 33.0907C71.4579 32.9879 71.4861 32.8881 71.5319 32.7977C71.5777 32.7073 71.6403 32.6281 71.7156 32.5651C71.7909 32.5021 71.8773 32.4567 71.9695 32.4318C73.7081 31.8035 75.5512 31.592 77.3722 31.8118C77.5075 31.8413 77.6316 31.9143 77.7284 32.0212C77.8252 32.1282 77.8903 32.2642 77.9152 32.4118C77.9152 32.5718 78.5135 36.2918 77.2801 38.5618C77.2171 38.6724 77.129 38.7636 77.0243 38.8266C76.9195 38.8896 76.8016 38.9224 76.6819 38.9218Z" fill="#E61B23"></path><path d="M79.5535 40.3912C79.4653 40.3951 79.3773 40.378 79.2958 40.3412C79.2094 40.3039 79.1308 40.2482 79.0644 40.1775C78.9981 40.1068 78.9454 40.0224 78.9094 39.9293C78.8734 39.8362 78.8549 39.7363 78.8548 39.6353C78.8548 39.5343 78.8733 39.4343 78.9092 39.3412C79.1429 38.6335 79.2431 37.8819 79.2037 37.1312C78.6215 37.0571 78.0316 37.1011 77.4642 37.2612C77.2958 37.3408 77.1052 37.3444 76.9343 37.2712C76.7634 37.1981 76.6263 37.0542 76.553 36.8712C76.4798 36.6882 76.4765 36.4811 76.5438 36.2954C76.6111 36.1098 76.7436 35.9608 76.912 35.8812C77.8752 35.5832 78.8868 35.5183 79.8756 35.6912C80.0132 35.7093 80.1425 35.7727 80.2461 35.8727C80.3497 35.9728 80.4228 36.1048 80.4555 36.2512C80.6861 37.4708 80.5936 38.7365 80.1886 39.9012C80.1393 40.0421 80.0527 40.1639 79.9396 40.2511C79.8265 40.3384 79.6921 40.3871 79.5535 40.3912Z" fill="#E61B23"></path><path d="M73.2673 33.5713C73.1136 33.5714 72.9644 33.515 72.8439 33.4113C72.6997 33.2872 72.6062 33.1064 72.5838 32.908C72.5614 32.7096 72.6119 32.5096 72.7242 32.3513C72.9366 31.7115 73.0122 31.0276 72.9451 30.3513C72.2377 30.3398 71.5328 30.4477 70.8559 30.6713C70.6801 30.7297 70.4902 30.7098 70.328 30.616C70.1657 30.5222 70.0444 30.3623 69.9907 30.1713C69.937 29.9804 69.9553 29.7741 70.0416 29.5978C70.1279 29.4215 70.2751 29.2897 70.4509 29.2313C71.5359 28.8538 72.6902 28.7748 73.8103 29.0013C73.9419 29.0445 74.0587 29.1295 74.1456 29.2453C74.2325 29.3611 74.2856 29.5025 74.2981 29.6513C74.2981 30.2713 74.4638 32.3713 73.8103 33.2613C73.7479 33.355 73.6664 33.4317 73.5722 33.4855C73.478 33.5392 73.3736 33.5686 73.2673 33.5713Z" fill="#E61B23"></path><path d="M65.3336 43.5816C65.1841 43.5823 65.0386 43.5296 64.9194 43.4316C64.7744 43.3108 64.6794 43.1324 64.6552 42.9355C64.6311 42.7387 64.6797 42.5395 64.7906 42.3816C65.5401 41.1795 66.6151 40.2604 67.8667 39.7515C69.1183 39.2427 70.4846 39.1693 71.7763 39.5416C71.9508 39.6052 72.095 39.7416 72.1769 39.9207C72.2589 40.0998 72.2721 40.307 72.2135 40.4966C72.1549 40.6862 72.0294 40.8428 71.8646 40.9319C71.6997 41.0209 71.5091 41.0352 71.3345 40.9716C70.3171 40.6916 69.2445 40.7649 68.2673 41.1809C67.2901 41.597 66.4573 42.3351 65.8858 43.2916C65.8201 43.3823 65.7362 43.4556 65.6405 43.5059C65.5449 43.5561 65.4399 43.582 65.3336 43.5816Z" fill="#E61B23"></path><path d="M65.1035 10.9617C64.9212 10.9539 64.7489 10.869 64.6234 10.7252C64.4979 10.5814 64.4291 10.3899 64.4316 10.1917C64.496 7.47173 62.646 4.07173 61.5784 2.33173C60.5609 4.85772 58.7953 6.94154 56.5623 8.25173C55.9738 8.60503 55.4108 9.00617 54.878 9.45173C54.733 9.55755 54.5565 9.59974 54.3841 9.56979C54.2116 9.53984 54.056 9.43999 53.9486 9.29034C53.8413 9.1407 53.7901 8.95239 53.8054 8.76337C53.8207 8.57435 53.9014 8.39867 54.0312 8.27173C54.6124 7.77756 55.2278 7.3329 55.872 6.94173C58.1954 5.57066 59.933 3.26646 60.7132 0.521729C60.7522 0.392647 60.8222 0.277255 60.9161 0.187562C61.01 0.0978681 61.1243 0.037151 61.2471 0.0117288C61.3705 -0.0124453 61.4978 0.000908341 61.6147 0.0503167C61.7316 0.0997252 61.8337 0.183268 61.9097 0.291729C62.0754 0.521729 65.8766 5.90173 65.7846 10.2217C65.7822 10.4172 65.7097 10.6039 65.5824 10.7421C65.4552 10.8803 65.2834 10.9591 65.1035 10.9617Z" fill="#E61B23"></path><path d="M66.4106 21.8617C66.2726 21.8619 66.1378 21.8166 66.024 21.7317C65.8829 21.621 65.7856 21.4564 65.7515 21.2709C65.7173 21.0855 65.7489 20.8929 65.8399 20.7317C66.1132 20.2692 66.3532 19.7844 66.5578 19.2817L66.6223 19.1417C67.042 17.9779 67.6674 16.9146 68.463 16.0117C69.3985 14.9859 70.5039 14.1615 71.7212 13.5817C71.5003 13.4317 71.2702 13.2817 71.0309 13.1417C66.1253 10.1417 60.7686 10.0617 56.7005 12.8117L56.406 13.0017C56.2433 13.1045 56.0865 13.2181 55.9366 13.3417C55.7916 13.4475 55.6151 13.4897 55.4427 13.4598C55.2702 13.4298 55.1146 13.33 55.0072 13.1803C54.8999 13.0307 54.8487 12.8424 54.864 12.6534C54.8793 12.4643 54.96 12.2887 55.0898 12.1617C55.2852 11.991 55.4947 11.8404 55.7157 11.7117L55.9734 11.5417C60.4649 8.54173 66.3461 8.60173 71.7028 11.8317C72.3194 12.2017 72.9085 12.6017 73.4423 13.0017L73.6816 13.2217L73.8565 13.3917C74.0192 13.4603 74.152 13.5933 74.2281 13.764C74.3042 13.9346 74.3179 14.1303 74.2666 14.3115C74.2153 14.4928 74.1027 14.6462 73.9514 14.7408C73.8002 14.8355 73.6216 14.8644 73.4515 14.8217C72.3655 14.5017 70.6075 15.8217 69.4294 17.0817C68.7504 17.8638 68.2161 18.7805 67.8556 19.7817L67.7912 19.9217C67.5505 20.481 67.2705 21.0193 66.9536 21.5317C66.8932 21.6291 66.8126 21.7097 66.7182 21.767C66.6239 21.8243 66.5185 21.8567 66.4106 21.8617Z" fill="#E61B23"></path><path d="M68.7575 11.9318C68.6353 11.9303 68.5157 11.8942 68.4104 11.8269C68.3051 11.7596 68.2178 11.6636 68.1573 11.5483C68.0968 11.433 68.0652 11.3025 68.0655 11.1697C68.0658 11.037 68.0982 10.9067 68.1592 10.7918C68.9048 9.44177 68.7943 7.21177 68.6931 6.20177C67.2645 6.16297 65.8399 6.38263 64.4777 6.85177C64.3913 6.88299 64.3001 6.89533 64.2092 6.88807C64.1184 6.88082 64.0298 6.85411 63.9486 6.8095C63.8673 6.76488 63.7949 6.70324 63.7357 6.62811C63.6764 6.55298 63.6315 6.46586 63.6033 6.37177C63.5747 6.27857 63.5635 6.18011 63.5703 6.08214C63.5771 5.98417 63.6017 5.88865 63.6429 5.80115C63.684 5.71365 63.7407 5.63592 63.8098 5.5725C63.8789 5.50909 63.9589 5.46124 64.0451 5.43177C65.785 4.81028 67.6268 4.59892 69.4478 4.81177C69.5831 4.84131 69.7072 4.91427 69.804 5.02123C69.9008 5.12819 69.9659 5.26423 69.9908 5.41177C69.9908 5.57177 70.5891 9.29177 69.3465 11.5618C69.2855 11.6728 69.1993 11.7651 69.0962 11.8298C68.9931 11.8946 68.8765 11.9297 68.7575 11.9318Z" fill="#E61B23"></path><path d="M71.6474 13.3916C71.5593 13.3937 71.4717 13.3767 71.3897 13.3416C71.3034 13.3044 71.2248 13.2487 71.1587 13.1778C71.0927 13.1069 71.0405 13.0222 71.0052 12.9288C70.97 12.8354 70.9525 12.7353 70.9537 12.6344C70.9549 12.5335 70.9749 12.4339 71.0123 12.3416C71.2475 11.6344 71.3447 10.8818 71.2977 10.1316C70.7154 10.0584 70.1257 10.1024 69.5581 10.2616C69.3897 10.3398 69.1996 10.3422 69.0295 10.2681C68.8595 10.194 68.7236 10.0496 68.6516 9.86658C68.5795 9.68358 68.5774 9.477 68.6456 9.29227C68.7138 9.10755 68.8467 8.95982 69.0151 8.88158C69.9791 8.58858 70.9897 8.52379 71.9787 8.69158C72.1164 8.70972 72.2456 8.77305 72.3492 8.87311C72.4528 8.97318 72.5259 9.10521 72.5586 9.25158C72.7892 10.4712 72.6967 11.7369 72.2917 12.9016C72.2441 13.0456 72.1566 13.1701 72.0412 13.2578C71.9258 13.3456 71.7882 13.3923 71.6474 13.3916Z" fill="#E61B23"></path><path d="M65.3705 6.57111C65.2165 6.57283 65.0668 6.51625 64.9471 6.41111C64.8145 6.29173 64.7284 6.12222 64.7062 5.93668C64.684 5.75114 64.7273 5.56335 64.8274 5.41111C65.0374 4.77067 65.1128 4.08733 65.0483 3.41111C64.3447 3.37273 63.6398 3.4537 62.9591 3.65111C62.7833 3.7075 62.5942 3.68672 62.4324 3.59322C62.2706 3.49972 62.1491 3.34097 62.0939 3.15111C62.0669 3.05656 62.0575 2.95716 62.0661 2.85862C62.0746 2.76009 62.1011 2.66437 62.1438 2.57699C62.1866 2.48961 62.2449 2.41229 62.3153 2.3495C62.3857 2.2867 62.4669 2.23967 62.5541 2.21111C63.6391 1.83319 64.7935 1.75415 65.9135 1.98111C66.0441 2.02479 66.1595 2.11014 66.2449 2.22606C66.3302 2.34198 66.3815 2.4831 66.3921 2.63111C66.4473 3.25111 66.567 5.35111 65.9135 6.24111C65.8531 6.33846 65.7725 6.41903 65.6781 6.47635C65.5838 6.53367 65.4784 6.56612 65.3705 6.57111Z" fill="#E61B23"></path><path d="M75.9549 22.7411C75.8642 22.7385 75.7749 22.7166 75.6921 22.6765C75.6092 22.6364 75.5345 22.5789 75.4721 22.5074C75.4097 22.4359 75.3609 22.3517 75.3284 22.2597C75.296 22.1677 75.2805 22.0696 75.283 21.9711C75.3382 19.3811 73.6355 16.1311 72.6231 14.4311C72.5475 14.3524 72.4894 14.2561 72.4531 14.1493C72.4168 14.0426 72.4034 13.9283 72.4138 13.8152C72.4242 13.702 72.4582 13.5928 72.5131 13.496C72.5681 13.3992 72.6426 13.3172 72.731 13.2563C72.8194 13.1953 72.9194 13.1571 73.0235 13.1444C73.1275 13.1316 73.2329 13.1448 73.3315 13.1828C73.4302 13.2209 73.5196 13.2828 73.593 13.3639C73.6664 13.4451 73.7218 13.5433 73.7551 13.6511C75.1081 15.9111 76.7096 19.2011 76.6451 22.0511C76.6312 22.2395 76.5524 22.4152 76.4244 22.5431C76.2965 22.671 76.1288 22.7417 75.9549 22.7411Z" fill="#E61B23"></path><path d="M77.2526 33.6516C77.1173 33.653 76.9851 33.6075 76.8753 33.5216C76.7327 33.4123 76.6335 33.2484 76.5976 33.0629C76.5618 32.8773 76.5919 32.6839 76.682 32.5216C76.9632 32.0747 77.2095 31.6031 77.4183 31.1116L77.4827 30.9716C77.9023 29.8047 78.5276 28.738 79.3235 27.8316C80.2603 26.8101 81.3656 25.9892 82.5817 25.4116L81.8914 24.9716C76.9765 21.9716 71.6199 21.8916 67.561 24.6416C67.2849 24.8232 67.0177 25.0201 66.7602 25.2316C66.6138 25.3509 66.4297 25.4022 66.2484 25.374C66.0672 25.3459 65.9037 25.2407 65.7938 25.0816C65.684 24.9224 65.6368 24.7224 65.6627 24.5255C65.6886 24.3286 65.7854 24.1509 65.9319 24.0316C66.2264 23.7916 66.5209 23.5716 66.8523 23.3716C71.353 20.3216 77.2342 20.4316 82.5817 23.6616C83.18 24.0181 83.7607 24.4086 84.3212 24.8316C84.4093 24.8976 84.4924 24.9712 84.5697 25.0516C84.6233 25.1106 84.6819 25.1642 84.7446 25.2116C84.9203 25.2726 85.0666 25.4069 85.1511 25.5851C85.2357 25.7632 85.2517 25.9706 85.1956 26.1616C85.1394 26.3525 85.0157 26.5114 84.8518 26.6033C84.6878 26.6952 84.4969 26.7126 84.3212 26.6516C83.2443 26.3316 81.4864 27.6516 80.3083 28.9216C79.6225 29.6998 79.0845 30.6173 78.7252 31.6216L78.67 31.7616C78.4259 32.3189 78.146 32.8569 77.8325 33.3716C77.762 33.4634 77.6731 33.5364 77.5726 33.585C77.472 33.6335 77.3626 33.6563 77.2526 33.6516Z" fill="#E61B23"></path><path d="M79.6087 23.711C79.4857 23.7148 79.364 23.6824 79.2566 23.6171C79.1492 23.5518 79.0601 23.4561 78.9987 23.3402C78.9374 23.2243 78.9061 23.0925 78.9081 22.9588C78.9102 22.8252 78.9456 22.6946 79.0105 22.581C79.5789 21.135 79.7638 19.5451 79.5443 17.991C78.1125 17.9484 76.6843 18.1681 75.3197 18.641C75.1452 18.702 74.9555 18.6851 74.7924 18.5942C74.6293 18.5032 74.5061 18.3456 74.45 18.156C74.3938 17.9663 74.4093 17.7602 74.493 17.583C74.5767 17.4058 74.7218 17.272 74.8963 17.211C76.6369 16.5931 78.478 16.3818 80.299 16.591C80.4341 16.6248 80.5572 16.7005 80.6536 16.8087C80.7499 16.9169 80.8154 17.0532 80.842 17.201C80.842 17.361 81.4403 21.071 80.1978 23.341C80.1381 23.4533 80.0522 23.5467 79.9488 23.6116C79.8454 23.6765 79.7281 23.7108 79.6087 23.711Z" fill="#E61B23"></path><path d="M82.4988 25.1811C82.411 25.1791 82.3241 25.1622 82.2411 25.1311C82.1547 25.0938 82.0761 25.0382 82.0098 24.9675C81.9434 24.8967 81.8907 24.8124 81.8547 24.7193C81.8187 24.6262 81.8002 24.5262 81.8001 24.4252C81.8001 24.3242 81.8186 24.2243 81.8545 24.1311C82.0915 23.4208 82.1918 22.6652 82.1491 21.9111C81.5662 21.84 80.9763 21.8875 80.4095 22.0511C80.2411 22.1307 80.0505 22.1343 79.8796 22.0612C79.7087 21.988 79.5716 21.8441 79.4983 21.6611C79.4251 21.4781 79.4218 21.271 79.4891 21.0854C79.5564 20.8997 79.6889 20.7507 79.8573 20.6711C80.8237 20.3732 81.8383 20.3084 82.8301 20.4811C82.9669 20.5019 83.0949 20.5661 83.1981 20.6658C83.3012 20.7655 83.375 20.896 83.41 21.0411C83.6323 22.2694 83.5335 23.5408 83.1247 24.7111C83.0732 24.8467 82.9867 24.9633 82.8757 25.0467C82.7646 25.1301 82.6337 25.1768 82.4988 25.1811Z" fill="#E61B23"></path><path d="M76.2217 18.361C76.0657 18.3581 75.9144 18.3022 75.7891 18.201C75.6463 18.0754 75.5546 17.8939 75.534 17.6956C75.5133 17.4972 75.5653 17.298 75.6787 17.141C75.8862 16.4999 75.9616 15.8172 75.8996 15.141C75.1925 15.1252 74.4876 15.2298 73.8103 15.451C73.7219 15.4882 73.6274 15.5053 73.5327 15.5011C73.438 15.4969 73.345 15.4716 73.2597 15.4267C73.1744 15.3818 73.0985 15.3183 73.0368 15.2401C72.975 15.1619 72.9288 15.0708 72.9009 14.9723C72.873 14.8738 72.8641 14.7702 72.8747 14.6678C72.8853 14.5655 72.9152 14.4666 72.9625 14.3773C73.0099 14.2881 73.0736 14.2104 73.1498 14.1491C73.226 14.0877 73.313 14.0441 73.4053 14.021C74.4871 13.6426 75.6386 13.5636 76.7555 13.791C76.8872 13.8342 77.004 13.9191 77.0909 14.035C77.1778 14.1508 77.2309 14.2922 77.2433 14.441C77.2986 15.061 77.409 17.151 76.7555 18.051C76.6956 18.145 76.6159 18.2221 76.5231 18.2761C76.4303 18.33 76.327 18.3591 76.2217 18.361Z" fill="#E61B23"></path><path d="M39.5994 32.6514C39.4063 32.6623 39.2128 32.6623 39.0196 32.6514C38.8903 32.6373 38.7673 32.5838 38.6647 32.4971C38.5621 32.4104 38.4842 32.294 38.4398 32.1613C37.8547 30.6046 37.764 28.8804 38.182 27.2614C34.8779 28.3514 31.3436 26.1914 31.1503 26.0814C31.011 25.9934 30.9043 25.8553 30.8488 25.691C30.7934 25.5266 30.7926 25.3463 30.8466 25.1814C32.1259 21.1314 34.4637 19.6814 36.0744 19.1814C33.9137 17.0526 32.611 14.0854 32.448 10.9214C32.446 10.753 32.4969 10.5889 32.5923 10.4562C32.6876 10.3234 32.8218 10.23 32.9727 10.1914C34.4006 9.72982 35.9011 9.5955 37.3793 9.7969C38.8575 9.9983 40.2811 10.531 41.5599 11.3614C41.6947 11.4778 41.7852 11.6443 41.8141 11.8288C41.843 12.0134 41.8082 12.203 41.7163 12.3614C41.6131 12.5138 41.4595 12.6167 41.2878 12.6484C41.1161 12.6801 40.9397 12.6382 40.7959 12.5314C38.7175 11.2129 36.2483 10.8255 33.9115 11.4514C34.0895 12.9617 34.5616 14.4136 35.2963 15.7103C36.0311 17.0069 37.0117 18.1186 38.1728 18.9713C38.2974 19.0614 38.3917 19.1929 38.4415 19.3463C38.4913 19.4996 38.4939 19.6663 38.449 19.8214C38.4033 19.9777 38.3123 20.1139 38.1895 20.2094C38.0668 20.3049 37.9188 20.3547 37.7679 20.3514C37.6114 20.3514 34.1692 20.3513 32.402 25.0313C33.6998 25.6813 37.1512 27.0314 39.5442 24.7414C39.6407 24.626 39.7454 24.519 39.8572 24.4214C39.9939 24.2887 40.1734 24.2206 40.3564 24.2318C40.5394 24.2431 40.7107 24.3328 40.8328 24.4813C40.9548 24.6299 41.0176 24.825 41.0072 25.0238C40.9968 25.2226 40.9142 25.4087 40.7775 25.5413L40.4922 25.8414C39.9205 26.5613 39.5383 27.4356 39.386 28.372C39.2337 29.3084 39.317 30.2721 39.6271 31.1613C40.7039 31.1613 43.4375 30.8414 44.4867 27.9214C44.5191 27.8258 44.569 27.7383 44.6335 27.6644C44.698 27.5905 44.7757 27.5316 44.8618 27.4914C44.9479 27.4512 45.0407 27.4304 45.1344 27.4304C45.2282 27.4304 45.321 27.4511 45.4071 27.4914C45.4951 27.5265 45.5755 27.5808 45.6435 27.6509C45.7116 27.721 45.7658 27.8053 45.8028 27.8989C45.8398 27.9925 45.8589 28.0933 45.8589 28.1951C45.8589 28.297 45.8399 28.3978 45.8028 28.4914C45.2764 29.7843 44.402 30.8737 43.2947 31.6163C42.1874 32.3588 40.8992 32.7197 39.5994 32.6514Z" fill="#E61B23"></path><path d="M50.6532 46.131C50.5265 46.1322 50.402 46.0956 50.2932 46.025C50.1844 45.9545 50.0956 45.8527 50.0365 45.731C48.6007 42.731 48.6559 40.391 49.1161 38.811C47.2576 39.0996 45.3678 38.606 43.8331 37.431C43.7304 37.3541 43.6488 37.2484 43.5969 37.1252C43.5451 37.0019 43.5249 36.8657 43.5386 36.731C43.5633 35.8213 43.7666 34.9278 44.1348 34.1103C44.5031 33.2929 45.0278 32.5703 45.6739 31.991C46.5993 31.2937 47.7377 31.014 48.8492 31.211C49.0271 31.2541 49.182 31.3718 49.2803 31.5386C49.3786 31.7053 49.4122 31.9075 49.3738 32.101C49.3563 32.1972 49.3213 32.2887 49.271 32.37C49.2206 32.4514 49.1559 32.5211 49.0805 32.5751C49.0052 32.6291 48.9207 32.6662 48.832 32.6844C48.7433 32.7026 48.6522 32.7014 48.5639 32.681C47.8266 32.5643 47.0762 32.7574 46.4654 33.221C46.0344 33.6228 45.6807 34.1133 45.4249 34.6642C45.169 35.2151 45.0159 35.8156 44.9744 36.431C45.8948 37.011 48.4443 38.321 50.3126 36.541C50.4186 36.4094 50.5357 36.2888 50.6624 36.181C50.7975 36.0694 50.9654 36.0149 51.1347 36.0278C51.304 36.0406 51.4633 36.12 51.5828 36.251C51.6923 36.3904 51.7525 36.5677 51.7525 36.751C51.7525 36.9343 51.6923 37.1116 51.5828 37.251C51.4815 37.371 51.3711 37.481 51.2606 37.591C50.6624 38.331 49.3462 40.591 51.0213 44.511C52.2731 44.211 55.4668 43.121 55.2367 39.971C55.2279 39.8735 55.2372 39.7751 55.2641 39.6816C55.291 39.5881 55.335 39.5014 55.3934 39.4267C55.4518 39.3521 55.5235 39.291 55.6041 39.247C55.6847 39.2031 55.7726 39.1773 55.8626 39.171C55.9528 39.1614 56.0439 39.1715 56.1305 39.2006C56.2171 39.2298 56.2975 39.2774 56.3669 39.3407C56.4363 39.4041 56.4934 39.4818 56.5348 39.5694C56.5763 39.6571 56.6012 39.7528 56.6081 39.851C56.921 44.041 52.9265 45.771 50.7268 46.101L50.6532 46.131Z" fill="#E61B23"></path><path d="M71.62 59.441C71.4845 59.4439 71.3518 59.3982 71.2426 59.311C67.9753 56.991 66.4382 55.001 65.7203 53.601C65.2132 54.6361 64.511 55.5434 63.6593 56.2636C62.8077 56.9839 61.8258 57.5009 60.7779 57.781C60.628 57.813 60.4727 57.7901 60.3361 57.7159C60.1996 57.6417 60.0895 57.5204 60.0231 57.371C58.6334 54.281 59.0015 51.931 59.7286 50.371C56.0471 51.491 54.3628 49.691 54.2799 49.591C54.2035 49.5046 54.147 49.3997 54.115 49.285C54.083 49.1703 54.0765 49.049 54.0959 48.931C54.5376 46.441 55.4396 44.701 56.7834 43.751C57.6457 43.124 58.6967 42.8806 59.7194 43.071C59.8141 43.0846 59.9052 43.1194 59.987 43.1733C60.0687 43.2271 60.1392 43.2988 60.1941 43.3838C60.249 43.4688 60.287 43.5652 60.3058 43.667C60.3246 43.7688 60.3238 43.8737 60.3033 43.9751C60.2828 44.0765 60.2432 44.1722 60.187 44.2562C60.1307 44.3401 60.059 44.4104 59.9764 44.4626C59.8939 44.5149 59.8022 44.548 59.7073 44.5597C59.6123 44.5715 59.5162 44.5617 59.4249 44.531C58.7527 44.4267 58.0691 44.6017 57.5105 45.021C56.4358 45.9464 55.7225 47.2786 55.5132 48.751C56.1667 49.171 58.0351 49.901 61.597 47.921C61.7557 47.8216 61.9442 47.7947 62.1211 47.8462C62.298 47.8978 62.4489 48.0236 62.5404 48.196C62.6319 48.3684 62.6567 48.5733 62.6092 48.7655C62.5618 48.9577 62.4459 49.1216 62.2873 49.221C62.1584 49.311 59.2316 51.551 60.9987 56.151C61.9944 55.7534 62.8868 55.1002 63.5999 54.247C64.313 53.3938 64.8258 52.3659 65.0945 51.251C65.1399 51.0748 65.2446 50.9236 65.3878 50.8273C65.5309 50.731 65.7022 50.6967 65.8676 50.731C66.0333 50.7603 66.1833 50.8552 66.2886 50.9973C66.3939 51.1394 66.4472 51.3188 66.4382 51.501C66.4382 51.501 66.5211 54.031 71.5187 57.741C72.2274 56.911 73.654 54.591 72.1354 50.401C72.1354 50.321 72.1354 50.281 72.1354 50.271C72.0838 50.0888 72.0981 49.892 72.1753 49.7208C72.2524 49.5496 72.3867 49.4167 72.5508 49.3492C72.7149 49.2817 72.8965 49.2846 73.0587 49.3574C73.2209 49.4302 73.3515 49.5674 73.4239 49.741L73.5068 49.951C73.8841 50.951 75.8814 55.411 80.603 54.831C80.603 52.911 80.1152 46.991 75.6973 45.671C75.5212 45.6151 75.3724 45.4864 75.2829 45.3124C75.1934 45.1385 75.1703 44.9333 75.2187 44.741C75.2421 44.6459 75.2827 44.5569 75.3381 44.4791C75.3936 44.4013 75.4627 44.3362 75.5416 44.2878C75.6204 44.2394 75.7074 44.2085 75.7973 44.1971C75.8873 44.1856 75.9784 44.1937 76.0655 44.221C82.4161 46.121 81.9927 55.141 81.9743 55.521C81.9663 55.688 81.9064 55.8472 81.8044 55.9725C81.7025 56.0978 81.5645 56.1819 81.4129 56.211C80.1273 56.5174 78.7904 56.4554 77.5335 56.0312C76.2765 55.6069 75.1426 54.835 74.2431 53.791C74.2934 54.8302 74.1209 55.868 73.7392 56.8224C73.3575 57.7768 72.777 58.6219 72.0434 59.291C71.922 59.3919 71.7727 59.4448 71.62 59.441Z" fill="#E61B23"></path><path d="M36.8843 11.2115C36.7717 11.2114 36.6609 11.1804 36.5622 11.1215C34.0403 9.65155 34.1231 6.65155 34.5189 5.18155C34.547 5.05912 34.603 4.94637 34.6819 4.85372C34.7607 4.76108 34.8598 4.69154 34.9699 4.65155C36.914 3.98783 38.982 3.87461 40.9776 4.32262C42.9733 4.77064 44.8306 5.76504 46.3735 7.21155C46.481 7.35052 46.5386 7.52718 46.5353 7.70874C46.5321 7.8903 46.4684 8.06442 46.3559 8.19878C46.2435 8.33315 46.09 8.41864 45.924 8.43937C45.758 8.46011 45.5906 8.41469 45.4531 8.31155C44.134 7.09597 42.5614 6.24915 40.8722 5.8448C39.1831 5.44045 37.4286 5.49082 35.7614 5.99155C35.5899 6.71097 35.638 7.47147 35.8986 8.15859C36.1592 8.84572 36.6182 9.42229 37.2064 9.80155C37.2856 9.84682 37.3558 9.90861 37.413 9.98338C37.4702 10.0582 37.5133 10.1444 37.5398 10.2373C37.5663 10.3302 37.5757 10.4278 37.5675 10.5246C37.5592 10.6214 37.5335 10.7155 37.4917 10.8015C37.4363 10.9251 37.3499 11.0291 37.2424 11.1016C37.1349 11.1742 37.0108 11.2123 36.8843 11.2115Z" fill="#E61B23"></path><path d="M25.1402 63.361C25.0583 63.3799 24.9736 63.3799 24.8917 63.361C24.8045 63.3248 24.725 63.2698 24.658 63.1993C24.5909 63.1288 24.5377 63.0443 24.5016 62.9508C24.4655 62.8574 24.4472 62.7569 24.4478 62.6555C24.4484 62.5542 24.4679 62.454 24.5051 62.361C27.3157 55.3005 31.7035 49.1136 37.2709 44.361C37.4173 44.2403 37.6019 44.1878 37.784 44.215C37.9661 44.2422 38.1308 44.3469 38.2419 44.506C38.353 44.6652 38.4013 44.8657 38.3763 45.0635C38.3512 45.2614 38.2549 45.4403 38.1084 45.561C32.758 50.1845 28.5275 56.1574 25.7845 62.961C25.7233 63.0874 25.6301 63.1922 25.516 63.2631C25.4019 63.3339 25.2715 63.3679 25.1402 63.361Z" fill="#E61B23"></path><path d="M23.6678 60.0513C23.5978 60.0656 23.526 60.0656 23.4561 60.0513C23.2816 59.9915 23.1361 59.8589 23.0516 59.6827C22.967 59.5064 22.9503 59.3009 23.0051 59.1113C23.2168 58.3713 28.3249 40.7713 33.7276 32.2013C33.8309 32.0496 33.983 31.9459 34.1536 31.9106C34.3242 31.8754 34.5007 31.9114 34.648 32.0113C34.7908 32.1205 34.8896 32.2852 34.9239 32.4713C34.9581 32.6574 34.9253 32.8507 34.8321 33.0113C29.5398 41.3913 24.3397 59.3413 24.2844 59.5213C24.2424 59.6666 24.1611 59.7948 24.0511 59.8893C23.9412 59.9838 23.8076 60.0402 23.6678 60.0513Z" fill="#E61B23"></path><path d="M29.8804 65.8512C29.7132 65.8525 29.5514 65.7871 29.4258 65.6672C29.3002 65.5473 29.2196 65.3815 29.1993 65.2012C29.1877 65.1033 29.1939 65.004 29.2177 64.9087C29.2415 64.8135 29.2824 64.7243 29.338 64.6463C29.3935 64.5683 29.4627 64.5029 29.5416 64.454C29.6205 64.4051 29.7074 64.3735 29.7975 64.3612C29.9356 64.3612 44.312 62.1912 54.2338 55.9012C54.3924 55.8017 54.581 55.7748 54.7579 55.8264C54.9348 55.878 55.0856 56.0038 55.1771 56.1762C55.2687 56.3486 55.2934 56.5534 55.246 56.7457C55.1985 56.9379 55.0827 57.1017 54.924 57.2012C44.7998 63.6412 30.1197 65.8212 29.9816 65.8512H29.8804Z" fill="#E61B23"></path><path d="M27.6254 64.3512C27.4698 64.3519 27.3186 64.2955 27.1962 64.191C27.0739 64.0866 26.9876 63.9403 26.9513 63.7759C26.9151 63.6115 26.9311 63.4386 26.9966 63.2853C27.0622 63.132 27.1735 63.0072 27.3125 62.9313C31.4368 60.5236 35.2265 57.4935 38.5688 53.9313C38.6982 53.7908 38.8737 53.7119 39.0566 53.7119C39.2395 53.7119 39.415 53.7908 39.5444 53.9313C39.6737 54.0719 39.7463 54.2625 39.7463 54.4613C39.7463 54.66 39.6737 54.8506 39.5444 54.9913C36.0942 58.6766 32.1729 61.8021 27.9015 64.2713C27.816 64.3197 27.7217 64.347 27.6254 64.3512Z" fill="#E61B23"></path><path fill-rule="evenodd" clip-rule="evenodd" d="M54.7731 91.7704C54.9595 91.9013 55.1899 91.954 55.4147 91.9171C55.6395 91.8802 55.8409 91.7567 55.9757 91.573C56.1568 91.3265 60.4211 85.5155 61.8187 83.4722C62.5107 82.4607 62.7771 81.2056 62.5698 79.9387C62.124 77.2199 59.5452 75.3658 56.8207 75.8049L56.8144 75.806C56.0489 75.9303 55.3229 76.2313 54.6939 76.6849C54.0649 77.1386 53.5502 77.7326 53.1906 78.4197C52.6306 77.8888 51.9559 77.494 51.2188 77.266C50.4817 77.0379 49.7019 76.9827 48.94 77.1046L48.9337 77.1056C48.2851 77.2091 47.6635 77.4402 47.1049 77.7856C46.5462 78.1309 46.0616 78.5836 45.6791 79.1175C45.2942 79.6489 45.0187 80.2514 44.8686 80.8901C44.7185 81.5288 44.6969 82.191 44.8049 82.8381C45.0111 84.0982 45.6564 85.1973 46.6219 85.9327C48.6009 87.4373 54.522 91.5942 54.7731 91.7704ZM47.0929 80.1352C47.3422 79.7873 47.658 79.4924 48.0221 79.2674C48.3862 79.0425 48.7913 78.892 49.214 78.8248L49.218 78.8242C49.9269 78.7107 50.6535 78.8332 51.2861 79.1728C51.9187 79.5125 52.4222 80.0505 52.7192 80.7041C52.7983 80.8784 52.9325 81.0218 53.1011 81.1121C53.2698 81.2025 53.4635 81.2348 53.6524 81.2041L53.6564 81.2034C53.8457 81.1716 54.0193 81.0782 54.1501 80.9377C54.2809 80.7972 54.3617 80.6174 54.38 80.4263C54.4478 79.7105 54.7511 79.0375 55.2423 78.5125C55.7335 77.9876 56.385 77.6403 57.0946 77.5251L57.0986 77.5245C58.8773 77.2375 60.5606 78.4472 60.8515 80.2206C60.9859 81.0434 60.8193 81.8488 60.3816 82.4888C59.2815 84.0973 56.2764 88.2145 55.0766 89.8539C53.4117 88.6817 49.2331 85.7296 47.6782 84.5461C47.0686 84.0823 46.6595 83.3758 46.525 82.5559C46.4544 82.1349 46.4682 81.7041 46.5657 81.2885C46.6633 80.8729 46.8425 80.4809 47.0929 80.1352Z" fill="#E61B23"></path><path fill-rule="evenodd" clip-rule="evenodd" d="M67.0604 84.8247C67.1455 85.036 67.3101 85.2055 67.5188 85.2969C67.7275 85.3883 67.9637 85.3943 68.1767 85.3136C68.4628 85.2053 75.2028 82.6511 77.4874 81.6975C78.6184 81.2256 79.525 80.3176 80.0406 79.142C81.1462 76.6185 79.9919 73.6595 77.4672 72.5451L77.4613 72.5426C76.7514 72.2303 75.9786 72.0876 75.204 72.1259C74.4294 72.1642 73.6744 72.3823 72.9987 72.7631C72.8179 72.013 72.4667 71.3146 71.9725 70.7221C71.4782 70.1296 70.8541 69.6589 70.1485 69.3465L70.1427 69.344C69.5423 69.0778 68.895 68.9334 68.2384 68.919C67.5817 68.9047 66.9288 69.0208 66.3173 69.2605C65.7053 69.4968 65.1462 69.8523 64.6727 70.3065C64.1992 70.7606 63.8206 71.3043 63.5591 71.906C63.0463 73.0753 62.9894 74.3487 63.3992 75.491C64.2406 77.8303 66.9457 84.5402 67.0604 84.8247ZM66.9496 70.8837C67.348 70.7275 67.7735 70.652 68.2014 70.6614C68.6293 70.6709 69.051 70.7651 69.4422 70.9388L69.4459 70.9404C70.1024 71.231 70.6453 71.7293 70.9911 72.3585C71.3369 72.9876 71.4666 73.713 71.3601 74.423C71.3315 74.6122 71.366 74.8056 71.4584 74.9732C71.5507 75.1408 71.6956 75.2733 71.8708 75.3503L71.8745 75.352C72.0507 75.4283 72.2471 75.4444 72.4333 75.3977C72.6196 75.351 72.7852 75.2442 72.9045 75.0938C73.351 74.5303 73.9717 74.1307 74.6695 73.9576C75.3673 73.7846 76.1028 73.8478 76.7608 74.1374L76.7645 74.139C78.4129 74.8662 79.1667 76.7973 78.4456 78.4433C78.1106 79.2068 77.5324 79.7917 76.8169 80.0905C75.0186 80.8411 70.2568 82.6597 68.358 83.3821C67.5993 81.4926 65.7003 76.7418 65.04 74.9026C64.781 74.1818 64.8223 73.3665 65.1556 72.6054C65.3255 72.2138 65.5716 71.8599 65.8796 71.5643C66.1876 71.2688 66.5513 71.0374 66.9496 70.8837Z" fill="#E61B23"></path></svg> 