<svg width="243" height="45" viewBox="0 0 243 45" fill="none" xmlns="http://www.w3.org/2000/svg">
<path d="M34.3983 11.6C33.6516 12.7733 32.7849 13.8667 31.7983 14.88C30.8383 15.8933 29.7183 16.8 28.4383 17.6C28.3849 18.2933 28.2783 18.9867 28.1183 19.68C27.9583 20.3733 27.7583 21.1067 27.5183 21.88C27.1183 23.1333 26.5316 24.4133 25.7583 25.72C25.0116 27 24.1316 28.2133 23.1183 29.36C22.1049 30.5067 20.9849 31.56 19.7583 32.52C18.5316 33.4533 17.2383 34.2133 15.8783 34.8C14.5449 35.3867 13.1583 35.7467 11.7183 35.88C10.3049 36.0133 8.89161 35.8533 7.47828 35.4C6.33161 35.0267 5.34495 34.36 4.51828 33.4C3.69161 32.4133 3.07828 31.24 2.67828 29.88C2.27828 28.52 2.11828 27.0133 2.19828 25.36C2.27828 23.68 2.66495 21.9733 3.35828 20.24C2.50495 19.6533 1.79828 18.9467 1.23828 18.12C0.704948 17.2933 0.384948 16.32 0.278281 15.2C0.0916147 13.28 0.358281 11.56 1.07828 10.04C1.79828 8.49333 2.82495 7.18666 4.15828 6.12C5.49161 5.02666 7.02495 4.17333 8.75828 3.55999C10.5183 2.94666 12.3183 2.59999 14.1583 2.51999C15.9983 2.43999 17.7983 2.65333 19.5583 3.16C21.3449 3.64 22.9183 4.44 24.2783 5.56C25.6649 6.65333 26.7583 8.08 27.5583 9.83999C28.3583 11.6 28.7049 13.72 28.5983 16.2C29.6916 15.48 30.7049 14.7067 31.6383 13.88C32.5716 13.0533 33.2916 12.1467 33.7983 11.16C33.8783 11.0267 33.9716 10.9333 34.0783 10.88C34.2116 10.8 34.3183 10.7733 34.3983 10.8C34.5049 10.8267 34.5716 10.9067 34.5983 11.04C34.6249 11.1733 34.5583 11.36 34.3983 11.6ZM26.1583 17.48C26.3983 14.84 26.2116 12.6 25.5983 10.76C24.9849 8.89333 24.1049 7.4 22.9583 6.28C21.8116 5.13333 20.4649 4.31999 18.9183 3.83999C17.3983 3.35999 15.8383 3.17333 14.2383 3.27999C12.6383 3.35999 11.0649 3.71999 9.51828 4.35999C7.99828 4.97333 6.66495 5.81333 5.51828 6.87999C4.39828 7.94666 3.54495 9.21333 2.95828 10.68C2.37161 12.1467 2.21161 13.7733 2.47828 15.56C2.63828 16.8133 3.17161 17.8267 4.07828 18.6C4.45162 17.8267 4.94495 16.9467 5.55828 15.96C6.17162 14.9733 6.87828 14 7.67828 13.04C8.47828 12.0533 9.34495 11.1333 10.2783 10.28C11.2383 9.39999 12.2249 8.70666 13.2383 8.19999C14.2516 7.66666 15.2783 7.36 16.3183 7.27999C17.3583 7.17333 18.3849 7.39999 19.3983 7.96C19.6916 8.11999 19.7716 8.27999 19.6383 8.43999C19.5316 8.57333 19.3449 8.59999 19.0783 8.52C18.2516 8.25333 17.3849 8.26666 16.4783 8.55999C15.5983 8.85333 14.7183 9.31999 13.8383 9.96C12.9849 10.6 12.1449 11.36 11.3183 12.24C10.5183 13.12 9.77162 14.0267 9.07828 14.96C8.41162 15.8933 7.81161 16.8133 7.27828 17.72C6.77162 18.6 6.38495 19.3467 6.11828 19.96C7.29162 20.5467 8.69162 20.92 10.3183 21.08C11.9449 21.2133 13.6516 21.16 15.4383 20.92C17.2516 20.68 19.0783 20.2667 20.9183 19.68C22.7849 19.0933 24.5316 18.36 26.1583 17.48ZM25.9183 18.88C24.2649 19.76 22.5183 20.4933 20.6783 21.08C18.8383 21.64 17.0116 22.0267 15.1983 22.24C13.4116 22.4533 11.6783 22.4933 9.99828 22.36C8.31828 22.2267 6.82495 21.8933 5.51828 21.36C5.03828 22.6133 4.69161 23.8933 4.47828 25.2C4.26495 26.5067 4.22495 27.7467 4.35828 28.92C4.51828 30.0667 4.85161 31.1067 5.35828 32.04C5.89161 32.9467 6.63828 33.64 7.59828 34.12C8.77162 34.7067 9.94495 34.9867 11.1183 34.96C12.3183 34.9333 13.4916 34.6667 14.6383 34.16C15.8116 33.68 16.9316 33.0133 17.9983 32.16C19.0649 31.28 20.0516 30.2933 20.9583 29.2C21.8649 28.08 22.6783 26.88 23.3983 25.6C24.1449 24.32 24.7449 23.0267 25.1983 21.72C25.3583 21.2667 25.5049 20.8 25.6383 20.32C25.7716 19.8133 25.8649 19.3333 25.9183 18.88ZM40.3817 26.16C39.9017 27.2 39.4217 28.1733 38.9417 29.08C38.4617 29.9867 37.9151 30.7867 37.3017 31.48C36.7151 32.1467 36.0217 32.68 35.2217 33.08C34.4484 33.4533 33.5151 33.64 32.4217 33.64C31.3817 33.64 30.5551 33.4533 29.9417 33.08C29.3284 32.7067 28.8884 32.2267 28.6217 31.64C28.3551 31.0267 28.2351 30.3333 28.2617 29.56C28.3151 28.7867 28.4617 27.9867 28.7017 27.16C28.9684 26.3333 29.3017 25.52 29.7017 24.72C30.1284 23.92 30.5817 23.2 31.0617 22.56C31.8084 21.5467 32.6484 20.7733 33.5817 20.24C34.5151 19.68 35.4617 19.4 36.4217 19.4C37.4351 19.4 38.1684 19.6533 38.6217 20.16C39.1017 20.6667 39.2884 21.3333 39.1817 22.16C39.1284 22.48 38.9951 22.8133 38.7817 23.16C38.5951 23.5067 38.3684 23.8 38.1017 24.04C37.8351 24.28 37.5551 24.44 37.2617 24.52C36.9684 24.5733 36.7151 24.4933 36.5017 24.28C36.7151 24.0133 36.9417 23.7067 37.1817 23.36C37.4484 22.9867 37.6351 22.6133 37.7417 22.24C37.9284 21.5467 37.9284 21.0533 37.7417 20.76C37.5817 20.44 37.3151 20.28 36.9417 20.28C36.5684 20.28 36.1951 20.3867 35.8217 20.6C35.4484 20.8133 35.0617 21.08 34.6617 21.4C34.2884 21.72 33.9284 22.0933 33.5817 22.52C33.2351 22.92 32.9284 23.32 32.6617 23.72C32.4751 23.9867 32.2484 24.3467 31.9817 24.8C31.7417 25.2533 31.5017 25.76 31.2617 26.32C31.0484 26.8533 30.8617 27.4267 30.7017 28.04C30.5417 28.6533 30.4617 29.2533 30.4617 29.84C30.4617 30.64 30.6351 31.36 30.9817 32C31.3551 32.6133 31.9684 32.92 32.8217 32.92C33.7017 32.92 34.4751 32.7067 35.1417 32.28C35.8351 31.8267 36.4617 31.2667 37.0217 30.6C37.5817 29.9067 38.0884 29.1467 38.5417 28.32C38.9951 27.4933 39.4217 26.68 39.8217 25.88C40.0084 25.5067 40.1951 25.36 40.3817 25.44C40.5684 25.52 40.5684 25.76 40.3817 26.16ZM59.9723 26.12C59.679 26.7333 59.3057 27.4667 58.8523 28.32C58.4257 29.1733 57.9323 30 57.3723 30.8C56.8123 31.5733 56.1857 32.24 55.4923 32.8C54.8257 33.36 54.119 33.64 53.3723 33.64C52.999 33.64 52.6257 33.5733 52.2523 33.44C51.879 33.3067 51.559 33.0667 51.2923 32.72C51.0523 32.3467 50.9057 31.8667 50.8523 31.28C50.799 30.6667 50.919 29.8933 51.2123 28.96C51.3723 28.4267 51.639 27.8267 52.0123 27.16C52.3857 26.4667 52.8523 25.6667 53.4123 24.76C53.6523 24.36 53.7857 24.0133 53.8123 23.72C53.839 23.4267 53.7323 23.2533 53.4923 23.2C53.279 23.1467 52.9323 23.2533 52.4523 23.52C51.9723 23.7867 51.3457 24.28 50.5723 25C50.1457 25.4 49.6257 25.96 49.0123 26.68C48.4257 27.3733 47.8523 28.1333 47.2923 28.96C46.7323 29.76 46.2257 30.5733 45.7723 31.4C45.3457 32.2 45.0657 32.8933 44.9323 33.48C44.479 33.48 44.119 33.2667 43.8523 32.84C43.6123 32.3867 43.5457 31.8667 43.6523 31.28C43.7857 30.4 44.0123 29.6133 44.3323 28.92C44.6523 28.2 44.9857 27.4667 45.3323 26.72C45.6523 26.0533 45.9457 25.4 46.2123 24.76C46.479 24.12 46.599 23.6533 46.5723 23.36C46.5723 23.0667 46.359 23.0267 45.9323 23.24C45.5057 23.4267 44.7723 24.0133 43.7323 25C43.039 25.6133 42.2257 26.52 41.2923 27.72C40.3857 28.92 39.359 30.6133 38.2123 32.8C38.079 33.0933 37.9057 33.28 37.6923 33.36C37.479 33.4133 37.1457 33.44 36.6923 33.44C36.399 33.4667 36.159 33.48 35.9723 33.48C35.7857 33.48 35.5857 33.5467 35.3723 33.68C36.3323 31.76 37.2257 29.88 38.0523 28.04C38.9057 26.2 39.8257 24.3733 40.8123 22.56C41.319 21.6 41.759 20.9333 42.1323 20.56C42.5057 20.1867 43.0123 20.0133 43.6523 20.04C43.919 20.0667 44.1857 20.12 44.4523 20.2C44.7457 20.2533 45.039 20.2533 45.3323 20.2C45.039 20.36 44.679 20.7067 44.2523 21.24C43.8523 21.7733 43.4257 22.4 42.9723 23.12C42.5457 23.84 42.1057 24.6133 41.6523 25.44C41.2257 26.24 40.839 27 40.4923 27.72C40.8923 27.2133 41.3857 26.6267 41.9723 25.96C42.5857 25.2667 43.199 24.6533 43.8123 24.12C44.2923 23.6933 44.799 23.24 45.3323 22.76C45.8923 22.2533 46.4257 21.8133 46.9323 21.44C47.4657 21.04 47.959 20.7333 48.4123 20.52C48.8923 20.3067 49.3057 20.2533 49.6523 20.36C50.0257 20.4933 50.2657 20.72 50.3723 21.04C50.479 21.36 50.439 21.72 50.2523 22.12C49.879 22.9733 49.4123 23.88 48.8523 24.84C48.319 25.7733 47.8123 26.7333 47.3323 27.72C47.7323 27.2133 48.2257 26.6267 48.8123 25.96C49.4257 25.2667 50.039 24.6533 50.6523 24.12C51.1323 23.6933 51.719 23.24 52.4123 22.76C53.1323 22.2533 53.8523 21.8133 54.5723 21.44C55.2923 21.04 55.9723 20.7333 56.6123 20.52C57.2523 20.3067 57.7323 20.2533 58.0523 20.36C57.2523 21.8 56.519 23.1733 55.8523 24.48C55.559 25.04 55.279 25.6133 55.0123 26.2C54.7457 26.7867 54.4923 27.36 54.2523 27.92C54.0123 28.4533 53.799 28.96 53.6123 29.44C53.4523 29.92 53.3323 30.3333 53.2523 30.68C53.119 31.5067 53.1323 32.0533 53.2923 32.32C53.4523 32.56 53.6657 32.68 53.9323 32.68C54.439 32.68 54.9723 32.4133 55.5323 31.88C56.0923 31.32 56.6257 30.6667 57.1323 29.92C57.639 29.1733 58.0923 28.4133 58.4923 27.64C58.8923 26.84 59.199 26.2133 59.4123 25.76C59.5723 25.4133 59.7457 25.2933 59.9323 25.4C60.1457 25.48 60.159 25.72 59.9723 26.12ZM58.5723 15.72C58.359 16.04 58.0923 16.3733 57.7723 16.72C57.479 17.04 57.1323 17.3333 56.7323 17.6C56.3323 17.8667 55.879 18.08 55.3723 18.24C54.8923 18.4 54.3723 18.4667 53.8123 18.44C53.279 18.4133 52.759 18.3333 52.2523 18.2C51.7723 18.0667 51.2923 17.9333 50.8123 17.8C50.3323 17.64 49.8523 17.5067 49.3723 17.4C48.8923 17.2667 48.4123 17.1867 47.9323 17.16C47.319 17.1067 46.799 17.2 46.3723 17.44C45.9723 17.6533 45.6523 17.92 45.4123 18.24C45.3857 18.2933 45.3057 18.3333 45.1723 18.36C45.039 18.36 44.9057 18.36 44.7723 18.36C44.639 18.3333 44.519 18.3067 44.4123 18.28C44.3057 18.2533 44.2523 18.2133 44.2523 18.16C44.7057 17.5733 45.3323 17 46.1323 16.44C46.959 15.8533 47.9323 15.5867 49.0523 15.64C49.559 15.6667 50.0523 15.7333 50.5323 15.84C51.039 15.9467 51.5323 16.08 52.0123 16.24C52.519 16.3733 52.999 16.5067 53.4523 16.64C53.9323 16.7467 54.4123 16.8133 54.8923 16.84C55.559 16.8933 56.1057 16.8133 56.5323 16.6C56.959 16.36 57.319 16.0533 57.6123 15.68C57.6123 15.6533 57.6657 15.64 57.7723 15.64C57.9057 15.6133 58.0257 15.6 58.1323 15.6C58.2657 15.6 58.3723 15.6133 58.4523 15.64C58.559 15.6667 58.599 15.6933 58.5723 15.72ZM71.1658 22.64C70.9524 22.8533 70.6591 23.2533 70.2858 23.84C69.9391 24.4 69.5658 25.0533 69.1658 25.8C68.7924 26.52 68.4458 27.2667 68.1258 28.04C67.8058 28.8133 67.5791 29.5067 67.4458 30.12C67.1258 31.72 67.2591 32.52 67.8458 32.52C68.1391 32.52 68.4458 32.4 68.7658 32.16C69.0858 31.92 69.3924 31.6267 69.6858 31.28C69.9791 30.9333 70.2591 30.5733 70.5258 30.2C70.7924 29.8 71.0058 29.4533 71.1658 29.16C71.3791 28.8133 71.5791 28.6933 71.7658 28.8C71.9791 28.88 71.9791 29.1067 71.7658 29.48C71.1258 30.5733 70.4324 31.52 69.6858 32.32C68.9391 33.0933 68.2191 33.5067 67.5258 33.56C67.2058 33.5867 66.8591 33.5333 66.4858 33.4C66.1124 33.24 65.8058 32.9733 65.5658 32.6C65.3258 32.2 65.1791 31.6667 65.1258 31C65.0991 30.3067 65.2324 29.44 65.5258 28.4C65.2058 28.9333 64.7924 29.56 64.2858 30.28C63.7791 30.9733 63.2324 31.6 62.6458 32.16C61.8724 32.9067 61.1524 33.3467 60.4858 33.48C59.8458 33.6133 59.2991 33.52 58.8458 33.2C58.3924 32.8533 58.0591 32.32 57.8458 31.6C57.6591 30.88 57.6324 30.04 57.7658 29.08C57.8991 28.0933 58.2191 27.0267 58.7258 25.88C59.2591 24.7067 60.0324 23.52 61.0458 22.32C61.6324 21.6 62.3391 20.9867 63.1658 20.48C64.0191 19.9733 64.8724 19.6133 65.7258 19.4C66.6058 19.1867 67.4458 19.16 68.2458 19.32C69.0724 19.48 69.7658 19.8667 70.3258 20.48C70.6191 20.7733 70.6991 21.0533 70.5658 21.32C70.4591 21.5867 70.2324 21.6933 69.8858 21.64C69.6724 20.8933 69.2324 20.44 68.5658 20.28C67.9258 20.12 67.2324 20.24 66.4858 20.64C65.5791 21.1467 64.6458 21.9333 63.6858 23C62.7258 24.04 61.8858 25.16 61.1658 26.36C61.0858 26.4933 60.9658 26.7067 60.8058 27C60.6458 27.2933 60.4724 27.64 60.2858 28.04C60.1258 28.4133 59.9658 28.8133 59.8058 29.24C59.6724 29.64 59.5791 30.0267 59.5258 30.4C59.4191 31.0933 59.4591 31.6 59.6458 31.92C59.8591 32.24 60.1391 32.4 60.4858 32.4C60.8591 32.4 61.2858 32.2533 61.7658 31.96C62.2458 31.64 62.7258 31.2 63.2058 30.64C63.8991 29.7867 64.5258 28.8933 65.0858 27.96C65.6724 27 66.2324 26.0267 66.7658 25.04C67.2191 24.1867 67.6191 23.5333 67.9658 23.08C68.3391 22.6267 68.8458 22.4267 69.4858 22.48C69.7524 22.5067 70.0191 22.56 70.2858 22.64C70.5791 22.6933 70.8724 22.6933 71.1658 22.64ZM84.5658 20.56C84.7258 20.24 84.9258 20.0267 85.1658 19.92C85.4324 19.7867 85.7524 19.72 86.1258 19.72H88.2858C87.9924 19.96 87.7391 20.1867 87.5258 20.4C87.3124 20.5867 87.0991 20.8267 86.8858 21.12C86.6991 21.3867 86.4991 21.7333 86.2858 22.16C86.0724 22.56 85.8191 23.0667 85.5258 23.68C85.2324 24.24 84.9391 24.8267 84.6458 25.44C84.3791 26.0267 84.1124 26.6133 83.8458 27.2C83.6058 27.76 83.3924 28.2933 83.2058 28.8C83.0191 29.28 82.8991 29.6933 82.8458 30.04C82.6591 30.8933 82.6591 31.5067 82.8458 31.88C83.0591 32.2267 83.3124 32.4133 83.6058 32.44C84.0858 32.44 84.5658 32.2267 85.0458 31.8C85.5524 31.3733 86.0324 30.84 86.4858 30.2C86.9391 29.5333 87.3658 28.8133 87.7658 28.04C88.1924 27.24 88.5791 26.48 88.9258 25.76C89.0858 25.4133 89.2591 25.2933 89.4458 25.4C89.6591 25.48 89.6724 25.72 89.4858 26.12C89.1658 26.8133 88.7924 27.5867 88.3658 28.44C87.9391 29.2667 87.4591 30.0533 86.9258 30.8C86.3924 31.5467 85.8058 32.1733 85.1658 32.68C84.5258 33.1867 83.8458 33.44 83.1258 33.44C82.6724 33.44 82.2724 33.3333 81.9258 33.12C81.5791 32.88 81.3124 32.5467 81.1258 32.12C80.9658 31.6667 80.8858 31.12 80.8858 30.48C80.8858 29.84 81.0191 29.12 81.2858 28.32C81.4724 27.7333 81.6991 27.1067 81.9658 26.44C82.2324 25.7733 82.5124 25.1067 82.8058 24.44C83.1258 23.7467 83.4324 23.0667 83.7258 22.4C84.0458 21.7333 84.3258 21.12 84.5658 20.56ZM75.9658 31.68C76.4991 31.2267 76.9791 30.68 77.4058 30.04C77.8591 29.3733 78.2724 28.6667 78.6458 27.92C79.0458 27.1733 79.4058 26.4133 79.7258 25.64C80.0724 24.8667 80.3924 24.1467 80.6858 23.48C80.9791 22.7867 81.2591 22.1867 81.5258 21.68C81.7924 21.1467 82.0724 20.7467 82.3658 20.48C82.5791 20.2667 82.7924 20.1067 83.0058 20C83.2191 19.8933 83.4724 19.8267 83.7658 19.8C84.0591 19.7467 84.3924 19.72 84.7658 19.72C85.1658 19.72 85.6591 19.72 86.2458 19.72C86.3524 19.72 86.3658 19.76 86.2858 19.84C86.2058 19.8933 86.0858 19.96 85.9258 20.04C85.7658 20.12 85.5658 20.2 85.3258 20.28C85.1124 20.3333 84.9258 20.36 84.7658 20.36C83.9924 20.3333 83.4458 20.4933 83.1258 20.84C82.8058 21.16 82.4724 21.6267 82.1258 22.24C81.6991 23.0133 81.2324 24.0267 80.7258 25.28C80.2458 26.5333 79.6858 27.7733 79.0458 29C78.4324 30.2 77.7258 31.24 76.9258 32.12C76.1524 33 75.2458 33.44 74.2058 33.44C73.5658 33.44 72.9658 33.3333 72.4058 33.12C71.8724 32.88 71.4324 32.44 71.0858 31.8C70.6058 30.92 70.4591 30.2133 70.6458 29.68C70.8591 29.1467 71.1524 28.8133 71.5258 28.68C71.8991 28.52 72.2191 28.5867 72.4858 28.88C72.7524 29.1467 72.7124 29.6533 72.3658 30.4C72.2591 30.6133 72.2324 30.84 72.2858 31.08C72.3391 31.32 72.4324 31.5467 72.5658 31.76C72.7258 31.9467 72.9124 32.1067 73.1258 32.24C73.3658 32.3467 73.6058 32.4 73.8458 32.4C74.2991 32.3733 74.6858 32.32 75.0058 32.24C75.3524 32.1333 75.6724 31.9467 75.9658 31.68ZM103.407 26.12C103.087 26.8133 102.713 27.5867 102.287 28.44C101.86 29.2667 101.38 30.0533 100.847 30.8C100.313 31.5467 99.7267 32.1733 99.0867 32.68C98.4467 33.1867 97.7667 33.44 97.0467 33.44C96.5934 33.44 96.1934 33.3333 95.8467 33.12C95.5001 32.88 95.2334 32.5467 95.0467 32.12C94.8867 31.6667 94.8067 31.12 94.8067 30.48C94.8067 29.84 94.9401 29.12 95.2067 28.32C94.8601 28.9333 94.4734 29.5467 94.0467 30.16C93.6467 30.7467 93.2067 31.2933 92.7267 31.8C92.2734 32.28 91.7934 32.68 91.2867 33C90.7801 33.2933 90.2867 33.44 89.8067 33.44C89.5934 33.44 89.3534 33.4267 89.0867 33.4C88.8467 33.3467 88.6067 33.2533 88.3667 33.12C88.1267 32.9867 87.9001 32.8 87.6867 32.56C87.5001 32.32 87.3667 32.0133 87.2867 31.64C87.2067 31.2133 87.1934 30.8 87.2467 30.4C87.3001 30 87.3934 29.6133 87.5267 29.24C87.6867 28.84 87.8601 28.4667 88.0467 28.12C88.2601 27.7467 88.4601 27.3733 88.6467 27C88.5134 27 88.3801 26.96 88.2467 26.88C88.1401 26.8 88.1534 26.6267 88.2867 26.36C88.4201 26.1467 88.5401 25.92 88.6467 25.68C88.7534 25.44 88.8734 25.2 89.0067 24.96C89.4067 24.1867 89.8067 23.4133 90.2067 22.64C90.6067 21.8667 90.9534 21.1733 91.2467 20.56C91.4067 20.24 91.6067 20.0267 91.8467 19.92C92.1134 19.7867 92.4334 19.72 92.8067 19.72H95.2467C95.0067 19.88 94.7934 20.0533 94.6067 20.24C94.4201 20.4 94.2201 20.6 94.0067 20.84C93.8201 21.08 93.6201 21.3733 93.4067 21.72C93.1934 22.0667 92.9534 22.52 92.6867 23.08C92.3134 23.7733 91.9801 24.44 91.6867 25.08C91.3934 25.64 91.1134 26.2133 90.8467 26.8C90.5801 27.3867 90.3534 27.8667 90.1667 28.24C89.6867 29.28 89.4201 30.1467 89.3667 30.84C89.3134 31.5333 89.4067 32.0267 89.6467 32.32C89.9134 32.5867 90.3001 32.6267 90.8067 32.44C91.3134 32.2267 91.8867 31.7467 92.5267 31C93.0867 30.36 93.6334 29.6 94.1667 28.72C94.7267 27.84 95.2601 26.9333 95.7667 26C96.2734 25.04 96.7534 24.0933 97.2067 23.16C97.6867 22.2267 98.1134 21.36 98.4867 20.56C98.6467 20.24 98.8467 20.0267 99.0867 19.92C99.3534 19.7867 99.6734 19.72 100.047 19.72H102.207C101.913 19.96 101.66 20.1867 101.447 20.4C101.233 20.5867 101.02 20.8267 100.807 21.12C100.62 21.3867 100.42 21.7333 100.207 22.16C99.9934 22.56 99.7401 23.0667 99.4467 23.68C99.1534 24.24 98.8601 24.8267 98.5667 25.44C98.3001 26.0267 98.0334 26.6133 97.7667 27.2C97.5267 27.76 97.3134 28.2933 97.1267 28.8C96.9401 29.28 96.8201 29.6933 96.7667 30.04C96.5801 30.8933 96.5801 31.5067 96.7667 31.88C96.9801 32.2267 97.2334 32.4133 97.5267 32.44C98.0067 32.44 98.4867 32.2267 98.9667 31.8C99.4734 31.3733 99.9534 30.84 100.407 30.2C100.86 29.5333 101.287 28.8133 101.687 28.04C102.113 27.24 102.5 26.48 102.847 25.76C103.007 25.4133 103.18 25.2933 103.367 25.4C103.58 25.48 103.593 25.72 103.407 26.12ZM113.704 26.16C113.224 27.2 112.744 28.1733 112.264 29.08C111.784 29.9867 111.237 30.7867 110.624 31.48C110.037 32.1467 109.344 32.68 108.544 33.08C107.77 33.4533 106.837 33.64 105.744 33.64C104.704 33.64 103.877 33.4533 103.264 33.08C102.65 32.7067 102.21 32.2267 101.944 31.64C101.677 31.0267 101.557 30.3333 101.584 29.56C101.637 28.7867 101.784 27.9867 102.024 27.16C102.29 26.3333 102.624 25.52 103.024 24.72C103.45 23.92 103.904 23.2 104.384 22.56C105.13 21.5467 105.97 20.7733 106.904 20.24C107.837 19.68 108.784 19.4 109.744 19.4C110.757 19.4 111.49 19.6533 111.944 20.16C112.424 20.6667 112.61 21.3333 112.504 22.16C112.45 22.48 112.317 22.8133 112.104 23.16C111.917 23.5067 111.69 23.8 111.424 24.04C111.157 24.28 110.877 24.44 110.584 24.52C110.29 24.5733 110.037 24.4933 109.824 24.28C110.037 24.0133 110.264 23.7067 110.504 23.36C110.77 22.9867 110.957 22.6133 111.064 22.24C111.25 21.5467 111.25 21.0533 111.064 20.76C110.904 20.44 110.637 20.28 110.264 20.28C109.89 20.28 109.517 20.3867 109.144 20.6C108.77 20.8133 108.384 21.08 107.984 21.4C107.61 21.72 107.25 22.0933 106.904 22.52C106.557 22.92 106.25 23.32 105.984 23.72C105.797 23.9867 105.57 24.3467 105.304 24.8C105.064 25.2533 104.824 25.76 104.584 26.32C104.37 26.8533 104.184 27.4267 104.024 28.04C103.864 28.6533 103.784 29.2533 103.784 29.84C103.784 30.64 103.957 31.36 104.304 32C104.677 32.6133 105.29 32.92 106.144 32.92C107.024 32.92 107.797 32.7067 108.464 32.28C109.157 31.8267 109.784 31.2667 110.344 30.6C110.904 29.9067 111.41 29.1467 111.864 28.32C112.317 27.4933 112.744 26.68 113.144 25.88C113.33 25.5067 113.517 25.36 113.704 25.44C113.89 25.52 113.89 25.76 113.704 26.16ZM118.534 29.64C118.001 29.48 117.494 29.2533 117.014 28.96C116.561 28.64 116.188 28.2933 115.894 27.92C115.654 27.6533 115.494 27.3733 115.414 27.08C115.361 26.76 115.374 26.4667 115.454 26.2C115.534 25.9333 115.681 25.72 115.894 25.56C116.108 25.4 116.374 25.32 116.694 25.32C116.988 25.32 117.254 25.44 117.494 25.68C117.761 25.92 117.894 26.1867 117.894 26.48C117.894 26.56 117.854 26.68 117.774 26.84C117.721 27 117.694 27.12 117.694 27.2C117.721 27.44 117.828 27.72 118.014 28.04C118.201 28.36 118.401 28.6 118.614 28.76C118.774 28.8933 119.041 29.0133 119.414 29.12C119.814 29.2 120.254 29.1733 120.734 29.04C121.214 28.88 121.708 28.56 122.214 28.08C122.721 27.5733 123.188 26.8 123.614 25.76C123.748 25.3867 123.921 25.2533 124.134 25.36C124.348 25.4667 124.361 25.72 124.174 26.12C123.721 27.1067 123.254 27.88 122.774 28.44C122.321 28.9733 121.841 29.3467 121.334 29.56C120.854 29.7733 120.374 29.88 119.894 29.88C119.414 29.8533 118.961 29.7733 118.534 29.64ZM110.654 32.12C110.468 31.7467 110.374 31.3067 110.374 30.8C110.401 30.2667 110.561 29.68 110.854 29.04C111.174 28.3733 111.454 27.7867 111.694 27.28C111.934 26.7467 112.174 26.24 112.414 25.76C112.654 25.28 112.908 24.7867 113.174 24.28C113.441 23.7733 113.748 23.2 114.094 22.56C114.601 21.6 115.041 20.9333 115.414 20.56C115.788 20.1867 116.294 20.0133 116.934 20.04C117.201 20.0667 117.468 20.12 117.734 20.2C118.028 20.2533 118.321 20.2533 118.614 20.2C118.321 20.36 117.974 20.7067 117.574 21.24C117.174 21.7733 116.748 22.4 116.294 23.12C115.868 23.84 115.428 24.6133 114.974 25.44C114.548 26.24 114.148 27 113.774 27.72C113.454 28.36 113.188 28.9733 112.974 29.56C112.788 30.12 112.668 30.6267 112.614 31.08C112.588 31.5333 112.641 31.9067 112.774 32.2C112.908 32.4667 113.134 32.64 113.454 32.72C113.641 32.7733 113.934 32.72 114.334 32.56C114.734 32.4 115.121 32.0933 115.494 31.64C115.921 31.1333 116.294 30.5867 116.614 30C116.934 29.3867 117.148 28.8533 117.254 28.4C117.468 27.5467 117.521 26.8933 117.414 26.44C117.308 25.9867 116.881 25.7867 116.134 25.84C116.081 25.84 116.068 25.8133 116.094 25.76C116.148 25.68 116.214 25.6133 116.294 25.56C116.401 25.48 116.521 25.4267 116.654 25.4C116.788 25.3467 116.934 25.3467 117.094 25.4C117.574 25.5867 117.948 26 118.214 26.64C118.508 27.28 118.561 27.96 118.374 28.68C118.134 29.6933 117.681 30.6267 117.014 31.48C116.348 32.3333 115.548 32.9733 114.614 33.4C113.841 33.7467 113.068 33.7867 112.294 33.52C111.521 33.2533 110.974 32.7867 110.654 32.12ZM139.458 18C141.618 17.3867 143.791 16.5067 145.978 15.36C148.191 14.1867 150.191 12.68 151.978 10.84C152.938 9.85333 153.778 8.81333 154.498 7.71999C155.244 6.59999 155.778 5.57333 156.098 4.64C156.444 3.70666 156.524 2.93333 156.338 2.31999C156.178 1.70666 155.684 1.39999 154.858 1.39999C153.978 1.39999 153.058 1.67999 152.098 2.24C151.164 2.79999 150.218 3.54666 149.258 4.47999C148.298 5.41333 147.351 6.47999 146.418 7.67999C145.511 8.85333 144.631 10.0533 143.778 11.28C142.924 12.5067 142.124 13.7067 141.378 14.88C140.658 16.0533 140.018 17.0933 139.458 18ZM136.298 19.76C137.284 17.8667 138.378 15.8933 139.578 13.84C140.778 11.7867 142.044 9.91999 143.378 8.23999C144.258 7.17333 145.138 6.16 146.018 5.2C146.898 4.21333 147.778 3.35999 148.658 2.63999C149.564 1.89333 150.484 1.29333 151.418 0.839994C152.351 0.38666 153.324 0.133327 154.338 0.0799942C155.324 0.0266616 156.084 0.159995 156.618 0.479994C157.151 0.799994 157.484 1.25333 157.618 1.84C157.778 2.42666 157.764 3.11999 157.578 3.91999C157.391 4.69333 157.071 5.51999 156.618 6.39999C156.191 7.25333 155.644 8.13333 154.978 9.04C154.311 9.94666 153.578 10.8 152.778 11.6C151.044 13.3333 149.058 14.7867 146.818 15.96C144.604 17.1333 141.911 18.2267 138.738 19.24C138.444 19.8 138.151 20.3333 137.858 20.84C137.591 21.3467 137.351 21.8267 137.138 22.28C136.631 23.2933 136.164 24.3733 135.738 25.52C135.311 26.64 135.004 27.7067 134.818 28.72C134.658 29.7067 134.658 30.56 134.818 31.28C134.978 31.9733 135.404 32.3867 136.098 32.52C136.978 32.7067 138.124 31.9467 139.538 30.24C140.098 29.5733 140.644 28.7867 141.178 27.88C141.738 26.9467 142.191 26.08 142.538 25.28C142.804 24.6133 142.991 23.9733 143.098 23.36C143.204 22.7467 143.204 22.2 143.098 21.72C143.018 21.24 142.804 20.88 142.458 20.64C142.138 20.3733 141.658 20.2667 141.018 20.32C140.724 20.3467 140.498 20.3067 140.338 20.2C140.204 20.0933 140.151 19.9867 140.178 19.88C140.204 19.7467 140.324 19.64 140.538 19.56C140.778 19.4533 141.124 19.44 141.578 19.52C142.298 19.6267 142.898 19.8667 143.378 20.24C143.858 20.5867 144.218 21.0267 144.458 21.56C144.724 22.0667 144.871 22.64 144.898 23.28C144.951 23.8933 144.911 24.52 144.778 25.16C144.591 26.0133 144.298 26.8667 143.898 27.72C143.524 28.5733 143.058 29.3733 142.498 30.12C141.938 30.8667 141.298 31.52 140.578 32.08C139.858 32.6133 139.084 32.9867 138.258 33.2C137.111 33.52 136.138 33.6267 135.338 33.52C134.564 33.4133 133.951 33.16 133.498 32.76C133.071 32.36 132.791 31.8533 132.658 31.24C132.524 30.6 132.551 29.92 132.738 29.2C132.898 28.5867 133.124 27.9067 133.418 27.16C133.738 26.4133 134.098 25.6267 134.498 24.8C133.564 26.56 132.751 28.0533 132.058 29.28C131.364 30.48 130.818 31.2667 130.418 31.64C130.258 31.7733 130.138 31.7733 130.058 31.64C129.951 31.48 129.964 31.3067 130.098 31.12C130.498 30.5867 130.938 29.9067 131.418 29.08C131.898 28.2533 132.404 27.3467 132.938 26.36C133.471 25.3467 134.018 24.28 134.578 23.16C135.138 22.0133 135.711 20.88 136.298 19.76ZM136.378 19.76C135.791 19.84 135.218 19.8133 134.658 19.68C134.098 19.5467 133.631 19.2533 133.258 18.8C133.071 18.5867 132.924 18.36 132.818 18.12C132.711 17.8533 132.684 17.5867 132.738 17.32C132.764 17.1333 132.831 17 132.938 16.92C133.071 16.84 133.191 16.8133 133.298 16.84C133.431 16.8667 133.538 16.9333 133.618 17.04C133.698 17.12 133.738 17.2533 133.738 17.44V17.52C133.844 18.16 134.204 18.56 134.818 18.72C135.458 18.8533 136.138 18.88 136.858 18.8L136.378 19.76ZM160.607 25.96C160.447 26.3333 160.18 26.92 159.807 27.72C159.46 28.52 159.02 29.32 158.487 30.12C157.953 30.92 157.327 31.6267 156.607 32.24C155.913 32.8533 155.153 33.16 154.327 33.16C153.713 33.16 153.193 33.0667 152.767 32.88C152.367 32.6667 152.033 32.4133 151.767 32.12C151.207 32.5467 150.633 32.8933 150.047 33.16C149.46 33.4 148.873 33.5067 148.287 33.48C147.513 33.4533 146.9 33.2267 146.447 32.8C146.02 32.3733 145.727 31.8267 145.567 31.16C145.433 30.4667 145.433 29.6933 145.567 28.84C145.7 27.96 145.953 27.08 146.327 26.2C146.727 25.2933 147.22 24.4267 147.807 23.6C148.393 22.7733 149.02 22.0533 149.687 21.44C150.38 20.8267 151.087 20.3467 151.807 20C152.527 19.6267 153.233 19.4533 153.927 19.48C154.673 19.48 155.273 19.6933 155.727 20.12C156.18 20.5467 156.473 21.1067 156.607 21.8C156.767 22.4933 156.78 23.28 156.647 24.16C156.513 25.0133 156.26 25.88 155.887 26.76C155.593 27.4533 155.153 28.24 154.567 29.12C153.98 29.9733 153.3 30.76 152.527 31.48C152.873 32.1467 153.5 32.48 154.407 32.48C155.047 32.48 155.647 32.2133 156.207 31.68C156.793 31.1467 157.327 30.5067 157.807 29.76C158.287 29.0133 158.713 28.2533 159.087 27.48C159.46 26.7067 159.767 26.08 160.007 25.6C160.113 25.3867 160.273 25.32 160.487 25.4C160.7 25.48 160.74 25.6667 160.607 25.96ZM154.767 20.8C154.34 20.6933 153.873 20.76 153.367 21C152.86 21.2133 152.353 21.5733 151.847 22.08C151.34 22.56 150.847 23.1467 150.367 23.84C149.887 24.5067 149.46 25.24 149.087 26.04C148.687 26.8667 148.367 27.6533 148.127 28.4C147.913 29.12 147.78 29.7733 147.727 30.36C147.673 30.9467 147.713 31.44 147.847 31.84C147.98 32.2133 148.233 32.4533 148.607 32.56C148.98 32.6667 149.407 32.6267 149.887 32.44C150.367 32.2533 150.847 31.96 151.327 31.56C151.113 31.24 150.953 30.9067 150.847 30.56C150.74 30.2133 150.687 29.8933 150.687 29.6C150.713 29.1467 150.82 28.7467 151.007 28.4C151.22 28.0533 151.58 27.88 152.087 27.88C152.433 27.88 152.713 28 152.927 28.24C153.167 28.48 153.287 28.76 153.287 29.08C153.287 29.16 153.273 29.24 153.247 29.32C153.247 29.3733 153.233 29.44 153.207 29.52C153.66 28.8533 154.073 28.1333 154.447 27.36C154.847 26.5333 155.153 25.7467 155.367 25C155.58 24.2533 155.7 23.5867 155.727 23C155.753 22.4133 155.687 21.9333 155.527 21.56C155.367 21.16 155.113 20.9067 154.767 20.8ZM173.525 26.12C173.232 26.7333 172.858 27.4667 172.405 28.32C171.978 29.1733 171.485 30 170.925 30.8C170.365 31.5733 169.752 32.24 169.085 32.8C168.418 33.36 167.698 33.64 166.925 33.64C166.578 33.64 166.218 33.5733 165.845 33.44C165.472 33.3067 165.152 33.0667 164.885 32.72C164.645 32.3467 164.498 31.8667 164.445 31.28C164.392 30.6667 164.512 29.8933 164.805 28.96C164.965 28.4267 165.232 27.8267 165.605 27.16C165.978 26.4667 166.445 25.6667 167.005 24.76C167.245 24.36 167.378 24.0133 167.405 23.72C167.432 23.4267 167.325 23.2533 167.085 23.2C166.872 23.1467 166.525 23.2533 166.045 23.52C165.565 23.7867 164.938 24.28 164.165 25C163.472 25.6133 162.645 26.5333 161.685 27.76C160.752 28.9867 159.725 30.7067 158.605 32.92C158.445 33.2133 158.258 33.3867 158.045 33.44C157.832 33.4933 157.512 33.52 157.085 33.52C156.792 33.5467 156.552 33.56 156.365 33.56C156.152 33.56 155.938 33.6267 155.725 33.76C156.685 31.84 157.592 29.9467 158.445 28.08C159.325 26.2133 160.258 24.3733 161.245 22.56C161.752 21.6 162.192 20.9333 162.565 20.56C162.938 20.1867 163.445 20.0133 164.085 20.04C164.352 20.0667 164.618 20.12 164.885 20.2C165.178 20.2533 165.472 20.2533 165.765 20.2C165.472 20.36 165.112 20.7067 164.685 21.24C164.285 21.7733 163.858 22.4 163.405 23.12C162.978 23.84 162.538 24.6133 162.085 25.44C161.658 26.24 161.272 27 160.925 27.72C161.325 27.2133 161.818 26.6267 162.405 25.96C163.018 25.2667 163.632 24.6533 164.245 24.12C164.725 23.6933 165.312 23.24 166.005 22.76C166.725 22.2533 167.445 21.8133 168.165 21.44C168.885 21.04 169.552 20.7333 170.165 20.52C170.805 20.3067 171.298 20.2533 171.645 20.36C170.845 21.8 170.112 23.1733 169.445 24.48C169.152 25.04 168.858 25.6133 168.565 26.2C168.298 26.7867 168.045 27.36 167.805 27.92C167.565 28.4533 167.352 28.96 167.165 29.44C167.005 29.92 166.898 30.3333 166.845 30.68C166.685 31.5067 166.685 32.0533 166.845 32.32C167.005 32.56 167.218 32.68 167.485 32.68C167.992 32.68 168.525 32.4 169.085 31.84C169.645 31.28 170.178 30.6267 170.685 29.88C171.192 29.1067 171.645 28.3333 172.045 27.56C172.445 26.7867 172.752 26.1867 172.965 25.76C173.125 25.4133 173.298 25.2933 173.485 25.4C173.698 25.48 173.712 25.72 173.525 26.12ZM168.844 42.24C168.444 43.0933 168.07 43.6667 167.724 43.96C167.35 44.2533 166.83 44.3733 166.164 44.32C165.897 44.2933 165.63 44.24 165.364 44.16C165.07 44.08 164.777 44.0667 164.484 44.12C164.644 43.96 164.95 43.4933 165.404 42.72C165.857 41.9733 166.377 41.04 166.964 39.92C167.55 38.8267 168.177 37.6267 168.844 36.32C169.51 35.0133 170.124 33.7333 170.684 32.48C171.27 31.2267 171.764 30.08 172.164 29.04C172.59 27.9733 172.87 27.1333 173.004 26.52C172.79 26.8667 172.55 27.0933 172.284 27.2C172.017 27.28 171.95 27.1733 172.084 26.88C172.19 26.6667 172.324 26.3733 172.484 26C172.644 25.6267 172.777 25.32 172.884 25.08C173.07 24.6533 173.23 24.16 173.364 23.6C173.524 23.04 173.617 22.5067 173.644 22C173.697 21.4933 173.684 21.0667 173.604 20.72C173.524 20.3467 173.364 20.1333 173.124 20.08C173.417 20.0267 173.697 19.9733 173.964 19.92C174.177 19.8667 174.39 19.84 174.604 19.84C174.844 19.8133 175.004 19.7867 175.084 19.76C175.377 19.7333 175.617 19.72 175.804 19.72C175.99 19.6933 176.137 19.72 176.244 19.8C176.35 19.88 176.417 20.0533 176.444 20.32C176.497 20.56 176.524 20.92 176.524 21.4C176.524 21.8 176.457 22.28 176.324 22.84C176.217 23.3733 176.084 23.9333 175.924 24.52C175.764 25.1067 175.59 25.68 175.404 26.24C175.217 26.8 175.044 27.2933 174.884 27.72C175.284 27.2133 175.79 26.6267 176.404 25.96C177.017 25.2667 177.63 24.6533 178.244 24.12C178.724 23.6933 179.31 23.24 180.004 22.76C180.724 22.2533 181.444 21.8133 182.164 21.44C182.884 21.04 183.55 20.7333 184.164 20.52C184.804 20.3067 185.297 20.2533 185.644 20.36C184.844 21.8 184.11 23.1733 183.444 24.48C183.15 25.04 182.857 25.6133 182.564 26.2C182.297 26.7867 182.044 27.36 181.804 27.92C181.564 28.4533 181.35 28.96 181.164 29.44C181.004 29.92 180.897 30.3333 180.844 30.68C180.684 31.5067 180.684 32.0533 180.844 32.32C181.004 32.56 181.217 32.68 181.484 32.68C181.99 32.68 182.524 32.4 183.084 31.84C183.644 31.28 184.177 30.6267 184.684 29.88C185.19 29.1067 185.644 28.3333 186.044 27.56C186.444 26.7867 186.75 26.1867 186.964 25.76C187.124 25.4133 187.297 25.2933 187.484 25.4C187.697 25.48 187.71 25.72 187.524 26.12C187.23 26.7333 186.857 27.4667 186.404 28.32C185.977 29.1733 185.484 30 184.924 30.8C184.364 31.5733 183.75 32.24 183.084 32.8C182.417 33.36 181.697 33.64 180.924 33.64C180.577 33.64 180.217 33.5733 179.844 33.44C179.47 33.3067 179.15 33.0667 178.884 32.72C178.644 32.3467 178.497 31.8667 178.444 31.28C178.39 30.6667 178.51 29.8933 178.804 28.96C178.964 28.4267 179.23 27.8267 179.604 27.16C179.977 26.4667 180.444 25.6667 181.004 24.76C181.244 24.36 181.377 24.0133 181.404 23.72C181.43 23.4267 181.324 23.2533 181.084 23.2C180.87 23.1467 180.524 23.2533 180.044 23.52C179.564 23.7867 178.937 24.28 178.164 25C177.817 25.32 177.417 25.6933 176.964 26.12C176.537 26.5467 176.07 27.08 175.564 27.72C175.084 28.3333 174.59 29.0667 174.084 29.92C173.577 30.7733 173.084 31.7733 172.604 32.92L168.844 42.24ZM200.54 25.96C200.38 26.3333 200.113 26.92 199.74 27.72C199.393 28.52 198.953 29.32 198.42 30.12C197.886 30.92 197.26 31.6267 196.54 32.24C195.846 32.8533 195.086 33.16 194.26 33.16C193.646 33.16 193.126 33.0667 192.7 32.88C192.3 32.6667 191.966 32.4133 191.7 32.12C191.14 32.5467 190.566 32.8933 189.98 33.16C189.393 33.4 188.806 33.5067 188.22 33.48C187.446 33.4533 186.833 33.2267 186.38 32.8C185.953 32.3733 185.66 31.8267 185.5 31.16C185.366 30.4667 185.366 29.6933 185.5 28.84C185.633 27.96 185.886 27.08 186.26 26.2C186.66 25.2933 187.153 24.4267 187.74 23.6C188.326 22.7733 188.953 22.0533 189.62 21.44C190.313 20.8267 191.02 20.3467 191.74 20C192.46 19.6267 193.166 19.4533 193.86 19.48C194.606 19.48 195.206 19.6933 195.66 20.12C196.113 20.5467 196.406 21.1067 196.54 21.8C196.7 22.4933 196.713 23.28 196.58 24.16C196.446 25.0133 196.193 25.88 195.82 26.76C195.526 27.4533 195.086 28.24 194.5 29.12C193.913 29.9733 193.233 30.76 192.46 31.48C192.806 32.1467 193.433 32.48 194.34 32.48C194.98 32.48 195.58 32.2133 196.14 31.68C196.726 31.1467 197.26 30.5067 197.74 29.76C198.22 29.0133 198.646 28.2533 199.02 27.48C199.393 26.7067 199.7 26.08 199.94 25.6C200.046 25.3867 200.206 25.32 200.42 25.4C200.633 25.48 200.673 25.6667 200.54 25.96ZM194.7 20.8C194.273 20.6933 193.806 20.76 193.3 21C192.793 21.2133 192.286 21.5733 191.78 22.08C191.273 22.56 190.78 23.1467 190.3 23.84C189.82 24.5067 189.393 25.24 189.02 26.04C188.62 26.8667 188.3 27.6533 188.06 28.4C187.846 29.12 187.713 29.7733 187.66 30.36C187.606 30.9467 187.646 31.44 187.78 31.84C187.913 32.2133 188.166 32.4533 188.54 32.56C188.913 32.6667 189.34 32.6267 189.82 32.44C190.3 32.2533 190.78 31.96 191.26 31.56C191.046 31.24 190.886 30.9067 190.78 30.56C190.673 30.2133 190.62 29.8933 190.62 29.6C190.646 29.1467 190.753 28.7467 190.94 28.4C191.153 28.0533 191.513 27.88 192.02 27.88C192.366 27.88 192.646 28 192.86 28.24C193.1 28.48 193.22 28.76 193.22 29.08C193.22 29.16 193.206 29.24 193.18 29.32C193.18 29.3733 193.166 29.44 193.14 29.52C193.593 28.8533 194.006 28.1333 194.38 27.36C194.78 26.5333 195.086 25.7467 195.3 25C195.513 24.2533 195.633 23.5867 195.66 23C195.686 22.4133 195.62 21.9333 195.46 21.56C195.3 21.16 195.046 20.9067 194.7 20.8ZM210.738 26.16C210.258 27.2 209.778 28.1733 209.298 29.08C208.818 29.9867 208.271 30.7867 207.658 31.48C207.071 32.1467 206.378 32.68 205.578 33.08C204.805 33.4533 203.871 33.64 202.778 33.64C201.738 33.64 200.911 33.4533 200.298 33.08C199.685 32.7067 199.245 32.2267 198.978 31.64C198.711 31.0267 198.591 30.3333 198.618 29.56C198.671 28.7867 198.818 27.9867 199.058 27.16C199.325 26.3333 199.658 25.52 200.058 24.72C200.485 23.92 200.938 23.2 201.418 22.56C202.165 21.5467 203.005 20.7733 203.938 20.24C204.871 19.68 205.818 19.4 206.778 19.4C207.791 19.4 208.525 19.6533 208.978 20.16C209.458 20.6667 209.645 21.3333 209.538 22.16C209.485 22.48 209.351 22.8133 209.138 23.16C208.951 23.5067 208.725 23.8 208.458 24.04C208.191 24.28 207.911 24.44 207.618 24.52C207.325 24.5733 207.071 24.4933 206.858 24.28C207.071 24.0133 207.298 23.7067 207.538 23.36C207.805 22.9867 207.991 22.6133 208.098 22.24C208.285 21.5467 208.285 21.0533 208.098 20.76C207.938 20.44 207.671 20.28 207.298 20.28C206.925 20.28 206.551 20.3867 206.178 20.6C205.805 20.8133 205.418 21.08 205.018 21.4C204.645 21.72 204.285 22.0933 203.938 22.52C203.591 22.92 203.285 23.32 203.018 23.72C202.831 23.9867 202.605 24.3467 202.338 24.8C202.098 25.2533 201.858 25.76 201.618 26.32C201.405 26.8533 201.218 27.4267 201.058 28.04C200.898 28.6533 200.818 29.2533 200.818 29.84C200.818 30.64 200.991 31.36 201.338 32C201.711 32.6133 202.325 32.92 203.178 32.92C204.058 32.92 204.831 32.7067 205.498 32.28C206.191 31.8267 206.818 31.2667 207.378 30.6C207.938 29.9067 208.445 29.1467 208.898 28.32C209.351 27.4933 209.778 26.68 210.178 25.88C210.365 25.5067 210.551 25.36 210.738 25.44C210.925 25.52 210.925 25.76 210.738 26.16ZM220.409 27.72C220.222 28.0933 220.022 28.56 219.809 29.12C219.622 29.6533 219.489 30.1867 219.409 30.72C219.329 31.2267 219.342 31.6667 219.449 32.04C219.582 32.4133 219.889 32.6 220.369 32.6C220.875 32.6 221.395 32.32 221.929 31.76C222.489 31.2 223.009 30.5467 223.489 29.8C223.969 29.0533 224.395 28.3067 224.769 27.56C225.169 26.7867 225.475 26.1867 225.689 25.76C225.849 25.4133 226.022 25.2933 226.209 25.4C226.422 25.48 226.435 25.72 226.249 26.12C225.955 26.7333 225.582 27.4667 225.129 28.32C224.702 29.1733 224.209 30 223.649 30.8C223.089 31.5733 222.475 32.24 221.809 32.8C221.142 33.36 220.422 33.64 219.649 33.64C219.329 33.64 219.009 33.56 218.689 33.4C218.395 33.2133 218.115 32.9333 217.849 32.56C217.635 32.2133 217.462 31.6933 217.329 31C217.195 30.3067 217.249 29.6533 217.489 29.04C217.809 28.3733 218.089 27.7867 218.329 27.28C218.569 26.7467 218.809 26.24 219.049 25.76C219.289 25.28 219.542 24.7867 219.809 24.28C220.075 23.7733 220.382 23.2 220.729 22.56C221.235 21.6 221.675 20.9333 222.049 20.56C222.422 20.1867 222.929 20.0133 223.569 20.04C223.835 20.0667 224.102 20.12 224.369 20.2C224.662 20.2533 224.955 20.2533 225.249 20.2C224.955 20.36 224.595 20.7067 224.169 21.24C223.769 21.7733 223.342 22.4 222.889 23.12C222.462 23.84 222.022 24.6133 221.569 25.44C221.142 26.24 220.755 27 220.409 27.72ZM214.769 28.84C214.662 28.8133 214.395 28.7333 213.969 28.6C213.569 28.4667 213.222 28.24 212.929 27.92C212.689 27.6533 212.529 27.3733 212.449 27.08C212.395 26.76 212.409 26.4667 212.489 26.2C212.569 25.9333 212.715 25.72 212.929 25.56C213.142 25.4 213.409 25.32 213.729 25.32C214.022 25.32 214.289 25.44 214.529 25.68C214.795 25.92 214.929 26.1867 214.929 26.48C214.929 26.56 214.902 26.68 214.849 26.84C214.795 27 214.755 27.12 214.729 27.2C214.675 27.3333 214.635 27.4667 214.609 27.6C214.609 27.7067 214.689 27.8267 214.849 27.96C215.009 28.0933 215.275 28.2133 215.649 28.32C216.049 28.4 216.489 28.3733 216.969 28.24C217.449 28.08 217.942 27.76 218.449 27.28C218.955 26.7733 219.422 26 219.849 24.96C219.982 24.5867 220.155 24.4533 220.369 24.56C220.582 24.6667 220.595 24.92 220.409 25.32C219.955 26.3067 219.502 27.0667 219.049 27.6C218.595 28.1333 218.129 28.5067 217.649 28.72C217.169 28.9333 216.689 29.04 216.209 29.04C215.729 29.0133 215.249 28.9467 214.769 28.84ZM207.689 32.12C207.502 31.7467 207.409 31.3067 207.409 30.8C207.435 30.2667 207.595 29.68 207.889 29.04C208.209 28.3733 208.489 27.7867 208.729 27.28C208.969 26.7467 209.209 26.24 209.449 25.76C209.689 25.28 209.942 24.7867 210.209 24.28C210.475 23.7733 210.782 23.2 211.129 22.56C211.635 21.6 212.075 20.9333 212.449 20.56C212.822 20.1867 213.329 20.0133 213.969 20.04C214.235 20.0667 214.502 20.12 214.769 20.2C215.062 20.2533 215.355 20.2533 215.649 20.2C215.355 20.36 215.009 20.7067 214.609 21.24C214.209 21.7733 213.782 22.4 213.329 23.12C212.902 23.84 212.462 24.6133 212.009 25.44C211.582 26.24 211.182 27 210.809 27.72C210.489 28.36 210.222 28.9733 210.009 29.56C209.822 30.12 209.702 30.6267 209.649 31.08C209.622 31.5333 209.675 31.9067 209.809 32.2C209.942 32.4667 210.169 32.64 210.489 32.72C210.675 32.7733 210.969 32.72 211.369 32.56C211.769 32.4 212.155 32.0933 212.529 31.64C212.955 31.1333 213.329 30.5867 213.649 30C213.969 29.3867 214.182 28.8533 214.289 28.4C214.502 27.5467 214.555 26.8933 214.449 26.44C214.342 25.9867 213.915 25.7867 213.169 25.84C213.115 25.84 213.102 25.8133 213.129 25.76C213.182 25.68 213.249 25.6133 213.329 25.56C213.435 25.48 213.555 25.4267 213.689 25.4C213.822 25.3467 213.969 25.3467 214.129 25.4C214.609 25.5867 214.982 26 215.249 26.64C215.542 27.28 215.595 27.96 215.409 28.68C215.169 29.6933 214.715 30.6267 214.049 31.48C213.382 32.3333 212.582 32.9733 211.649 33.4C210.875 33.7467 210.102 33.7867 209.329 33.52C208.555 33.2533 208.009 32.7867 207.689 32.12ZM239.901 15.72C239.048 16.7067 238.195 17.6 237.341 18.4C236.488 19.2 235.675 20.0267 234.901 20.88C234.128 21.7067 233.395 22.6133 232.701 23.6C232.035 24.56 231.448 25.72 230.941 27.08C230.835 27.32 230.661 27.4 230.421 27.32C230.208 27.24 230.128 27.0667 230.181 26.8C230.421 25.8133 230.835 24.8 231.421 23.76C232.008 22.72 232.675 21.6933 233.421 20.68C234.195 19.64 234.995 18.6267 235.821 17.64C236.675 16.6267 237.475 15.6533 238.221 14.72C239.101 13.6 239.568 12.64 239.621 11.84C239.675 11.04 239.461 10.4267 238.981 10C238.501 9.57333 237.821 9.34666 236.941 9.31999C236.061 9.29333 235.141 9.52 234.181 10C233.568 10.2933 233.021 10.7067 232.541 11.24C232.061 11.7733 231.861 12.28 231.941 12.76C232.021 12.44 232.195 12.1733 232.461 11.96C232.728 11.72 233.021 11.5067 233.341 11.32C233.928 11 234.421 10.9067 234.821 11.04C235.248 11.1733 235.541 11.4133 235.701 11.76C235.888 12.1067 235.915 12.52 235.781 13C235.675 13.48 235.395 13.8933 234.941 14.24C234.408 14.64 233.875 14.8533 233.341 14.88C232.808 14.9067 232.355 14.7867 231.981 14.52C231.608 14.2267 231.355 13.8133 231.221 13.28C231.115 12.7467 231.208 12.1333 231.501 11.44C231.768 10.8533 232.181 10.3467 232.741 9.91999C233.328 9.49333 233.888 9.11999 234.421 8.79999C235.355 8.26666 236.275 7.90666 237.181 7.71999C238.115 7.53333 238.955 7.50666 239.701 7.63999C240.448 7.74666 241.075 8.01333 241.581 8.43999C242.088 8.86666 242.381 9.42666 242.461 10.12C242.568 10.8133 242.421 11.6267 242.021 12.56C241.648 13.4933 240.941 14.5467 239.901 15.72ZM231.021 32.4C230.941 32.8533 230.715 33.24 230.341 33.56C229.968 33.88 229.555 34.04 229.101 34.04C228.648 34.04 228.288 33.88 228.021 33.56C227.755 33.24 227.661 32.8533 227.741 32.4C227.795 31.9467 228.008 31.56 228.381 31.24C228.781 30.92 229.208 30.76 229.661 30.76C230.115 30.76 230.475 30.92 230.741 31.24C231.008 31.56 231.101 31.9467 231.021 32.4Z" fill="#902732"/>
</svg>
