<?xml version="1.0" encoding="UTF-8"?> <svg xmlns="http://www.w3.org/2000/svg" width="86" height="86" viewBox="0 0 86 86" fill="none"><path d="M28.2298 70.7957C30.9695 70.8607 33.2891 69.6016 35.4604 68.1229C36.0338 67.7331 36.1823 66.95 35.7908 66.3777C35.4009 65.8042 34.6204 65.6557 34.048 66.047C32.0022 67.4403 30.2016 68.3575 28.2372 68.3038C25.6552 68.3748 23.2865 66.6774 20.3971 64.5978C13.335 59.1241 9.96669 51.8552 7.39731 43.3933C6.88368 41.7017 6.11583 38.8748 6.18325 37.5898C6.35152 34.3824 8.26083 30.4226 10.6307 28.5577C11.2777 29.3895 12.2199 29.9799 13.2743 30.3837C13.4678 32.6333 14.1256 35.0419 15.6265 35.9669C17.1372 36.8391 18.8897 36.5241 20.4069 35.8665C21.2873 35.4847 22.1192 34.9624 22.8816 34.3734C23.064 34.767 23.2573 35.1593 23.4788 35.5336C24.5163 37.2867 26.0467 38.9188 28.1735 38.9188C30.3004 38.9188 31.8209 37.2867 32.8584 35.5336C33.1132 35.103 33.3436 34.6546 33.5462 34.1995C34.3783 34.8724 35.3061 35.4689 36.2877 35.8885C37.7926 36.5317 39.5206 36.8306 41.0167 35.9667C42.8564 34.9045 43.363 32.7317 43.3861 30.6967C44.6126 30.349 45.5319 29.7798 46.4286 29.0518C47.3645 29.923 48.1947 31.1046 48.8494 32.4126C46.6268 33.4874 44.6537 35.2591 43.3738 37.2297C42.301 38.8815 41.8214 41.3048 41.4793 42.7737C39.7228 50.3161 39.0166 57.7458 42.1622 65.4237C43.4064 68.1839 44.5698 71.0684 47.3514 72.5918C50.0628 74.243 53.1446 73.8083 56.1558 73.5049C64.3745 72.3896 70.4559 68.0615 76.1096 62.7692C77.2106 61.7385 79.0731 60.1158 79.9672 58.3608C81.4709 55.4093 81.9181 51.4883 80.7676 48.3105C81.8819 46.9686 81.7974 45.1357 81.3844 43.5253C80.9447 41.8109 80.1045 40.1918 79.015 39.1023C76.8787 36.966 73.4083 36.9367 71.219 38.9896C71.0341 39.0085 70.8481 39.0199 70.6683 39.0531C71.6485 37.0997 73.2509 35.6603 75.2798 34.8528C76.0999 34.5267 76.8646 34.0125 77.1327 33.0733C77.4008 32.1342 76.8987 31.1598 76.2075 30.5644C75.4901 29.9467 74.6027 29.5596 73.6643 29.3749C72.7257 29.1908 71.7192 29.1987 70.7809 29.6292C68.0734 30.871 66.0622 32.8871 64.8672 35.724C64.8051 35.5411 64.7264 35.3634 64.6445 35.1855C64.8932 33.9727 64.8749 32.741 64.434 31.6241C63.9338 30.3576 62.8227 29.2889 61.3156 28.885C59.8273 28.4862 58.0071 28.5653 56.3027 29.0419C54.9138 29.4303 53.5052 30.1191 52.7584 31.3598C52.2442 31.3825 51.7345 31.4755 51.2261 31.5877C50.3616 29.7513 49.1961 28.0631 47.7063 26.8294C48.0859 24.8818 46.9644 23.0894 45.6037 21.699C44.1788 20.2431 42.3922 19.109 40.7034 18.6565C37.3632 17.7615 33.9035 19.7366 32.9515 23.0477C32.634 23.268 32.3435 23.5109 32.0776 23.7771C31.796 20.992 32.5952 18.3655 34.3099 16.1941C34.9282 15.4112 35.3546 14.4908 35.1006 13.4771C34.8465 12.4634 33.8621 11.8268 32.8584 11.6365C32.5977 11.5873 32.3355 11.5567 32.0703 11.5461C31.2747 11.5121 30.4654 11.6489 29.6935 11.913C28.6644 12.2649 27.6846 12.8476 27.0206 13.7831C24.908 16.7601 24.0588 20.1104 24.6929 23.8922C24.3943 23.5766 24.057 23.2946 23.6893 23.0404C23.2434 21.665 22.5111 20.4304 21.4301 19.572C20.2262 18.6161 18.5581 18.1989 16.8504 18.6565C15.1615 19.1089 13.375 20.2431 11.9501 21.699C10.7624 22.9125 9.75903 24.4336 9.7716 26.0952C6.12437 28.359 3.90067 33.1901 3.67679 37.4574C3.56003 39.6829 4.48957 42.4253 5.00345 44.1177C7.6369 52.7905 11.2449 60.6962 18.8906 66.6122C21.7704 68.6863 24.6066 70.876 28.2298 70.7957ZM31.5122 14.0699C31.9092 13.9947 32.2648 14.1127 32.6259 14.1483C32.5926 14.2424 32.5188 14.4083 32.3395 14.6353C30.289 17.2318 29.3028 20.4646 29.5785 23.8118C28.7483 23.596 27.9916 23.6628 27.2116 23.7282C26.5599 20.4155 27.2097 17.8448 29.062 15.2347C29.794 14.4532 30.5684 14.2588 31.5122 14.0699ZM39.2764 20.9554C39.5326 20.9705 39.7913 21.011 40.0498 21.0802C41.0841 21.3572 42.6981 22.3187 43.812 23.4568C44.9259 24.595 45.421 25.7875 45.2414 26.4578C44.7626 27.4376 44.0237 27.7375 43.1389 28.1369C42.9222 27.0083 42.5731 25.9427 42.0692 25.0699C41.195 23.5557 39.7814 22.5345 38.2067 22.1131C37.6492 21.9638 37.0713 21.9165 36.4909 21.9222C37.2391 21.2533 38.2347 20.8904 39.2764 20.9554ZM18.2089 20.963C18.8626 20.929 19.3767 21.1417 19.8733 21.5357C20.0115 21.6457 20.1431 21.7841 20.2723 21.9275C19.6514 21.9086 19.0313 21.9577 18.4365 22.1134C16.8618 22.535 15.4483 23.556 14.574 25.0702C14.1246 25.8486 13.7877 26.7762 13.5656 27.7676C12.871 27.4082 12.4519 26.9788 12.3123 26.458C12.1327 25.7878 12.6279 24.5953 13.7418 23.4572C14.8557 22.319 16.4697 21.3576 17.5039 21.0804C17.7578 21.0124 17.991 20.9743 18.2089 20.963ZM19.8072 24.3995C20.5462 24.3489 21.309 24.5118 22.0053 24.9136C22.5143 25.2076 22.9226 25.6031 23.2365 26.0518C22.3578 27.1422 21.807 28.5073 21.807 30.0073C21.807 30.5859 21.8993 31.197 22.0298 31.8161C21.2567 32.5234 20.3116 33.1807 19.4107 33.5712C18.2905 34.0566 17.3727 34.0836 16.8798 33.7991C16.2788 33.4517 15.7856 32.2535 15.7685 30.6611C15.7514 29.0687 16.2073 27.2511 16.7427 26.3238C17.4119 25.1646 18.5757 24.4841 19.8072 24.3995ZM36.836 24.3995C38.0676 24.4842 39.2313 25.1643 39.9005 26.3235C40.4359 27.2508 40.8992 29.0685 40.8821 30.6609C40.8651 32.2533 40.3669 33.4518 39.7659 33.7987C39.2778 34.0807 38.3766 34.057 37.2692 33.5834C36.2577 33.1509 35.1841 32.384 34.3638 31.5787C34.7376 29.7242 34.2641 27.6293 33.2721 26.2549C33.5956 25.7187 34.051 25.2548 34.6379 24.916C35.3342 24.5139 36.097 24.3489 36.836 24.3995ZM28.1735 26.1595C30.3174 26.1595 32.0189 27.8658 32.0189 30.0073C32.0189 31.0781 31.5155 32.8885 30.7045 34.2589C29.8934 35.6295 28.8675 36.4154 28.1735 36.4154C27.4796 36.4154 26.4439 35.6295 25.6328 34.2589C24.8218 32.8885 24.3184 31.0781 24.3184 30.0073C24.3184 27.8658 26.0296 26.1595 28.1735 26.1595ZM58.9903 31.165C59.6485 31.1423 60.2525 31.1952 60.6694 31.3071C61.4796 31.5241 61.8503 31.9187 62.0964 32.536C61.7505 32.3621 61.3922 32.2173 61.0194 32.1172C59.6309 31.7449 58.0972 31.9003 56.7628 32.6705C56.1394 33.0303 55.5449 33.5258 54.9931 34.0974C54.754 33.6573 54.6802 33.2712 54.7704 32.9347C54.8962 32.4653 55.7044 31.8155 56.9807 31.4588C57.6188 31.28 58.332 31.1869 58.9903 31.165ZM72.3964 31.7843C72.6317 31.7692 72.9018 31.7805 73.1772 31.8331C73.7172 31.9393 74.2498 32.2005 74.5455 32.4475C74.5024 32.4815 74.5685 32.4361 74.3521 32.5257C71.7632 33.556 69.6635 35.4772 68.4042 38.0012C67.9684 37.5792 67.4685 37.3799 66.9747 37.1396C67.8955 34.5401 69.4242 33.008 71.8261 31.9064C71.9615 31.8444 72.1611 31.8002 72.3964 31.7843ZM10.293 32.7408C9.60275 32.7422 9.04354 33.3013 9.04219 33.9916V37.1858C9.04354 37.876 9.60275 38.4353 10.293 38.4366C10.9832 38.4353 11.5424 37.876 11.5438 37.1858V33.9916C11.5424 33.3013 10.9832 32.7421 10.293 32.7408ZM52.8294 41.4155C53.6163 42.7786 55.1053 43.309 56.5376 43.474C57.2952 43.5613 58.07 43.5427 58.8287 43.4551C58.8079 43.7559 58.7814 44.056 58.7846 44.3583C58.8035 46.1281 59.2375 48.0567 60.8995 49.0163C62.5614 49.9758 64.4437 49.3829 65.9858 48.5145C66.2966 48.3399 66.5923 48.1423 66.8841 47.9393C67.207 48.731 67.6146 49.502 68.1276 50.1863C68.9837 51.3284 70.1768 52.3329 71.7355 52.3329C73.6092 52.3329 74.9252 50.9473 75.8256 49.4643C76.8033 49.7322 77.6509 49.6513 78.5524 49.5768C79.1745 51.8764 78.822 55.0798 77.7324 57.2186C77.2658 58.1344 75.4966 59.9041 74.3962 60.9343C68.9026 66.0768 63.3625 69.9798 55.8645 71.0041C52.8424 71.3084 50.4147 71.5413 48.6046 70.4289C46.7384 69.4185 45.7163 67.2016 44.4704 64.4369C41.6063 57.4296 42.215 50.6731 43.9221 43.3426C44.264 41.8745 44.919 39.4609 45.4789 38.5989C46.9061 36.4014 49.8701 34.3823 52.308 33.9532C52.4657 34.7632 52.8799 35.5145 53.3727 36.2626C52.4628 37.8695 51.8698 39.7535 52.8294 41.4155ZM59.7882 34.4248C60.7781 34.4925 61.7129 35.0387 62.2531 35.9742C62.4659 36.3427 62.5839 36.7354 62.6349 37.1296C61.5382 37.5852 60.5683 38.3685 59.9326 39.4695C59.693 39.8845 59.504 40.3522 59.3378 40.8402C58.5122 41.0099 57.5957 41.0739 56.824 40.9847C55.8215 40.869 55.2022 40.5102 55.0029 40.1647C54.7598 39.7436 54.8618 38.7149 55.512 37.5603C56.1622 36.4055 57.271 35.2724 58.0185 34.8408C58.5791 34.5173 59.1943 34.3846 59.7882 34.4248ZM49.9117 36.3439C49.4583 36.3325 49.0362 36.574 48.8078 36.9654L47.4468 39.3251C47.1009 39.9234 47.3045 40.6889 47.9021 41.0361C48.5022 41.3827 49.2699 41.1766 49.6155 40.5761L50.9789 38.219C51.322 37.6193 51.1151 36.8552 50.5163 36.5105C50.3321 36.4047 50.1241 36.3473 49.9117 36.3439ZM64.571 39.1734C65.166 39.1356 65.7794 39.2652 66.3407 39.5897C67.8375 40.4539 68.3396 42.3269 67.4765 43.8218C67.0449 44.5694 65.9093 45.6781 64.7546 46.3283C63.5999 46.9785 62.5738 47.0854 62.1527 46.8423C61.7317 46.5993 61.3078 45.6536 61.2936 44.3284C61.2792 43.0034 61.6722 41.468 62.1037 40.7205C62.6432 39.7862 63.5794 39.2405 64.571 39.1734ZM77.2429 40.8769C77.8531 41.4874 78.6295 42.866 78.9587 44.1496C79.2879 45.4332 79.1238 46.4566 78.7801 46.8004C78.5818 46.9989 78.2193 47.1508 77.6296 47.1701C77.4141 47.1739 77.1574 47.1398 76.9051 47.1089C77.1834 46.2436 77.3457 45.372 77.3457 44.5559C77.3457 43.015 76.7152 41.6094 75.6984 40.5931C75.468 40.3629 75.2114 40.1592 74.9971 39.9664C75.8407 39.9626 76.6325 40.2669 77.2429 40.8769ZM20.9332 40.7202C20.242 40.7202 19.6813 41.2797 19.68 41.9709V45.1577C19.6772 45.8518 20.2391 46.416 20.9332 46.416C21.6292 46.4187 22.194 45.8537 22.1913 45.1577V41.9709C22.1899 41.2778 21.6263 40.7175 20.9332 40.7202ZM28.0365 41.4519C27.3462 41.4533 26.787 42.0126 26.7857 42.7028V45.8897C26.7829 46.5828 27.3434 47.1464 28.0365 47.1477C28.7305 47.1478 29.2924 46.5838 29.2897 45.8897V42.7028C29.2883 42.0116 28.7276 41.4519 28.0365 41.4519ZM71.7355 41.4519C73.4639 41.4519 74.8417 42.827 74.8417 44.5532C74.8417 45.4163 74.4102 46.9399 73.7353 48.0804C73.0604 49.2209 72.2241 49.828 71.738 49.828C71.343 49.828 70.7292 49.4785 70.1323 48.6826C69.6065 47.9811 69.1632 47.0181 68.9011 46.1222C69.1838 45.7832 69.4382 45.4331 69.6452 45.0747C70.2412 44.0423 70.4596 42.8944 70.3599 41.7849C70.7744 41.5774 71.2352 41.4519 71.7355 41.4519ZM14.552 43.3783C13.8579 43.3756 13.2939 43.9375 13.2939 44.6315V47.816C13.2898 48.513 13.8551 49.0793 14.552 49.0766C15.247 49.0766 15.8093 48.511 15.8052 47.816V44.6315C15.8052 43.9394 15.2441 43.3783 14.552 43.3783ZM33.6344 44.1396C32.9384 44.1368 32.3735 44.7018 32.3763 45.3978V48.5847C32.3763 49.2787 32.9403 49.8405 33.6344 49.8378C34.3256 49.8365 34.8852 49.2758 34.8852 48.5847V45.3978C34.8879 44.7046 34.3275 44.141 33.6344 44.1396ZM48.421 46.0096C48.001 46.0399 47.6222 46.2711 47.4126 46.6362L46.0541 48.9885C45.7056 49.5891 45.912 50.3586 46.5142 50.7043C47.1139 51.0471 47.8781 50.8408 48.2228 50.2415L49.5812 47.8893C49.9293 47.2911 49.7266 46.5241 49.1284 46.176C48.9142 46.052 48.6681 45.9941 48.421 46.0096ZM26.1101 49.1549C25.417 49.1563 24.8566 49.72 24.8593 50.4131V53.6C24.8607 54.2902 25.4199 54.8494 26.1101 54.8507C26.8003 54.8494 27.3595 54.2902 27.3609 53.6V50.4131C27.3636 49.72 26.8032 49.1563 26.1101 49.1549ZM18.8061 49.7595C18.1159 49.7609 17.5567 50.3201 17.5553 51.0103V54.2046C17.5567 54.8948 18.1159 55.454 18.8061 55.4554C19.4964 55.454 20.0556 54.8948 20.0569 54.2046V51.0103C20.0555 50.3201 19.4964 49.7609 18.8061 49.7595ZM55.7299 50.183C55.2729 50.1716 54.8471 50.4135 54.6186 50.8096L53.2577 53.1692C52.9142 53.7682 53.12 54.5322 53.7179 54.8777C54.3167 55.2254 55.084 55.0214 55.4313 54.4226L56.7922 52.0653C57.139 51.4652 56.9328 50.6975 56.332 50.3519C56.1488 50.2457 55.9416 50.1875 55.7299 50.183ZM76.3127 51.5831C75.8571 51.5755 75.4326 51.8132 75.2039 52.2072L73.843 54.5643C73.4962 55.1644 73.7024 55.9321 74.3032 56.2777C74.9026 56.6251 75.6701 56.42 76.0166 55.8203L77.3775 53.4606C77.721 52.8616 77.5152 52.0976 76.9173 51.7522C76.7334 51.6456 76.5253 51.5872 76.3127 51.5831ZM63.3545 52.4765C62.8971 52.4652 62.4711 52.7086 62.2433 53.1056L60.8799 55.4627C60.5368 56.0624 60.7438 56.8265 61.3425 57.1712C61.9403 57.5155 62.7039 57.3118 63.051 56.716L64.412 54.3564C64.7579 53.758 64.5542 52.9926 63.9567 52.6454C63.7735 52.5392 63.5663 52.4811 63.3545 52.4765ZM48.9473 52.5328C48.4894 52.5215 48.0624 52.7627 47.8336 53.1595L46.4726 55.519C46.1296 56.1187 46.3365 56.8828 46.9353 57.2275C47.5329 57.5737 48.2982 57.3715 48.6462 56.7746L50.0072 54.4151C50.3544 53.8156 50.1493 53.0481 49.5494 52.7017C49.3663 52.5955 49.159 52.537 48.9473 52.5328ZM33.6344 54.1678C32.9413 54.1651 32.3776 54.7256 32.3763 55.4187V58.613C32.3776 59.306 32.9413 59.8664 33.6344 59.8636C34.3246 59.8622 34.8838 59.3032 34.8852 58.613V55.4187C34.8838 54.7285 34.3246 54.1692 33.6344 54.1678ZM22.255 56.8628C21.5638 56.8641 21.0042 57.4248 21.0042 58.1159V61.3078C21.0042 61.999 21.5638 62.5598 22.255 62.5611C22.949 62.5639 23.5131 62.0019 23.5131 61.3078V58.1161C23.5131 57.422 22.949 56.8601 22.255 56.8628ZM69.185 57.9398C68.7292 57.9285 68.3056 58.1738 68.0786 58.5689L66.7201 60.9212C66.3742 61.5194 66.5778 62.2848 67.1754 62.632C67.7755 62.9786 68.5432 62.7727 68.8888 62.1717L70.2473 59.8194C70.5945 59.22 70.3895 58.4525 69.7896 58.106C69.6055 58.0006 69.3974 57.9432 69.185 57.9398ZM28.0365 58.7916C27.3462 58.793 26.787 59.3522 26.7857 60.0424V63.2367C26.7871 63.9269 27.3462 64.4861 28.0365 64.4874C28.7276 64.4874 29.2883 63.9278 29.2897 63.2367V60.0424C29.2883 59.3512 28.7276 58.7916 28.0365 58.7916ZM48.4626 60.6348C48.007 60.6234 47.5825 60.8645 47.3538 61.2589L45.9929 63.616C45.6498 64.2157 45.8567 64.9799 46.4555 65.3246C47.0527 65.667 47.8145 65.4636 48.1616 64.8693L49.5225 62.5098C49.8647 61.9119 49.6603 61.1499 49.0648 60.8036C48.8815 60.6974 48.6744 60.6389 48.4626 60.6348ZM63.3252 60.8355C62.8682 60.8279 62.4423 61.066 62.2139 61.462L60.853 63.8217C60.5099 64.4213 60.7168 65.1855 61.3156 65.5301C61.9134 65.8726 62.6754 65.6681 63.0217 65.0726L64.3826 62.7154C64.7286 62.1171 64.5249 61.3516 63.9273 61.0045C63.7441 60.8983 63.5369 60.84 63.3252 60.8355ZM56.5499 65.3074C56.0965 65.2961 55.6744 65.5377 55.446 65.9292L54.085 68.2888C53.7428 68.8866 53.9472 69.6485 54.5428 69.9948C55.1411 70.341 55.9065 70.1369 56.2537 69.5396L57.6147 67.1825C57.9577 66.5829 57.7508 65.8186 57.152 65.474C56.9686 65.3685 56.7614 65.3108 56.5499 65.3074Z" fill="#E61B23"></path></svg> 