<?xml version="1.0" encoding="UTF-8"?> <svg xmlns="http://www.w3.org/2000/svg" width="36" height="36" viewBox="0 0 36 36" fill="none"><g clip-path="url(#clip0_2347_25)"><path d="M18 36C27.9411 36 36 27.9411 36 18C36 8.05887 27.9411 0 18 0C8.05887 0 0 8.05887 0 18C0 27.9411 8.05887 36 18 36Z" fill="#10B3F4"></path><path d="M8.41573 18.3367L12.554 19.8798L14.1673 25.0702C14.2374 25.4209 14.6582 25.491 14.9387 25.2806L17.2534 23.3868C17.4638 23.1764 17.8145 23.1764 18.095 23.3868L22.2333 26.4028C22.514 26.6132 22.9348 26.473 23.0049 26.1223L26.0911 11.3929C26.1612 11.0421 25.8105 10.6914 25.4598 10.8317L8.41573 17.4249C7.99489 17.5652 7.99489 18.1964 8.41573 18.3367ZM13.9568 19.1082L22.093 14.1283C22.2333 14.0581 22.3736 14.2686 22.2333 14.3388L15.57 20.5813C15.3596 20.7917 15.1492 21.0722 15.1492 21.4229L14.9387 23.1063C14.9387 23.3167 14.5881 23.3868 14.5179 23.1063L13.6762 20.0201C13.4658 19.6694 13.6061 19.2485 13.9568 19.1082Z" fill="white"></path></g><defs><clipPath id="clip0_2347_25"><rect width="36" height="36" fill="white"></rect></clipPath></defs></svg> 