<?xml version="1.0" encoding="UTF-8"?> <svg xmlns="http://www.w3.org/2000/svg" width="36" height="36" viewBox="0 0 36 36" fill="none"><path d="M35.5 18C35.5 27.665 27.665 35.5 18 35.5C8.33502 35.5 0.5 27.665 0.5 18C0.5 8.33502 8.33502 0.5 18 0.5C27.665 0.5 35.5 8.33502 35.5 18Z" fill="#5281B8" stroke="#5281B8"></path><path d="M27.2292 20.6838C27.2292 20.6838 29.1428 22.551 29.6139 23.4178C29.6245 23.4318 29.631 23.4458 29.6354 23.4555C29.6366 23.4581 29.6377 23.4604 29.6387 23.4624C29.8303 23.781 29.8754 24.0283 29.7807 24.2133C29.6229 24.5208 29.082 24.6723 28.8971 24.6856H25.5161C25.2817 24.6856 24.7903 24.6255 24.1953 24.2199C23.7386 23.9041 23.2886 23.3864 22.8499 22.8815L22.8474 22.8786C22.1915 22.1254 21.6235 21.4748 21.051 21.4748C20.9782 21.4747 20.906 21.486 20.8368 21.5082C20.4041 21.6464 19.8496 22.2569 19.8496 23.8835C19.8496 24.3915 19.4439 24.6834 19.1576 24.6834H17.6091C17.0817 24.6834 14.334 24.5007 11.8997 21.9628C8.91993 18.8544 6.23767 12.6199 6.21513 12.562C6.04608 12.1587 6.39545 11.9426 6.77637 11.9426H10.1912C10.6465 11.9426 10.7953 12.2166 10.8989 12.4595C10.9124 12.4909 10.9299 12.5326 10.9513 12.5837C11.1231 12.9936 11.5481 14.008 12.1995 15.1333C13.3874 17.1967 14.1154 18.0345 14.6992 18.0345C14.8086 18.0332 14.9162 18.0057 15.0125 17.9542C15.7743 17.5353 15.6323 14.8504 15.5985 14.2933C15.5985 14.1886 15.5963 13.0923 15.2063 12.5665C14.9268 12.1854 14.4512 12.0406 14.1627 11.9871C14.2795 11.8278 14.4334 11.6987 14.6113 11.6106C15.1342 11.3521 16.0764 11.3142 17.0118 11.3142H17.5325C18.5468 11.3276 18.8082 11.3922 19.1756 11.4836C19.9194 11.6596 19.9352 12.1342 19.8699 13.7585C19.8496 14.2198 19.8293 14.7412 19.8293 15.3562C19.8293 15.4209 19.8277 15.4878 19.8261 15.5567C19.8243 15.6301 19.8225 15.7058 19.8225 15.784L19.8224 15.79C19.7999 16.6152 19.7744 17.5496 20.3635 17.9342C20.4405 17.9819 20.5295 18.0074 20.6204 18.0077C20.8256 18.0077 21.4431 18.0077 23.1156 15.1712C23.6314 14.2582 24.0796 13.3095 24.4567 12.3325C24.4585 12.3295 24.4604 12.3262 24.4624 12.3227C24.5008 12.2566 24.5957 12.0928 24.7069 12.0272C24.7934 11.9836 24.8894 11.9615 24.9864 11.9626H29.0008C29.4381 11.9626 29.7379 12.0272 29.7942 12.1943C29.8934 12.4595 29.7762 13.2683 27.9437 15.7216L27.1255 16.7889C25.4643 18.9413 25.4643 19.0505 27.2292 20.6838Z" fill="white"></path><path d="M27.2292 20.6838C27.2292 20.6838 29.1428 22.551 29.6139 23.4178C29.6245 23.4318 29.631 23.4458 29.6354 23.4555C29.6366 23.4581 29.6377 23.4604 29.6387 23.4624C29.8303 23.781 29.8754 24.0283 29.7807 24.2133C29.6229 24.5208 29.082 24.6723 28.8971 24.6856H25.5161C25.2817 24.6856 24.7903 24.6255 24.1953 24.2199C23.7386 23.9041 23.2886 23.3864 22.8499 22.8815L22.8474 22.8786C22.1915 22.1254 21.6235 21.4748 21.051 21.4748C20.9782 21.4747 20.906 21.486 20.8368 21.5082C20.4041 21.6464 19.8496 22.2569 19.8496 23.8835C19.8496 24.3915 19.4439 24.6834 19.1576 24.6834H17.6091C17.0817 24.6834 14.334 24.5007 11.8997 21.9628C8.91993 18.8544 6.23767 12.6199 6.21513 12.562C6.04608 12.1587 6.39545 11.9426 6.77637 11.9426H10.1912C10.6465 11.9426 10.7953 12.2166 10.8989 12.4595C10.9124 12.4909 10.9299 12.5326 10.9513 12.5837C11.1231 12.9936 11.5481 14.008 12.1995 15.1333C13.3874 17.1967 14.1154 18.0345 14.6992 18.0345C14.8086 18.0332 14.9162 18.0057 15.0125 17.9542C15.7743 17.5353 15.6323 14.8504 15.5985 14.2933C15.5985 14.1886 15.5963 13.0923 15.2063 12.5665C14.9268 12.1854 14.4512 12.0406 14.1627 11.9871C14.2795 11.8278 14.4334 11.6987 14.6113 11.6106C15.1342 11.3521 16.0764 11.3142 17.0118 11.3142H17.5325C18.5468 11.3276 18.8082 11.3922 19.1756 11.4836C19.9194 11.6596 19.9352 12.1342 19.8699 13.7585C19.8496 14.2198 19.8293 14.7412 19.8293 15.3562C19.8293 15.4209 19.8277 15.4878 19.8261 15.5567C19.8243 15.6301 19.8225 15.7058 19.8225 15.784L19.8224 15.79C19.7999 16.6152 19.7744 17.5496 20.3635 17.9342C20.4405 17.9819 20.5295 18.0074 20.6204 18.0077C20.8256 18.0077 21.4431 18.0077 23.1156 15.1712C23.6314 14.2582 24.0796 13.3095 24.4567 12.3325C24.4585 12.3295 24.4604 12.3262 24.4624 12.3227C24.5008 12.2566 24.5957 12.0928 24.7069 12.0272C24.7934 11.9836 24.8894 11.9615 24.9864 11.9626H29.0008C29.4381 11.9626 29.7379 12.0272 29.7942 12.1943C29.8934 12.4595 29.7762 13.2683 27.9437 15.7216L27.1255 16.7889C25.4643 18.9413 25.4643 19.0505 27.2292 20.6838Z" stroke="white"></path></svg> 