<?xml version="1.0" encoding="UTF-8"?> <svg xmlns="http://www.w3.org/2000/svg" width="36" height="36" viewBox="0 0 36 36" fill="none"><g clip-path="url(#clip0_2347_30)"><path d="M18 36C27.9411 36 36 27.9411 36 18C36 8.05887 27.9411 0 18 0C8.05887 0 0 8.05887 0 18C0 27.9411 8.05887 36 18 36Z" fill="#45D354"></path><path d="M25.1341 10.8563C23.3561 9.08443 20.9854 8.1001 18.4829 8.1001C13.2805 8.1001 9.06588 12.3001 9.06588 17.4845C9.06588 19.1251 9.52686 20.7657 10.3171 22.1439L9 27.0001L14.0049 25.6876C15.3878 26.4095 16.9024 26.8032 18.4829 26.8032C23.6854 26.8032 27.9 22.6032 27.9 17.4189C27.8341 14.9908 26.9122 12.6282 25.1341 10.8563ZM23.0269 20.8313C22.8293 21.3564 21.9074 21.8813 21.4464 21.947C21.0512 22.0126 20.5244 22.0126 19.9975 21.8813C19.6683 21.7501 19.2074 21.6188 18.6805 21.3564C16.3098 20.372 14.7951 18.0095 14.6634 17.8126C14.5317 17.6813 13.6756 16.5657 13.6756 15.3844C13.6756 14.2032 14.2683 13.6782 14.4659 13.4157C14.6634 13.1532 14.9269 13.1532 15.1244 13.1532C15.2561 13.1532 15.4536 13.1532 15.5854 13.1532C15.7171 13.1532 15.9146 13.0876 16.1122 13.547C16.3098 14.0063 16.7707 15.1876 16.8366 15.2532C16.9025 15.3845 16.9025 15.5157 16.8366 15.647C16.7707 15.7782 16.7049 15.9095 16.5731 16.0407C16.4415 16.1719 16.3097 16.3688 16.2439 16.4345C16.1122 16.5657 15.9805 16.697 16.1122 16.8938C16.2439 17.1563 16.7049 17.8782 17.4293 18.5344C18.3512 19.3219 19.0756 19.5845 19.339 19.7158C19.6025 19.847 19.7341 19.7814 19.8659 19.6501C19.9976 19.5188 20.4585 18.9939 20.5902 18.7313C20.722 18.4688 20.9195 18.5345 21.1171 18.6001C21.3146 18.6657 22.5 19.2563 22.6975 19.3876C22.961 19.5188 23.0927 19.5845 23.1585 19.6501C23.2244 19.847 23.2244 20.3063 23.0269 20.8313Z" fill="white"></path></g><defs><clipPath id="clip0_2347_30"><rect width="36" height="36" fill="white"></rect></clipPath></defs></svg> 