<?xml version="1.0" encoding="UTF-8"?> <svg xmlns="http://www.w3.org/2000/svg" width="86" height="86" viewBox="0 0 86 86" fill="none"><path d="M22.4947 62.4699H14.3819C14.1612 62.4699 13.9496 62.3778 13.7935 62.2138C13.6375 62.0499 13.5498 61.8274 13.5498 61.5955V17.8744C13.5498 17.6425 13.6375 17.4201 13.7935 17.2561C13.9496 17.0921 14.1612 17 14.3819 17H22.7027V18.7488H15.214V60.7211H22.4947V62.4699Z" fill="#E61B23"></path><path d="M27.0811 67.7077C25.9792 67.7077 24.902 67.3487 23.9858 66.6762C23.0696 66.0036 22.3555 65.0476 21.9339 63.9292C21.5122 62.8107 21.4018 61.58 21.6168 60.3926C21.8318 59.2053 22.3624 58.1146 23.1416 57.2586C23.9207 56.4026 24.9134 55.8196 25.9942 55.5834C27.0749 55.3473 28.1951 55.4685 29.2131 55.9318C30.2312 56.395 31.1013 57.1796 31.7135 58.1862C32.3257 59.1927 32.6524 60.3762 32.6524 61.5868C32.6524 63.2102 32.0654 64.767 31.0206 65.9149C29.9758 67.0628 28.5587 67.7077 27.0811 67.7077V67.7077ZM27.0811 57.2147C26.294 57.2147 25.5246 57.4711 24.8702 57.9515C24.2158 58.4319 23.7057 59.1147 23.4045 59.9136C23.1033 60.7125 23.0245 61.5916 23.178 62.4397C23.3316 63.2878 23.7106 64.0669 24.2671 64.6783C24.8237 65.2898 25.5328 65.7062 26.3047 65.8749C27.0767 66.0436 27.8768 65.957 28.604 65.6261C29.3311 65.2952 29.9527 64.7348 30.3899 64.0158C30.8272 63.2968 31.0606 62.4515 31.0606 61.5868C31.0606 60.4272 30.6413 59.3152 29.895 58.4952C29.1487 57.6753 28.1365 57.2147 27.0811 57.2147Z" fill="#E61B23"></path><path d="M19.9193 40.6133H7.18481V42.3621H19.9193V40.6133Z" fill="#E61B23"></path><path d="M64.4903 60.7217H58.9189V62.4705H64.4903V60.7217Z" fill="#E61B23"></path><path d="M81.2042 62.4768H74.0411V60.728H80.4083V47.8653L72.0195 33.6209H58.9189V31.8721H72.4493C72.5825 31.8723 72.7134 31.9093 72.8302 31.9795C72.947 32.0498 73.0459 32.1512 73.1178 32.2743L81.8728 47.1395C81.9555 47.2802 81.9997 47.4441 82.0001 47.6117V61.6024C82.0001 61.8343 81.9163 62.0567 81.767 62.2207C81.6177 62.3847 81.4153 62.4768 81.2042 62.4768Z" fill="#E61B23"></path><path d="M58.9162 62.4699H32.0544V60.7211H58.1202V18.7488H50.9571V17H58.9162C59.1272 17 59.3297 17.0921 59.4789 17.2561C59.6282 17.4201 59.7121 17.6425 59.7121 17.8744V61.5955C59.7121 61.8274 59.6282 62.0499 59.4789 62.2138C59.3297 62.3778 59.1272 62.4699 58.9162 62.4699Z" fill="#E61B23"></path><path d="M69.2652 67.7077C68.1633 67.7077 67.0861 67.3487 66.1699 66.6762C65.2537 66.0036 64.5396 65.0476 64.1179 63.9292C63.6963 62.8107 63.5859 61.58 63.8009 60.3926C64.0159 59.2053 64.5465 58.1146 65.3257 57.2586C66.1048 56.4026 67.0975 55.8196 68.1783 55.5834C69.259 55.3473 70.3792 55.4685 71.3972 55.9318C72.4152 56.395 73.2854 57.1796 73.8975 58.1862C74.5097 59.1927 74.8365 60.3762 74.8365 61.5868C74.8365 63.2102 74.2495 64.767 73.2047 65.9149C72.1599 67.0628 70.7428 67.7077 69.2652 67.7077V67.7077ZM69.2652 57.2147C68.4781 57.2147 67.7087 57.4711 67.0543 57.9515C66.3998 58.4319 65.8898 59.1147 65.5886 59.9136C65.2874 60.7125 65.2086 61.5916 65.3621 62.4397C65.5157 63.2878 65.8947 64.0669 66.4512 64.6783C67.0078 65.2898 67.7169 65.7062 68.4888 65.8749C69.2608 66.0436 70.0609 65.957 70.7881 65.6261C71.5152 65.2952 72.1367 64.7348 72.574 64.0158C73.0113 63.2968 73.2447 62.4515 73.2447 61.5868C73.2447 60.4272 72.8254 59.3152 72.0791 58.4952C71.3328 57.6753 70.3206 57.2147 69.2652 57.2147Z" fill="#E61B23"></path><path d="M75.6324 48.4784H64.4898C64.2787 48.4784 64.0762 48.3863 63.927 48.2223C63.7777 48.0583 63.6938 47.8359 63.6938 47.604V38.8598C63.6938 38.6279 63.7777 38.4054 63.927 38.2415C64.0762 38.0775 64.2787 37.9854 64.4898 37.9854H70.857C70.9951 37.9854 71.1308 38.0249 71.2508 38.1C71.3709 38.1751 71.471 38.2833 71.5414 38.4138L76.3169 47.158C76.3885 47.2908 76.4269 47.442 76.4281 47.5964C76.4293 47.7507 76.3934 47.9026 76.3238 48.0367C76.2543 48.1709 76.1537 48.2824 76.0323 48.3599C75.9108 48.4375 75.7729 48.4784 75.6324 48.4784ZM65.2857 46.7296H74.2236L70.4033 39.7342H65.2857V46.7296Z" fill="#E61B23"></path><path d="M19.918 31.8721H4V33.6209H19.918V31.8721Z" fill="#E61B23"></path><path d="M19.9193 23.1123H7.18481V24.8611H19.9193V23.1123Z" fill="#E61B23"></path><path d="M22.4947 62.4699H14.3819C14.1612 62.4699 13.9496 62.3778 13.7935 62.2138C13.6375 62.0499 13.5498 61.8274 13.5498 61.5955V17.8744C13.5498 17.6425 13.6375 17.4201 13.7935 17.2561C13.9496 17.0921 14.1612 17 14.3819 17H22.7027V18.7488H15.214V60.7211H22.4947V62.4699Z" fill="#E61B23"></path><path d="M27.0811 67.7077C25.9792 67.7077 24.902 67.3487 23.9858 66.6762C23.0696 66.0036 22.3555 65.0476 21.9339 63.9292C21.5122 62.8107 21.4018 61.58 21.6168 60.3926C21.8318 59.2053 22.3624 58.1146 23.1416 57.2586C23.9207 56.4026 24.9134 55.8196 25.9942 55.5834C27.0749 55.3473 28.1951 55.4685 29.2131 55.9318C30.2312 56.395 31.1013 57.1796 31.7135 58.1862C32.3257 59.1927 32.6524 60.3762 32.6524 61.5868C32.6524 63.2102 32.0654 64.767 31.0206 65.9149C29.9758 67.0628 28.5587 67.7077 27.0811 67.7077V67.7077ZM27.0811 57.2147C26.294 57.2147 25.5246 57.4711 24.8702 57.9515C24.2158 58.4319 23.7057 59.1147 23.4045 59.9136C23.1033 60.7125 23.0245 61.5916 23.178 62.4397C23.3316 63.2878 23.7106 64.0669 24.2671 64.6783C24.8237 65.2898 25.5328 65.7062 26.3047 65.8749C27.0767 66.0436 27.8768 65.957 28.604 65.6261C29.3311 65.2952 29.9527 64.7348 30.3899 64.0158C30.8272 63.2968 31.0606 62.4515 31.0606 61.5868C31.0606 60.4272 30.6413 59.3152 29.895 58.4952C29.1487 57.6753 28.1365 57.2147 27.0811 57.2147Z" fill="#E61B23"></path><path d="M19.9193 40.6133H7.18481V42.3621H19.9193V40.6133Z" fill="#E61B23"></path><path d="M64.4903 60.7217H58.9189V62.4705H64.4903V60.7217Z" fill="#E61B23"></path><path d="M81.2042 62.4768H74.0411V60.728H80.4083V47.8653L72.0195 33.6209H58.9189V31.8721H72.4493C72.5825 31.8723 72.7134 31.9093 72.8302 31.9795C72.947 32.0498 73.0459 32.1512 73.1178 32.2743L81.8728 47.1395C81.9555 47.2802 81.9997 47.4441 82.0001 47.6117V61.6024C82.0001 61.8343 81.9163 62.0567 81.767 62.2207C81.6177 62.3847 81.4153 62.4768 81.2042 62.4768Z" fill="#E61B23"></path><path d="M58.9162 62.4699H32.0544V60.7211H58.1202V18.7488H50.9571V17H58.9162C59.1272 17 59.3297 17.0921 59.4789 17.2561C59.6282 17.4201 59.7121 17.6425 59.7121 17.8744V61.5955C59.7121 61.8274 59.6282 62.0499 59.4789 62.2138C59.3297 62.3778 59.1272 62.4699 58.9162 62.4699Z" fill="#E61B23"></path><path d="M69.2652 67.7077C68.1633 67.7077 67.0861 67.3487 66.1699 66.6762C65.2537 66.0036 64.5396 65.0476 64.1179 63.9292C63.6963 62.8107 63.5859 61.58 63.8009 60.3926C64.0159 59.2053 64.5465 58.1146 65.3257 57.2586C66.1048 56.4026 67.0975 55.8196 68.1783 55.5834C69.259 55.3473 70.3792 55.4685 71.3972 55.9318C72.4152 56.395 73.2854 57.1796 73.8975 58.1862C74.5097 59.1927 74.8365 60.3762 74.8365 61.5868C74.8365 63.2102 74.2495 64.767 73.2047 65.9149C72.1599 67.0628 70.7428 67.7077 69.2652 67.7077V67.7077ZM69.2652 57.2147C68.4781 57.2147 67.7087 57.4711 67.0543 57.9515C66.3998 58.4319 65.8898 59.1147 65.5886 59.9136C65.2874 60.7125 65.2086 61.5916 65.3621 62.4397C65.5157 63.2878 65.8947 64.0669 66.4512 64.6783C67.0078 65.2898 67.7169 65.7062 68.4888 65.8749C69.2608 66.0436 70.0609 65.957 70.7881 65.6261C71.5152 65.2952 72.1367 64.7348 72.574 64.0158C73.0113 63.2968 73.2447 62.4515 73.2447 61.5868C73.2447 60.4272 72.8254 59.3152 72.0791 58.4952C71.3328 57.6753 70.3206 57.2147 69.2652 57.2147Z" fill="#E61B23"></path><path d="M75.6324 48.4784H64.4898C64.2787 48.4784 64.0762 48.3863 63.927 48.2223C63.7777 48.0583 63.6938 47.8359 63.6938 47.604V38.8598C63.6938 38.6279 63.7777 38.4054 63.927 38.2415C64.0762 38.0775 64.2787 37.9854 64.4898 37.9854H70.857C70.9951 37.9854 71.1308 38.0249 71.2508 38.1C71.3709 38.1751 71.471 38.2833 71.5414 38.4138L76.3169 47.158C76.3885 47.2908 76.4269 47.442 76.4281 47.5964C76.4293 47.7507 76.3934 47.9026 76.3238 48.0367C76.2543 48.1709 76.1537 48.2824 76.0323 48.3599C75.9108 48.4375 75.7729 48.4784 75.6324 48.4784ZM65.2857 46.7296H74.2236L70.4033 39.7342H65.2857V46.7296Z" fill="#E61B23"></path><path d="M19.918 31.8721H4V33.6209H19.918V31.8721Z" fill="#E61B23"></path><path d="M19.9193 23.1123H7.18481V24.8611H19.9193V23.1123Z" fill="#E61B23"></path><line x1="22.7046" y1="17.852" x2="51.3681" y2="17.852" stroke="#E61B23" stroke-width="1.8"></line></svg> 