<?xml version="1.0" encoding="UTF-8"?> <svg xmlns="http://www.w3.org/2000/svg" width="100" height="100" viewBox="0 0 100 100" fill="none"><path fill-rule="evenodd" clip-rule="evenodd" d="M74.5 15.109H63L60.866 15.1042L60.634 15.1029C60.3824 15.0865 60.866 15.1042 60.866 15.1042L15.866 15C15.277 15.275 14.956 15.883 15.012 16.495C15.009 16.533 15 16.57 15 16.609V74.609C15 75.0068 15.158 75.3884 15.4393 75.6697C15.7206 75.951 16.1022 76.109 16.5 76.109H74.5C74.8978 76.109 75.2794 75.951 75.5607 75.6697C75.842 75.3884 76 75.0068 76 74.609V16.609C76 16.2112 75.842 15.8296 75.5607 15.5483C75.2794 15.267 74.8978 15.109 74.5 15.109ZM73 73.109H18V18.109H73V73.109Z" fill="#E61B23"></path><rect x="26" y="26" width="58" height="57" fill="white"></rect><path fill-rule="evenodd" clip-rule="evenodd" d="M83.5 24.109H72L69.866 24.1042L69.634 24.1029C69.3824 24.0865 69.866 24.1042 69.866 24.1042L24.866 24C24.277 24.275 23.956 24.883 24.012 25.495C24.009 25.533 24 25.57 24 25.609V83.609C24 84.0068 24.158 84.3884 24.4393 84.6697C24.7206 84.951 25.1022 85.109 25.5 85.109H83.5C83.8978 85.109 84.2794 84.951 84.5607 84.6697C84.842 84.3884 85 84.0068 85 83.609V25.609C85 25.2112 84.842 24.8296 84.5607 24.5483C84.2794 24.267 83.8978 24.109 83.5 24.109ZM82 82.109H27V27.109H82V82.109Z" fill="#E61B23"></path><path fill-rule="evenodd" clip-rule="evenodd" d="M53.4741 65.573C53.7548 65.8472 54.1318 66.0004 54.5242 65.9998C54.9166 65.9993 55.2931 65.845 55.5731 65.57C55.9491 65.201 64.8051 56.502 67.7461 53.415C69.2021 51.887 70.0021 49.827 70.0001 47.616C69.9941 42.871 66.1231 39.006 61.3701 38.999H61.3591C60.0234 38.9988 58.706 39.3096 57.5113 39.9068C56.3166 40.5041 55.2774 41.3714 54.4761 42.44C53.671 41.3827 52.6333 40.525 51.4433 39.9335C50.2533 39.342 48.943 39.0325 47.6141 39.029H47.6031C46.4719 39.0256 45.3513 39.2465 44.3062 39.6791C43.261 40.1116 42.312 40.7472 41.5141 41.549C40.7128 42.3458 40.0779 43.2939 39.6461 44.3381C39.2144 45.3824 38.9944 46.502 38.9991 47.632C39.0011 49.831 39.7941 51.878 41.2321 53.395C44.1801 56.5 53.0961 65.204 53.4741 65.573ZM43.6361 43.67C44.156 43.1476 44.7745 42.7335 45.4556 42.4518C46.1367 42.1701 46.867 42.0264 47.6041 42.029H47.6111C48.8476 42.0322 50.0489 42.4414 51.0303 43.1937C52.0117 43.946 52.7188 44.9997 53.0431 46.193C53.1292 46.5111 53.3177 46.792 53.5794 46.9923C53.8411 47.1925 54.1615 47.301 54.4911 47.301H54.4981C54.8288 47.2993 55.1496 47.1885 55.4109 46.9858C55.6721 46.7831 55.8592 46.4999 55.9431 46.18C56.2564 44.9821 56.958 43.9218 57.9382 43.1653C58.9184 42.4087 60.1219 41.9986 61.3601 41.999H61.3671C64.4701 42.003 66.9971 44.525 67.0011 47.62C67.0021 49.056 66.4961 50.379 65.5751 51.346C63.2601 53.776 57.0131 59.944 54.5201 62.399C52.0141 59.946 45.7271 53.772 43.4111 51.33C42.5031 50.373 42.0031 49.059 42.0011 47.628C41.9975 46.8928 42.1402 46.1643 42.4209 45.4848C42.7016 44.8052 43.1147 44.1884 43.6361 43.67Z" fill="#E61B23"></path></svg> 