<svg width="173" height="26" viewBox="0 0 173 26" fill="none" xmlns="http://www.w3.org/2000/svg">
<path d="M21.87 11.79V13.98H21.66V11.79C21.66 10.51 21.37 9.58001 20.79 9.00001C20.21 8.40001 19.26 8.10001 17.94 8.10001H16.35V7.92001H17.94C18.58 7.92001 19.11 7.86001 19.53 7.74001C19.97 7.60001 20.32 7.42001 20.58 7.20001C20.52 7.12001 20.31 6.84001 19.95 6.36001C19.59 5.86001 19.08 5.33001 18.42 4.77001C17.76 4.21001 16.95 3.71001 15.99 3.27001C15.05 2.81001 13.97 2.58001 12.75 2.58001C11.51 2.58001 10.42 2.76001 9.48002 3.12001C8.54002 3.48001 7.72002 3.96001 7.02002 4.56001C6.34002 5.16001 5.77002 5.85001 5.31002 6.63001C4.87002 7.39001 4.51002 8.18001 4.23002 9.00001C3.97002 9.82001 3.78002 10.63 3.66002 11.43C3.54002 12.23 3.48002 12.96 3.48002 13.62C3.48002 14.7 3.60002 15.89 3.84002 17.19C4.10002 18.47 4.56002 19.68 5.22002 20.82C5.88002 21.94 6.79002 22.88 7.95002 23.64C9.11002 24.4 10.59 24.78 12.39 24.78C13.71 24.78 14.82 24.67 15.72 24.45C16.62 24.21 17.34 23.87 17.88 23.43C18.42 22.97 18.81 22.42 19.05 21.78C19.29 21.12 19.41 20.38 19.41 19.56V17.94C19.41 17.5 19.4 17.13 19.38 16.83C19.36 16.51 19.28 16.26 19.14 16.08C19.02 15.88 18.82 15.74 18.54 15.66C18.28 15.58 17.91 15.54 17.43 15.54H14.79C14.75 15.54 14.73 15.52 14.73 15.48V15.42C14.73 15.38 14.75 15.36 14.79 15.36H25.29C25.33 15.36 25.35 15.38 25.35 15.42V15.48C25.35 15.52 25.33 15.54 25.29 15.54H23.88C23.5 15.54 23.2 15.58 22.98 15.66C22.78 15.72 22.63 15.83 22.53 15.99C22.43 16.13 22.37 16.32 22.35 16.56C22.33 16.78 22.32 17.06 22.32 17.4V20.73C21.8 21.57 21.09 22.31 20.19 22.95C19.81 23.23 19.36 23.51 18.84 23.79C18.32 24.05 17.74 24.29 17.1 24.51C16.46 24.71 15.74 24.87 14.94 24.99C14.14 25.13 13.26 25.2 12.3 25.2C10.68 25.2 9.12002 24.95 7.62002 24.45C6.14002 23.95 4.83002 23.22 3.69002 22.26C2.57002 21.28 1.67002 20.07 0.990022 18.63C0.330022 17.17 2.20053e-05 15.5 2.20053e-05 13.62C2.20053e-05 11.74 0.350022 10.08 1.05002 8.64001C1.75002 7.20001 2.67002 6.00001 3.81002 5.04001C4.95002 4.06001 6.24002 3.32001 7.68002 2.82001C9.12002 2.32001 10.59 2.07001 12.09 2.07001C13.51 2.07001 14.76 2.33001 15.84 2.85001C16.92 3.35001 17.83 3.91001 18.57 4.53001C19.43 5.27001 20.17 6.10001 20.79 7.02001C21.05 6.76001 21.26 6.41001 21.42 5.97001C21.58 5.53001 21.66 4.95001 21.66 4.23001V2.04001H21.87V4.23001C21.87 5.53001 22.17 6.47001 22.77 7.05001C23.37 7.63001 24.31 7.92001 25.59 7.92001H27.18V8.10001H25.59C24.29 8.12001 23.34 8.42001 22.74 9.00001C22.16 9.56001 21.87 10.49 21.87 11.79ZM46.7522 3.27001V3.87001C46.0722 3.89001 45.5522 3.99001 45.1922 4.17001C44.8522 4.35001 44.6222 4.64001 44.5022 5.04001C44.3822 5.44001 44.3222 6.01001 44.3222 6.75001V15.78C44.3222 17.18 44.2322 18.4 44.0522 19.44C43.8722 20.48 43.5522 21.38 43.0922 22.14C42.5922 22.98 41.8622 23.66 40.9022 24.18C39.9422 24.68 38.8422 24.93 37.6022 24.93C36.6422 24.93 35.7222 24.81 34.8422 24.57C33.9822 24.35 33.2222 23.93 32.5622 23.31C31.9822 22.75 31.5222 22.16 31.1822 21.54C30.8622 20.92 30.6422 20.16 30.5222 19.26C30.4022 18.36 30.3422 17.23 30.3422 15.87V6.45001C30.3422 5.71001 30.2822 5.17001 30.1622 4.83001C30.0422 4.47001 29.8022 4.23001 29.4422 4.11001C29.1022 3.97001 28.5922 3.89001 27.9122 3.87001V3.27001C28.3322 3.29001 28.8822 3.31001 29.5622 3.33001C30.2422 3.35001 30.9722 3.36001 31.7522 3.36001C32.4522 3.36001 33.1422 3.35001 33.8222 3.33001C34.5222 3.31001 35.1022 3.29001 35.5622 3.27001V3.87001C34.8822 3.89001 34.3622 3.97001 34.0022 4.11001C33.6622 4.23001 33.4322 4.47001 33.3122 4.83001C33.1922 5.17001 33.1322 5.71001 33.1322 6.45001V16.38C33.1322 17.4 33.1822 18.37 33.2822 19.29C33.3822 20.19 33.5822 20.99 33.8822 21.69C34.2022 22.37 34.6822 22.91 35.3222 23.31C35.9622 23.69 36.8122 23.88 37.8722 23.88C39.3922 23.88 40.5622 23.55 41.3822 22.89C42.2222 22.21 42.8022 21.28 43.1222 20.1C43.4622 18.92 43.6322 17.59 43.6322 16.11V6.75001C43.6322 6.01001 43.5422 5.44001 43.3622 5.04001C43.2022 4.64001 42.9222 4.35001 42.5222 4.17001C42.1222 3.99001 41.5822 3.89001 40.9022 3.87001V3.27001C41.2622 3.29001 41.7322 3.31001 42.3122 3.33001C42.9122 3.35001 43.4622 3.36001 43.9622 3.36001C44.4822 3.36001 44.9922 3.35001 45.4922 3.33001C46.0122 3.31001 46.4322 3.29001 46.7522 3.27001ZM54.6314 2.94001C55.6314 2.94001 56.3914 3.06001 56.9114 3.30001C57.4314 3.52001 57.8914 3.77001 58.2914 4.05001C58.5314 4.19001 58.7214 4.30001 58.8614 4.38001C59.0214 4.44001 59.1714 4.47001 59.3114 4.47001C59.5114 4.47001 59.6514 4.36001 59.7314 4.14001C59.8314 3.92001 59.9114 3.59001 59.9714 3.15001H60.6614C60.6414 3.49001 60.6114 3.90001 60.5714 4.38001C60.5514 4.84001 60.5314 5.46001 60.5114 6.24001C60.5114 7.00001 60.5114 8.01001 60.5114 9.27001H59.8214C59.7614 8.31001 59.5514 7.39001 59.1914 6.51001C58.8314 5.63001 58.3014 4.91001 57.6014 4.35001C56.9214 3.79001 56.0214 3.51001 54.9014 3.51001C53.8414 3.51001 52.9614 3.83001 52.2614 4.47001C51.5814 5.11001 51.2414 5.95001 51.2414 6.99001C51.2414 7.89001 51.4714 8.65001 51.9314 9.27001C52.3914 9.87001 53.0014 10.42 53.7614 10.92C54.5414 11.4 55.3814 11.92 56.2814 12.48C57.3214 13.12 58.2414 13.76 59.0414 14.4C59.8614 15.02 60.5014 15.71 60.9614 16.47C61.4414 17.23 61.6814 18.15 61.6814 19.23C61.6814 20.51 61.3914 21.57 60.8114 22.41C60.2314 23.25 59.4614 23.88 58.5014 24.3C57.5414 24.72 56.4814 24.93 55.3214 24.93C54.2614 24.93 53.4214 24.81 52.8014 24.57C52.1814 24.33 51.6514 24.08 51.2114 23.82C50.7714 23.54 50.4314 23.4 50.1914 23.4C49.9914 23.4 49.8414 23.51 49.7414 23.73C49.6614 23.95 49.5914 24.28 49.5314 24.72H48.8414C48.8814 24.3 48.9014 23.81 48.9014 23.25C48.9214 22.67 48.9314 21.92 48.9314 21C48.9514 20.08 48.9614 18.92 48.9614 17.52H49.6514C49.7314 18.72 49.9514 19.84 50.3114 20.88C50.6914 21.92 51.2614 22.76 52.0214 23.4C52.8014 24.02 53.8314 24.33 55.1114 24.33C55.7714 24.33 56.3914 24.2 56.9714 23.94C57.5714 23.66 58.0614 23.23 58.4414 22.65C58.8214 22.05 59.0114 21.28 59.0114 20.34C59.0114 19.52 58.8114 18.81 58.4114 18.21C58.0314 17.59 57.4914 17.02 56.7914 16.5C56.0914 15.96 55.2714 15.41 54.3314 14.85C53.3914 14.27 52.5114 13.68 51.6914 13.08C50.8714 12.48 50.2114 11.79 49.7114 11.01C49.2314 10.21 48.9914 9.25001 48.9914 8.13001C48.9914 6.95001 49.2514 5.98001 49.7714 5.22001C50.3114 4.44001 51.0114 3.87001 51.8714 3.51001C52.7314 3.13001 53.6514 2.94001 54.6314 2.94001ZM80.3126 3.27001C80.2326 4.03001 80.1726 4.77001 80.1326 5.49001C80.1126 6.19001 80.1026 6.73001 80.1026 7.11001C80.1026 7.59001 80.1126 8.04001 80.1326 8.46001C80.1526 8.88001 80.1726 9.25001 80.1926 9.57001H79.5026C79.3626 8.17001 79.1726 7.07001 78.9326 6.27001C78.6926 5.45001 78.2726 4.86001 77.6726 4.50001C77.0726 4.14001 76.1426 3.96001 74.8826 3.96001H73.2626V21.03C73.2626 21.83 73.3326 22.43 73.4726 22.83C73.6326 23.23 73.9326 23.5 74.3726 23.64C74.8126 23.78 75.4526 23.87 76.2926 23.91V24.51C75.7726 24.47 75.1126 24.45 74.3126 24.45C73.5126 24.43 72.7026 24.42 71.8826 24.42C70.9826 24.42 70.1326 24.43 69.3326 24.45C68.5526 24.45 67.9226 24.47 67.4426 24.51V23.91C68.2826 23.87 68.9226 23.78 69.3626 23.64C69.8026 23.5 70.0926 23.23 70.2326 22.83C70.3926 22.43 70.4726 21.83 70.4726 21.03V3.96001H68.8526C67.6126 3.96001 66.6826 4.14001 66.0626 4.50001C65.4626 4.86001 65.0426 5.45001 64.8026 6.27001C64.5626 7.07001 64.3726 8.17001 64.2326 9.57001H63.5426C63.5826 9.25001 63.6026 8.88001 63.6026 8.46001C63.6226 8.04001 63.6326 7.59001 63.6326 7.11001C63.6326 6.73001 63.6126 6.19001 63.5726 5.49001C63.5526 4.77001 63.5026 4.03001 63.4226 3.27001C64.2626 3.29001 65.1726 3.31001 66.1526 3.33001C67.1526 3.35001 68.1526 3.36001 69.1526 3.36001C70.1526 3.36001 71.0626 3.36001 71.8826 3.36001C72.7026 3.36001 73.6026 3.36001 74.5826 3.36001C75.5826 3.36001 76.5826 3.35001 77.5826 3.33001C78.5826 3.31001 79.4926 3.29001 80.3126 3.27001ZM91.7154 2.85001C93.6154 2.85001 95.2754 3.28001 96.6954 4.14001C98.1354 5.00001 99.2454 6.24001 100.025 7.86001C100.825 9.46001 101.225 11.41 101.225 13.71C101.225 15.95 100.815 17.91 99.9954 19.59C99.1954 21.27 98.0754 22.58 96.6354 23.52C95.1954 24.46 93.5454 24.93 91.6854 24.93C89.7854 24.93 88.1154 24.5 86.6754 23.64C85.2554 22.78 84.1454 21.54 83.3454 19.92C82.5654 18.3 82.1754 16.35 82.1754 14.07C82.1754 11.83 82.5854 9.87001 83.4054 8.19001C84.2254 6.51001 85.3454 5.20001 86.7654 4.26001C88.2054 3.32001 89.8554 2.85001 91.7154 2.85001ZM91.5954 3.39001C90.2954 3.39001 89.1654 3.84001 88.2054 4.74001C87.2454 5.64001 86.4954 6.88001 85.9554 8.46001C85.4354 10.04 85.1754 11.87 85.1754 13.95C85.1754 16.07 85.4654 17.92 86.0454 19.5C86.6454 21.06 87.4454 22.27 88.4454 23.13C89.4654 23.97 90.5854 24.39 91.8054 24.39C93.1054 24.39 94.2354 23.94 95.1954 23.04C96.1554 22.14 96.8954 20.9 97.4154 19.32C97.9554 17.72 98.2254 15.89 98.2254 13.83C98.2254 11.69 97.9254 9.84001 97.3254 8.28001C96.7454 6.72001 95.9554 5.52001 94.9554 4.68001C93.9554 3.82001 92.8354 3.39001 91.5954 3.39001ZM103.247 3.27001C103.667 3.29001 104.217 3.31001 104.897 3.33001C105.577 3.35001 106.247 3.36001 106.907 3.36001C107.847 3.36001 108.747 3.35001 109.607 3.33001C110.467 3.31001 111.077 3.30001 111.437 3.30001C113.057 3.30001 114.397 3.53001 115.457 3.99001C116.537 4.45001 117.337 5.08001 117.857 5.88001C118.397 6.66001 118.667 7.54001 118.667 8.52001C118.667 9.12001 118.547 9.76001 118.307 10.44C118.067 11.12 117.647 11.76 117.047 12.36C116.467 12.96 115.667 13.46 114.647 13.86C113.627 14.24 112.337 14.43 110.777 14.43H107.897V13.83H110.477C111.897 13.83 112.977 13.61 113.717 13.17C114.477 12.71 114.987 12.11 115.247 11.37C115.527 10.61 115.667 9.77001 115.667 8.85001C115.667 7.27001 115.287 6.05001 114.527 5.19001C113.787 4.31001 112.507 3.87001 110.687 3.87001C109.767 3.87001 109.167 4.04001 108.887 4.38001C108.607 4.72001 108.467 5.41001 108.467 6.45001V21.33C108.467 22.05 108.527 22.59 108.647 22.95C108.767 23.31 108.997 23.55 109.337 23.67C109.697 23.79 110.217 23.87 110.897 23.91V24.51C110.437 24.47 109.857 24.45 109.157 24.45C108.477 24.43 107.787 24.42 107.087 24.42C106.307 24.42 105.577 24.43 104.897 24.45C104.217 24.45 103.667 24.47 103.247 24.51V23.91C103.927 23.87 104.437 23.79 104.777 23.67C105.137 23.55 105.377 23.31 105.497 22.95C105.617 22.59 105.677 22.05 105.677 21.33V6.45001C105.677 5.71001 105.617 5.17001 105.497 4.83001C105.377 4.47001 105.137 4.23001 104.777 4.11001C104.437 3.97001 103.927 3.89001 103.247 3.87001V3.27001ZM108.017 13.92C109.097 13.96 109.947 14.01 110.567 14.07C111.187 14.11 111.687 14.15 112.067 14.19C112.467 14.23 112.847 14.28 113.207 14.34C114.547 14.56 115.507 14.97 116.087 15.57C116.687 16.15 117.127 17.06 117.407 18.3L118.157 21.36C118.357 22.24 118.557 22.88 118.757 23.28C118.977 23.66 119.307 23.84 119.747 23.82C120.087 23.8 120.367 23.69 120.587 23.49C120.827 23.29 121.077 23.02 121.337 22.68L121.787 23.01C121.367 23.63 120.927 24.11 120.467 24.45C120.027 24.77 119.397 24.93 118.577 24.93C117.837 24.93 117.187 24.71 116.627 24.27C116.067 23.83 115.647 22.97 115.367 21.69L114.707 18.69C114.527 17.83 114.317 17.09 114.077 16.47C113.857 15.83 113.537 15.33 113.117 14.97C112.717 14.61 112.117 14.43 111.317 14.43H108.077L108.017 13.92ZM140.285 3.27001V3.87001C139.605 3.89001 139.085 3.99001 138.725 4.17001C138.385 4.35001 138.155 4.64001 138.035 5.04001C137.915 5.44001 137.855 6.01001 137.855 6.75001V15.78C137.855 17.18 137.765 18.4 137.585 19.44C137.405 20.48 137.085 21.38 136.625 22.14C136.125 22.98 135.395 23.66 134.435 24.18C133.475 24.68 132.375 24.93 131.135 24.93C130.175 24.93 129.255 24.81 128.375 24.57C127.515 24.35 126.755 23.93 126.095 23.31C125.515 22.75 125.055 22.16 124.715 21.54C124.395 20.92 124.175 20.16 124.055 19.26C123.935 18.36 123.875 17.23 123.875 15.87V6.45001C123.875 5.71001 123.815 5.17001 123.695 4.83001C123.575 4.47001 123.335 4.23001 122.975 4.11001C122.635 3.97001 122.125 3.89001 121.445 3.87001V3.27001C121.865 3.29001 122.415 3.31001 123.095 3.33001C123.775 3.35001 124.505 3.36001 125.285 3.36001C125.985 3.36001 126.675 3.35001 127.355 3.33001C128.055 3.31001 128.635 3.29001 129.095 3.27001V3.87001C128.415 3.89001 127.895 3.97001 127.535 4.11001C127.195 4.23001 126.965 4.47001 126.845 4.83001C126.725 5.17001 126.665 5.71001 126.665 6.45001V16.38C126.665 17.4 126.715 18.37 126.815 19.29C126.915 20.19 127.115 20.99 127.415 21.69C127.735 22.37 128.215 22.91 128.855 23.31C129.495 23.69 130.345 23.88 131.405 23.88C132.925 23.88 134.095 23.55 134.915 22.89C135.755 22.21 136.335 21.28 136.655 20.1C136.995 18.92 137.165 17.59 137.165 16.11V6.75001C137.165 6.01001 137.075 5.44001 136.895 5.04001C136.735 4.64001 136.455 4.35001 136.055 4.17001C135.655 3.99001 135.115 3.89001 134.435 3.87001V3.27001C134.795 3.29001 135.265 3.31001 135.845 3.33001C136.445 3.35001 136.995 3.36001 137.495 3.36001C138.015 3.36001 138.525 3.35001 139.025 3.33001C139.545 3.31001 139.965 3.29001 140.285 3.27001ZM167.185 5.85001V4.80001C167.185 4.62001 167.165 4.43001 167.125 4.23001C167.105 4.03001 167.055 3.85001 166.975 3.69001C166.895 3.53001 166.775 3.40001 166.615 3.30001C166.475 3.18001 166.295 3.12001 166.075 3.12001H165.565C165.225 3.12001 164.985 3.25001 164.845 3.51001C164.725 3.75001 164.705 4.03001 164.785 4.35001C164.945 5.01001 165.145 5.84001 165.385 6.84001C165.625 7.82001 165.885 8.89001 166.165 10.05C166.445 11.19 166.735 12.38 167.035 13.62C167.335 14.84 167.625 16.03 167.905 17.19C168.205 18.33 168.475 19.4 168.715 20.4C168.955 21.38 169.165 22.21 169.345 22.89C169.605 23.85 170.235 24.33 171.235 24.33H172.435C172.515 24.33 172.555 24.35 172.555 24.39V24.45C172.555 24.49 172.515 24.51 172.435 24.51H164.095C164.015 24.51 163.975 24.49 163.975 24.45V24.39C163.975 24.35 164.015 24.33 164.095 24.33H165.385C165.805 24.33 166.135 24.28 166.375 24.18C166.615 24.08 166.785 23.95 166.885 23.79C167.005 23.63 167.065 23.45 167.065 23.25C167.065 23.05 167.045 22.86 167.005 22.68C166.865 22.08 166.685 21.36 166.465 20.52C166.265 19.66 166.045 18.74 165.805 17.76C165.565 16.78 165.305 15.76 165.025 14.7C164.765 13.64 164.515 12.6 164.275 11.58C163.695 9.18001 163.075 6.66001 162.415 4.02001L157.105 18.3C157.325 18.5 157.615 18.66 157.975 18.78C158.335 18.9 158.805 18.96 159.385 18.96H161.125V19.11H159.355C158.275 19.15 157.505 19.4 157.045 19.86C156.585 20.3 156.355 21.06 156.355 22.14V23.43H156.205V22.11C156.165 21.05 155.915 20.29 155.455 19.83C155.015 19.35 154.255 19.11 153.175 19.11H151.435V18.96H153.205C153.665 18.96 154.045 18.92 154.345 18.84C154.665 18.76 154.935 18.65 155.155 18.51L149.125 4.80001C148.425 7.68001 147.695 10.65 146.935 13.71C146.195 16.75 145.475 19.71 144.775 22.59C144.535 23.75 145.015 24.33 146.215 24.33H147.115C147.175 24.33 147.205 24.35 147.205 24.39V24.45C147.205 24.49 147.175 24.51 147.115 24.51H141.115C141.055 24.51 141.025 24.49 141.025 24.45V24.39C141.025 24.35 141.055 24.33 141.115 24.33H142.015C142.615 24.33 143.055 24.19 143.335 23.91C143.635 23.63 143.865 23.18 144.025 22.56C144.725 19.64 145.445 16.69 146.185 13.71C146.925 10.73 147.645 7.78001 148.345 4.86001C148.465 4.36001 148.465 3.95001 148.345 3.63001C148.225 3.31001 147.935 3.14001 147.475 3.12001H146.965C146.525 3.12001 146.225 3.31001 146.065 3.69001C145.905 4.05001 145.825 4.41001 145.825 4.77001V5.82001H145.735V4.77001C145.735 4.13001 145.595 3.67001 145.315 3.39001C145.035 3.09001 144.575 2.94001 143.935 2.94001H142.855V2.85001H143.935C144.575 2.85001 145.035 2.71001 145.315 2.43001C145.595 2.15001 145.735 1.69001 145.735 1.05001V8.82149e-06H145.825V1.05001C145.825 1.23001 145.835 1.42001 145.855 1.62001C145.875 1.80001 145.925 1.98001 146.005 2.16001C146.085 2.32001 146.195 2.46001 146.335 2.58001C146.495 2.68001 146.705 2.73001 146.965 2.73001H150.625C151.545 4.79001 152.405 6.73001 153.205 8.55001C153.545 9.33001 153.895 10.13 154.255 10.95C154.615 11.75 154.955 12.52 155.275 13.26C155.615 14 155.915 14.68 156.175 15.3C156.455 15.92 156.685 16.43 156.865 16.83L162.175 2.73001H165.745C166.045 2.73001 166.285 2.68001 166.465 2.58001C166.665 2.48001 166.815 2.36001 166.915 2.22001C167.015 2.06001 167.085 1.88001 167.125 1.68001C167.165 1.48001 167.185 1.29001 167.185 1.11001V0.0300084H167.275V1.11001C167.275 1.75001 167.415 2.21001 167.695 2.49001C167.975 2.77001 168.435 2.91001 169.075 2.91001H169.975V3.00001H169.075C168.435 3.00001 167.975 3.15001 167.695 3.45001C167.415 3.73001 167.275 4.19001 167.275 4.83001V5.85001H167.185Z" fill="#342318"/>
</svg>
