<?xml version="1.0" encoding="UTF-8"?> <svg xmlns="http://www.w3.org/2000/svg" width="36" height="36" viewBox="0 0 36 36" fill="none"><circle cx="18" cy="18" r="18" fill="black"></circle><circle cx="18" cy="18" r="18" stroke="white"></circle><path d="M25.2 10.7998H10.8C9.8055 10.7998 9.009 11.6053 9.009 12.5998L9 23.3998C9 24.3943 9.8055 25.1998 10.8 25.1998H25.2C26.1945 25.1998 27 24.3943 27 23.3998V12.5998C27 11.6053 26.1945 10.7998 25.2 10.7998ZM25.2 14.3998L18 18.8998L10.8 14.3998V12.5998L18 17.0998L25.2 12.5998V14.3998Z" fill="white"></path><path d="M25.2 10.7998H10.8C9.8055 10.7998 9.009 11.6053 9.009 12.5998L9 23.3998C9 24.3943 9.8055 25.1998 10.8 25.1998H25.2C26.1945 25.1998 27 24.3943 27 23.3998V12.5998C27 11.6053 26.1945 10.7998 25.2 10.7998ZM25.2 14.3998L18 18.8998L10.8 14.3998V12.5998L18 17.0998L25.2 12.5998V14.3998Z" stroke="white"></path></svg> 