<?xml version="1.0" encoding="UTF-8"?> <svg xmlns="http://www.w3.org/2000/svg" width="64" height="64" viewBox="0 0 64 64" fill="none"><path d="M61.9099 42.58C61.8296 42.4064 61.7012 42.2595 61.5399 42.1567C61.3786 42.0539 61.1912 41.9995 60.9999 42H51.9999V39C51.9999 38.7348 51.8946 38.4804 51.707 38.2929C51.5195 38.1054 51.2651 38 50.9999 38H48.8199L49.5999 37.4C50.8575 36.6307 51.8514 35.4972 52.4499 34.15C52.7602 32.7435 52.6238 31.2753 52.0599 29.95C51.7797 29.1602 51.6082 28.336 51.5499 27.5C51.6082 26.664 51.7797 25.8398 52.0599 25.05C52.6238 23.7247 52.7602 22.2565 52.4499 20.85C51.8514 19.5028 50.8575 18.3693 49.5999 17.6C48.9324 17.1555 48.3328 16.6165 47.8199 16C47.3814 15.312 47.0446 14.5643 46.8199 13.78C46.4861 12.3572 45.7213 11.072 44.6299 10.1C43.3759 9.35811 41.9217 9.026 40.4699 9.15C39.6389 9.18517 38.8071 9.10098 37.9999 8.9C37.2804 8.60402 36.6069 8.20667 35.9999 7.72C34.8726 6.75312 33.4772 6.15309 31.9999 6C30.5227 6.15309 29.1272 6.75312 27.9999 7.72C27.3915 8.20467 26.7184 8.60186 25.9999 8.9C25.203 9.10151 24.3815 9.18904 23.5599 9.16C22.1087 9.04393 20.6569 9.37549 19.3999 10.11C18.3086 11.082 17.5438 12.3672 17.2099 13.79C16.9852 14.5743 16.6484 15.322 16.2099 16.01C15.6871 16.6252 15.0774 17.1609 14.3999 17.6C13.1424 18.3693 12.1484 19.5028 11.5499 20.85C11.2397 22.2565 11.376 23.7247 11.9399 25.05C12.2201 25.8398 12.3917 26.664 12.4499 27.5C12.3962 28.3529 12.2246 29.1942 11.9399 30C11.376 31.3253 11.2397 32.7935 11.5499 34.2C12.1568 35.5288 13.15 36.6439 14.3999 37.4L15.1799 38H12.9999C12.7347 38 12.4804 38.1054 12.2928 38.2929C12.1053 38.4804 11.9999 38.7348 11.9999 39V42H2.99992C2.80866 41.9995 2.62127 42.0539 2.45997 42.1567C2.29868 42.2595 2.17026 42.4064 2.08992 42.58C2.00983 42.754 1.98138 42.9473 2.00798 43.137C2.03457 43.3267 2.11507 43.5047 2.23992 43.65L7.67992 50L2.23992 56.35C2.11507 56.4953 2.03457 56.6733 2.00798 56.863C1.98138 57.0527 2.00983 57.246 2.08992 57.42C2.17026 57.5936 2.29868 57.7405 2.45997 57.8433C2.62127 57.9461 2.80866 58.0005 2.99992 58H18.9999C19.2651 58 19.5195 57.8946 19.707 57.7071C19.8946 57.5196 19.9999 57.2652 19.9999 57V54H43.9999V57C43.9999 57.2652 44.1053 57.5196 44.2928 57.7071C44.4804 57.8946 44.7347 58 44.9999 58H60.9999C61.1912 58.0005 61.3786 57.9461 61.5399 57.8433C61.7012 57.7405 61.8296 57.5936 61.9099 57.42C61.99 57.246 62.0185 57.0527 61.9919 56.863C61.9653 56.6733 61.8848 56.4953 61.7599 56.35L56.3199 50L61.7599 43.65C61.8848 43.5047 61.9653 43.3267 61.9919 43.137C62.0185 42.9473 61.99 42.754 61.9099 42.58ZM17.7999 37.81C17.1682 37.0431 16.4309 36.3697 15.6099 35.81C14.6913 35.2708 13.9428 34.4842 13.4499 33.54C13.3049 32.5222 13.4433 31.4842 13.8499 30.54C14.196 29.5749 14.3982 28.564 14.4499 27.54C14.3982 26.516 14.196 25.5052 13.8499 24.54C13.4433 23.5958 13.3049 22.5578 13.4499 21.54C13.9428 20.5958 14.6913 19.8092 15.6099 19.27C16.4332 18.7133 17.1709 18.0395 17.7999 17.27C18.3516 16.4232 18.7761 15.5 19.0599 14.53C19.2834 13.4977 19.7969 12.5506 20.5399 11.8C21.4698 11.3422 22.5075 11.1485 23.5399 11.24C24.5516 11.2689 25.5621 11.1511 26.5399 10.89C27.4601 10.5355 28.3227 10.0469 29.0999 9.44C29.9054 8.68736 30.9135 8.18681 31.9999 8C33.0669 8.1696 34.063 8.64158 34.8699 9.36C35.6449 9.96473 36.5039 10.4532 37.4199 10.81C38.398 11.0695 39.4083 11.1874 40.4199 11.16C41.4523 11.0685 42.4901 11.2622 43.4199 11.72C44.1594 12.4733 44.6723 13.4192 44.8999 14.45C45.1838 15.42 45.6083 16.3432 46.1599 17.19C46.7916 17.9569 47.529 18.6303 48.3499 19.19C49.2685 19.7292 50.017 20.5158 50.5099 21.46C50.655 22.4778 50.5166 23.5158 50.1099 24.46C49.7638 25.4251 49.5617 26.436 49.5099 27.46C49.5617 28.484 49.7638 29.4948 50.1099 30.46C50.5166 31.4042 50.655 32.4422 50.5099 33.46C50.017 34.4042 49.2685 35.1908 48.3499 35.73C47.5266 36.2867 46.7889 36.9605 46.1599 37.73L46.0499 37.92H43.3499C46.0015 35.0967 47.4845 31.3732 47.4999 27.5C47.4999 23.3891 45.8669 19.4467 42.9601 16.5398C40.0533 13.633 36.1108 12 31.9999 12C27.8891 12 23.9466 13.633 21.0398 16.5398C18.133 19.4467 16.4999 23.3891 16.4999 27.5C16.4951 31.4009 17.9794 35.1565 20.6499 38H17.9099L17.7999 37.81ZM13.9999 40H27.9999C28.2651 40 28.5195 39.8946 28.707 39.7071C28.8946 39.5196 28.9999 39.2652 28.9999 39C28.9999 38.7348 28.8946 38.4804 28.707 38.2929C28.5195 38.1054 28.2651 38 27.9999 38H23.5599C21.3772 36.2516 19.7913 33.8684 19.0215 31.1797C18.2516 28.4911 18.3358 25.6297 19.2623 22.991C20.1889 20.3522 21.9121 18.0664 24.1938 16.4493C26.4756 14.8321 29.2032 13.9636 31.9999 13.9636C34.7966 13.9636 37.5243 14.8321 39.806 16.4493C42.0878 18.0664 43.811 20.3522 44.7375 22.991C45.6641 25.6297 45.7482 28.4911 44.9784 31.1797C44.2085 33.8684 42.6227 36.2516 40.4399 38H35.9999C35.7347 38 35.4804 38.1054 35.2928 38.2929C35.1053 38.4804 34.9999 38.7348 34.9999 39C34.9999 39.2652 35.1053 39.5196 35.2928 39.7071C35.4804 39.8946 35.7347 40 35.9999 40H49.9999V52H13.9999V40ZM9.75992 50.65C9.91485 50.4689 9.99999 50.2384 9.99999 50C9.99999 49.7616 9.91485 49.5311 9.75992 49.35L5.16992 44H11.9999V53C12.0035 53.1639 12.0473 53.3244 12.1275 53.4674C12.2078 53.6104 12.3219 53.7315 12.4599 53.82L15.6999 56H5.16992L9.75992 50.65ZM17.9999 55.13L16.2999 54H17.9999V55.13ZM47.6999 54L45.9999 55.13V54H47.6999ZM54.2399 49.35C54.085 49.5311 53.9999 49.7616 53.9999 50C53.9999 50.2384 54.085 50.4689 54.2399 50.65L58.8299 56H48.2999L51.5499 53.83C51.6875 53.7394 51.8005 53.6162 51.879 53.4715C51.9575 53.3267 51.9991 53.1647 51.9999 53V44H58.8299L54.2399 49.35Z" fill="#E61B23"></path><path d="M32 40C32.5523 40 33 39.5523 33 39C33 38.4477 32.5523 38 32 38C31.4477 38 31 38.4477 31 39C31 39.5523 31.4477 40 32 40Z" fill="#E61B23"></path><path d="M33 20.75C33.1 20.7 33.2 20.675 33.3 20.675C33.4167 20.675 33.5 20.7 33.55 20.75L33.65 20.825V25.6C33.65 28.7833 33.6667 30.3833 33.7 30.4C33.7833 30.5167 34.4 30.5833 35.55 30.6C36.2667 30.6 36.6583 30.6583 36.725 30.775C36.775 30.8917 36.7833 31.1917 36.75 31.675C36.75 31.7583 36.7417 31.8083 36.725 31.825C36.675 31.925 36.525 31.975 36.275 31.975C36.1583 31.975 35.9333 31.975 35.6 31.975C34.1667 31.9083 32.2583 31.9 29.875 31.95C29.6417 31.9667 29.45 31.975 29.3 31.975C28.6333 31.9917 28.2667 31.95 28.2 31.85C28.1167 31.75 28.1 31.4417 28.15 30.925C28.1667 30.825 28.1833 30.7667 28.2 30.75C28.2333 30.65 28.3917 30.6 28.675 30.6C28.7917 30.6 29.025 30.6 29.375 30.6C30.4917 30.5833 31.1083 30.5167 31.225 30.4C31.2583 30.3833 31.275 29.125 31.275 26.625V22.9H31.2C30.3833 23.05 29.6083 23.1333 28.875 23.15H28.2L28.125 23.075L28.025 22.975V22.45V21.925L28.1 21.85L28.175 21.75H28.825C30.675 21.7 32.0667 21.3667 33 20.75Z" fill="#E61B23"></path></svg> 