<?xml version="1.0" encoding="UTF-8"?> <svg xmlns="http://www.w3.org/2000/svg" width="86" height="86" viewBox="0 0 86 86" fill="none"><path d="M74.7188 24.75H66.6469L62.2719 16H45.6031L41.2281 24.75H25.5V20.375H14.5625V24.75H11.2812C10.411 24.75 9.57641 25.0957 8.96106 25.7111C8.3457 26.3264 8 27.161 8 28.0312V65.2188C8 66.089 8.3457 66.9236 8.96106 67.5389C9.57641 68.1543 10.411 68.5 11.2812 68.5H74.7188C75.589 68.5 76.4236 68.1543 77.0389 67.5389C77.6543 66.9236 78 66.089 78 65.2188V28.0312C78 27.161 77.6543 26.3264 77.0389 25.7111C76.4236 25.0957 75.589 24.75 74.7188 24.75ZM16.75 22.5625H23.3125V24.75H16.75V22.5625ZM75.8125 65.2188C75.8125 65.5088 75.6973 65.787 75.4921 65.9921C75.287 66.1973 75.0088 66.3125 74.7188 66.3125H11.2812C10.9912 66.3125 10.713 66.1973 10.5079 65.9921C10.3027 65.787 10.1875 65.5088 10.1875 65.2188V28.0312C10.1875 27.7412 10.3027 27.463 10.5079 27.2579C10.713 27.0527 10.9912 26.9375 11.2812 26.9375H42.5844L46.9594 18.1875H60.9156L65.2906 26.9375H74.7188C75.0088 26.9375 75.287 27.0527 75.4921 27.2579C75.6973 27.463 75.8125 27.7412 75.8125 28.0312V65.2188Z" fill="#FF0505"></path><path d="M25.5 29.125H23.3125V64.125H25.5V29.125Z" fill="#FF0505"></path><path d="M53.9375 29.125C50.4763 29.125 47.0929 30.1514 44.215 32.0743C41.3372 33.9972 39.0941 36.7303 37.7696 39.928C36.4451 43.1257 36.0985 46.6444 36.7738 50.0391C37.449 53.4337 39.1157 56.552 41.5631 58.9994C44.0106 61.4468 47.1288 63.1135 50.5234 63.7887C53.9181 64.464 57.4368 64.1174 60.6345 62.7929C63.8322 61.4684 66.5653 59.2253 68.4882 56.3475C70.4111 53.4696 71.4375 50.0862 71.4375 46.625C71.4375 41.9837 69.5938 37.5325 66.3119 34.2506C63.03 30.9687 58.5788 29.125 53.9375 29.125ZM53.9375 61.9375C50.909 61.9375 47.9485 61.0394 45.4303 59.3569C42.9122 57.6743 40.9496 55.2828 39.7906 52.4848C38.6316 49.6868 38.3284 46.608 38.9192 43.6377C39.5101 40.6673 40.9684 37.9389 43.1099 35.7974C45.2514 33.6559 47.9799 32.1976 50.9502 31.6067C53.9205 31.0159 56.9994 31.3191 59.7973 32.4781C62.5953 33.6371 64.9868 35.5997 66.6694 38.1178C68.3519 40.636 69.25 43.5965 69.25 46.625C69.25 50.6861 67.6367 54.5809 64.7651 57.4526C61.8934 60.3242 57.9986 61.9375 53.9375 61.9375Z" fill="#FF0505"></path><path d="M53.9375 35.6875C51.7743 35.6875 49.6596 36.329 47.861 37.5308C46.0623 38.7326 44.6604 40.4408 43.8326 42.4394C43.0047 44.438 42.7881 46.6371 43.2102 48.7588C43.6322 50.8805 44.6739 52.8293 46.2035 54.359C47.7332 55.8886 49.682 56.9303 51.8037 57.3523C53.9254 57.7744 56.1245 57.5578 58.1231 56.7299C60.1217 55.9021 61.8299 54.5002 63.0317 52.7016C64.2335 50.9029 64.875 48.7882 64.875 46.625C64.875 43.7242 63.7227 40.9422 61.6715 38.891C59.6203 36.8398 56.8383 35.6875 53.9375 35.6875ZM53.9375 55.375C52.2069 55.375 50.5152 54.8618 49.0763 53.9004C47.6373 52.9389 46.5158 51.5723 45.8536 49.9735C45.1913 48.3746 45.018 46.6153 45.3556 44.918C45.6933 43.2206 46.5266 41.6615 47.7503 40.4378C48.974 39.2141 50.5331 38.3807 52.2305 38.0431C53.9278 37.7055 55.6871 37.8788 57.286 38.5411C58.8848 39.2033 60.2514 40.3248 61.2129 41.7638C62.1743 43.2027 62.6875 44.8944 62.6875 46.625C62.6875 48.9456 61.7656 51.1712 60.1247 52.8122C58.4837 54.4531 56.2582 55.375 53.9375 55.375Z" fill="#FF0505"></path><path d="M36.4375 33.5C37.6456 33.5 38.625 32.5206 38.625 31.3125C38.625 30.1044 37.6456 29.125 36.4375 29.125C35.2294 29.125 34.25 30.1044 34.25 31.3125C34.25 32.5206 35.2294 33.5 36.4375 33.5Z" fill="#FF0505"></path></svg> 